<svg fill="none" xmlns="http://www.w3.org/2000/svg" viewBox="0 0 85 76">
    <path d="M29.145 54.563a20.848 20.848 0 0 0 7.8 1.375 39.432 39.432 0 0 0 8.66-1.05c2.099-.493 4.198-1.249 6.298-1.941 3.61-1.155 7.62-2.824 11.988-3.706a24.664 24.664 0 0 1 6.844-.504 16.24 16.24 0 0 1 6.708 2.1 15.21 15.21 0 0 1 4.734 4.136 13.648 13.648 0 0 1 2.509 5.605 15.746 15.746 0 0 1-4.063 14.024c-1.05 1.103-1.364.483-1.207-.892.105-.672.2-1.595.368-2.582 0-.515.136-1.05.21-1.575.073-.525.178-1.05.251-1.669a15.428 15.428 0 0 0 0-5.773 8.744 8.744 0 0 0-2.456-4.483 9.3 9.3 0 0 0-4.556-2.32 10.72 10.72 0 0 0-1.312-.24c-.451 0-.892-.095-1.365-.137a16.789 16.789 0 0 0-2.918 0 24.88 24.88 0 0 0-7.642 2.099c-1.29.535-2.635 1.123-4.073 1.68a71.873 71.873 0 0 1-4.293 1.511 60.23 60.23 0 0 1-9.847 2.163 35.093 35.093 0 0 1-10.37-.116 20.995 20.995 0 0 1-11.695-5.9 23.881 23.881 0 0 1-6.476-17.96c.115-2.432.403-4.852.86-7.243a47.121 47.121 0 0 1 1.942-6.95c.335-.993.757-1.955 1.26-2.875 1.984-3.391 3.15-4.147 4.619-4.2.332-.03.665-.03.997 0 .997.2.86 1.911.157 4.514-.283.956-.514 1.932-.755 2.898-.242.965-.578 1.868-.798 2.813a54.59 54.59 0 0 0-1.28 5.574 35.29 35.29 0 0 0-.452 5.49c.037 1.734.244 3.46.62 5.154.094.62.356 1.186.503 1.795.147.609.473 1.134.682 1.722.21.587.599 1.05.882 1.648.284.598.704.976 1.05 1.49a12.764 12.764 0 0 0 5.668 4.2l-.052.125Z" fill="#1B1F3B"/>
    <path d="M14.69 4.68C17.335 2.581 21.062-.264 26.069.02a10.13 10.13 0 0 1 4.892 1.595 17.026 17.026 0 0 1 5.028 5.805 41.553 41.553 0 0 1 2.792 6.299c.714 1.837 1.512 3.621 2.31 5.343a89.562 89.562 0 0 1 2.813 6.57c.252.673-.368 1.05-1.438 1.05a5.123 5.123 0 0 1-3.538-1.91 38.36 38.36 0 0 1-1.134-1.637l-.545-.82-.452-.85a111.252 111.252 0 0 1-1.68-3.359c-1.05-2.236-2.099-4.419-2.98-6.57a10.361 10.361 0 0 0-4.934-5.47 4.619 4.619 0 0 0-3.275-.189 13.143 13.143 0 0 0-3.81 1.921 39.75 39.75 0 0 0-4.662 3.81 50.25 50.25 0 0 0-6.214 6.887 47.737 47.737 0 0 0-3.548 6.183c-.252.462-.451.934-.724 1.385-.198.368-.427.72-.683 1.05-.205.22-.447.405-.714.546a2.436 2.436 0 0 1-1.637.126c-.3-.041-.599-.101-.892-.179-.903-.283-1.25-1.417-.924-2.98a31.786 31.786 0 0 1 1.228-3.36 34.923 34.923 0 0 1 1.627-3.15A47.456 47.456 0 0 1 7.06 12.28a57.94 57.94 0 0 1 7.568-7.757l.063.157Z" fill="#1B1F3B"/>
</svg>