<svg viewBox="0 0 515 270" xmlns="http://www.w3.org/2000/svg" xml:space="preserve" style="fill-rule:evenodd;clip-rule:evenodd;stroke-linejoin:round;stroke-miterlimit:2">
    <g transform="translate(-813.543 656.742)">
        <path style="fill:none" d="M813.596-656.742h514.676v270H813.596z"/>
        <clipPath id="a">
            <path d="M813.596-656.742h514.676v270H813.596z"/>
        </clipPath>
        
        <g clip-path="url(#a)">
            <path d="M326.251 9.697c-2.069-7.129-9.525-11.23-16.653-9.161-7.129 2.07-11.23 9.526-9.161 16.654l9.095 31.329c-26.314-12.597-49.183-20.615-68.962-24.643-26.462-5.39-48.406-3.828-65.596 4.628-16.56 8.148-26.897 21.645-32.615 37.464-23.161-5.31-47.108-3.989-67.525 9.288-24.125 15.689-34.33 38.821-35.359 62.955-.014.337-.027.675-.038 1.013a45.887 45.887 0 0 0-15.844 8.112C1.124 164.999-2.286 188.332 1.468 208.657c3.596 19.471 13.839 37.342 20.096 47.814 3.808 6.372 12.059 8.452 18.431 4.644 6.372-3.807 8.451-12.059 4.644-18.43-6.245-10.453-14.105-24.656-16.738-38.91-1.264-6.842-1.245-13.195.516-18.967 1.735-5.687 5.285-11.228 11.788-16.34a19.362 19.362 0 0 1 1.978-1.367c3.041 13.907 8.346 27.501 14.837 39.848 10.912 20.752 25.85 39.258 41.083 50.646 7.564 5.656 16.067 10.205 24.861 11.695 9.3 1.576 19.148-.336 26.929-7.857 13.782-13.323 10.76-32.438 4.865-46.553-6.279-15.033-17.991-30.577-31.643-43.54-13.663-12.974-30.313-24.356-47.263-30.086a79.76 79.76 0 0 0-9.489-2.584c.864-16.451 7.52-30.732 23.125-40.88 12.619-8.206 28.827-9.89 47.419-5.499-.851 10.59-.376 21.581 1.06 32.428 5.096 38.465 22.735 80.124 44.682 108.605 10.92 14.17 23.774 26.214 37.805 32.349 14.796 6.469 31.175 6.311 45.634-4.778 23.053-17.679 24.704-44.649 16.658-69.395-7.991-24.577-26.129-50.102-48.265-71.538-19.366-18.754-42.624-35.19-66.587-45.511 3.868-10.133 10.159-17.504 18.946-21.827 10.066-4.953 25.429-7.08 48.365-2.409 16.389 3.338 36.133 10.053 59.671 21.104l-28.812 8.363c-7.129 2.07-11.23 9.526-9.161 16.654 2.07 7.129 9.526 11.23 16.654 9.161l61.34-17.806c7.129-2.07 11.23-9.526 9.161-16.654l-17.807-61.34ZM164.615 121.189c-.898-6.773-1.324-13.219-1.273-19.27 18.387 8.891 36.666 22.078 52.439 37.353 20.196 19.557 35.207 41.485 41.402 60.54 3.077 9.462 3.785 17.431 2.508 23.916-1.247 6.334-4.448 11.61-9.96 15.837-2.913 2.234-5.713 3.281-8.511 3.512-2.852.235-6.133-.343-9.997-2.032-8.188-3.58-17.71-11.707-27.283-24.129-19.038-24.704-34.846-61.915-39.325-95.727ZM80.812 194.44c-4.546-8.647-8.245-17.696-10.775-26.704 11.429 4.456 23.69 12.766 34.569 23.096 11.782 11.187 20.898 23.752 25.348 34.407 4.776 11.434 2.505 15.661 1.258 16.867-.375.362-.716.579-1.171.703-.491.134-1.276.201-2.588-.021-3.008-.51-7.544-2.452-13.255-6.721-11.319-8.462-23.875-23.539-33.386-41.627Z" style="fill:#5674ff" transform="translate(814.034 -656.484)"/>
            <path d="m327.038 162.14-11.603-34.565h7.406l8.444 26.566 8.394-26.566h7.456l-11.653 34.565h-8.444ZM352.366 134.488c-1.053 0-1.975-.379-2.765-1.136-.757-.79-1.136-1.712-1.136-2.765 0-1.053.379-1.975 1.136-2.765.79-.79 1.712-1.185 2.765-1.185 1.086 0 2.008.395 2.765 1.185.79.79 1.185 1.712 1.185 2.765 0 1.053-.395 1.975-1.185 2.765-.757.757-1.679 1.136-2.765 1.136Zm-3.16 27.652v-24.689h6.37v24.689h-6.37ZM375.133 136.759c2.699 0 4.921.906 6.666 2.716 1.778 1.811 2.666 4.313 2.666 7.506v15.159h-6.369v-14.369c0-1.646-.445-2.897-1.334-3.753-.888-.889-2.073-1.333-3.555-1.333-1.646 0-2.962.51-3.95 1.53-.988 1.021-1.481 2.552-1.481 4.593v13.332h-6.37v-24.689h6.37v2.765c1.547-2.304 3.999-3.457 7.357-3.457ZM408.816 137.451h6.222v23.504c0 3.818-1.267 6.732-3.802 8.74-2.502 2.008-5.53 3.012-9.086 3.012-2.666 0-5.02-.51-7.061-1.531a10.727 10.727 0 0 1-4.641-4.493l5.431-3.111c1.251 2.304 3.407 3.456 6.469 3.456 2.008 0 3.588-.526 4.74-1.58 1.152-1.053 1.728-2.551 1.728-4.493v-2.667c-1.876 2.502-4.51 3.753-7.9 3.753-3.49 0-6.419-1.218-8.79-3.654-2.337-2.469-3.505-5.464-3.505-8.987 0-3.489 1.185-6.468 3.555-8.937 2.37-2.469 5.283-3.704 8.74-3.704 3.39 0 6.024 1.251 7.9 3.753v-3.061Zm-11.9 16.838c1.317 1.251 2.979 1.876 4.987 1.876s3.654-.625 4.938-1.876c1.317-1.284 1.975-2.914 1.975-4.889 0-1.942-.658-3.539-1.975-4.79-1.284-1.283-2.93-1.925-4.938-1.925-2.008 0-3.67.642-4.987 1.925-1.284 1.251-1.926 2.848-1.926 4.79 0 1.975.642 3.605 1.926 4.889ZM434.936 143.574h-5.579v10.27c0 .856.214 1.482.641 1.877.428.395 1.054.625 1.877.691.823.033 1.843.016 3.061-.049v5.777c-4.378.494-7.472.082-9.283-1.235-1.777-1.316-2.666-3.67-2.666-7.061v-10.27h-4.296v-6.123h4.296v-4.988l6.37-1.925v6.913h5.579v6.123ZM331.483 179.563c-3.49-.263-5.235 1.136-5.235 4.197v.247h5.235v6.123h-5.235v18.567h-6.369V190.13h-3.556v-6.123h3.556v-.247c0-3.489.971-6.139 2.913-7.949 1.942-1.811 4.839-2.601 8.691-2.371v6.123ZM354.521 205.635c-2.535 2.502-5.629 3.753-9.283 3.753s-6.748-1.251-9.283-3.753c-2.502-2.535-3.753-5.629-3.753-9.283s1.251-6.732 3.753-9.234c2.535-2.535 5.629-3.802 9.283-3.802s6.748 1.267 9.283 3.802c2.535 2.502 3.802 5.58 3.802 9.234s-1.267 6.748-3.802 9.283Zm-14.073-4.395c1.284 1.284 2.881 1.926 4.79 1.926 1.909 0 3.506-.642 4.79-1.926 1.283-1.283 1.925-2.913 1.925-4.888s-.642-3.605-1.925-4.889c-1.284-1.283-2.881-1.925-4.79-1.925-1.909 0-3.506.642-4.79 1.925-1.251 1.284-1.876 2.914-1.876 4.889s.625 3.605 1.876 4.888ZM365.964 181.045c-1.053 0-1.975-.379-2.765-1.136-.757-.79-1.135-1.712-1.135-2.765 0-1.054.378-1.975 1.135-2.765.79-.79 1.712-1.185 2.765-1.185 1.087 0 2.008.395 2.766 1.185.79.79 1.185 1.711 1.185 2.765 0 1.053-.395 1.975-1.185 2.765-.758.757-1.679 1.136-2.766 1.136Zm-3.16 27.652v-24.69h6.37v24.69h-6.37ZM380.687 191.019c0 .658.428 1.202 1.284 1.63.889.395 1.959.757 3.21 1.086 1.251.296 2.502.691 3.752 1.185 1.251.461 2.305 1.251 3.161 2.37.888 1.119 1.333 2.518 1.333 4.197 0 2.535-.955 4.494-2.864 5.876-1.876 1.35-4.23 2.025-7.061 2.025-5.07 0-8.526-1.959-10.37-5.876l5.531-3.111c.724 2.14 2.337 3.21 4.839 3.21 2.271 0 3.407-.708 3.407-2.124 0-.658-.444-1.185-1.333-1.58-.856-.428-1.91-.806-3.16-1.136a33.218 33.218 0 0 1-3.753-1.234 7.979 7.979 0 0 1-3.21-2.321c-.856-1.086-1.284-2.436-1.284-4.049 0-2.436.889-4.345 2.667-5.728 1.81-1.415 4.049-2.123 6.715-2.123 2.008 0 3.835.461 5.481 1.383 1.646.888 2.946 2.172 3.901 3.851l-5.432 2.963c-.79-1.679-2.106-2.518-3.95-2.518-.823 0-1.514.181-2.074.543-.526.362-.79.856-.79 1.481ZM415.985 191.019c0 .658.428 1.202 1.284 1.63.889.395 1.959.757 3.21 1.086 1.25.296 2.501.691 3.752 1.185 1.251.461 2.305 1.251 3.16 2.37.889 1.119 1.334 2.518 1.334 4.197 0 2.535-.955 4.494-2.864 5.876-1.877 1.35-4.23 2.025-7.061 2.025-5.07 0-8.526-1.959-10.37-5.876l5.531-3.111c.724 2.14 2.337 3.21 4.839 3.21 2.271 0 3.407-.708 3.407-2.124 0-.658-.445-1.185-1.333-1.58-.856-.428-1.91-.806-3.161-1.136a33.137 33.137 0 0 1-3.752-1.234 7.979 7.979 0 0 1-3.21-2.321c-.856-1.086-1.284-2.436-1.284-4.049 0-2.436.889-4.345 2.667-5.728 1.81-1.415 4.049-2.123 6.715-2.123 2.008 0 3.835.461 5.481 1.383 1.646.888 2.946 2.172 3.901 3.851l-5.432 2.963c-.79-1.679-2.107-2.518-3.95-2.518-.823 0-1.514.181-2.074.543-.527.362-.79.856-.79 1.481ZM449.116 184.007h6.37v24.69h-6.37v-2.766c-1.547 2.305-4 3.457-7.357 3.457-2.7 0-4.938-.905-6.716-2.716-1.745-1.811-2.617-4.312-2.617-7.505v-15.16h6.37v14.369c0 1.646.444 2.914 1.333 3.803.889.855 2.074 1.283 3.555 1.283 1.646 0 2.963-.51 3.951-1.53.987-1.021 1.481-2.552 1.481-4.592v-13.333ZM467.69 188.254c.592-1.58 1.563-2.765 2.913-3.555 1.383-.79 2.913-1.185 4.592-1.185v7.11c-1.942-.23-3.687.165-5.234 1.185-1.514 1.021-2.271 2.716-2.271 5.086v11.802h-6.37v-24.69h6.37v4.247ZM318.2 219.207h6.37v36.046h-6.37zM335.782 245.526c.856 3.094 3.177 4.641 6.962 4.641 2.436 0 4.28-.823 5.531-2.469l5.135 2.963c-2.436 3.522-6.024 5.284-10.764 5.284-4.082 0-7.358-1.235-9.827-3.704-2.469-2.469-3.703-5.58-3.703-9.332 0-3.72 1.218-6.815 3.654-9.283 2.436-2.502 5.563-3.753 9.382-3.753 3.621 0 6.6 1.251 8.937 3.753 2.37 2.501 3.555 5.596 3.555 9.283 0 .823-.082 1.695-.246 2.617h-18.616Zm-.099-4.938h12.592c-.362-1.679-1.12-2.93-2.272-3.753-1.119-.823-2.403-1.234-3.851-1.234-1.712 0-3.128.444-4.247 1.333-1.119.856-1.86 2.074-2.222 3.654ZM398.742 229.873c2.831 0 5.086.922 6.765 2.765 1.712 1.843 2.568 4.312 2.568 7.407v15.208h-6.37v-14.764c0-1.481-.362-2.633-1.087-3.456-.724-.823-1.744-1.235-3.061-1.235-1.449 0-2.584.478-3.407 1.432-.79.955-1.185 2.337-1.185 4.148v13.875h-6.37v-14.764c0-1.481-.362-2.633-1.086-3.456-.725-.823-1.745-1.235-3.062-1.235-1.415 0-2.551.478-3.407 1.432-.823.955-1.234 2.337-1.234 4.148v13.875h-6.37v-24.689h6.37v2.617c1.481-2.205 3.769-3.308 6.863-3.308 3.029 0 5.267 1.185 6.716 3.555 1.646-2.37 4.098-3.555 7.357-3.555ZM432.594 220.491l-5.481 6.765h-6.123l3.95-6.765h7.654Zm-13.727 25.035c.856 3.094 3.176 4.641 6.962 4.641 2.436 0 4.28-.823 5.53-2.469l5.136 2.963c-2.436 3.522-6.024 5.284-10.765 5.284-4.082 0-7.357-1.235-9.826-3.704-2.469-2.469-3.703-5.58-3.703-9.332 0-3.72 1.218-6.815 3.654-9.283 2.436-2.502 5.563-3.753 9.382-3.753 3.621 0 6.6 1.251 8.937 3.753 2.37 2.501 3.555 5.596 3.555 9.283 0 .823-.082 1.695-.247 2.617h-18.615Zm-.099-4.938h12.591c-.362-1.679-1.119-2.93-2.271-3.753-1.119-.823-2.403-1.234-3.851-1.234-1.712 0-3.128.444-4.247 1.333-1.119.856-1.86 2.074-2.222 3.654ZM455.575 236.687h-5.58v10.271c0 .856.214 1.481.642 1.876.428.395 1.053.626 1.876.691.823.033 1.844.017 3.062-.049v5.777c-4.378.494-7.473.083-9.283-1.234-1.778-1.317-2.667-3.671-2.667-7.061v-10.271h-4.296v-6.123h4.296v-4.987l6.37-1.926v6.913h5.58v6.123ZM463.226 227.601c-1.053 0-1.975-.378-2.765-1.135-.757-.79-1.136-1.712-1.136-2.766 0-1.053.379-1.975 1.136-2.765.79-.79 1.712-1.185 2.765-1.185 1.087 0 2.008.395 2.765 1.185.79.79 1.186 1.712 1.186 2.765 0 1.054-.396 1.976-1.186 2.766-.757.757-1.678 1.135-2.765 1.135Zm-3.16 27.652v-24.689h6.37v24.689h-6.37ZM477.648 245.526c.856 3.094 3.177 4.641 6.963 4.641 2.436 0 4.279-.823 5.53-2.469l5.135 2.963c-2.436 3.522-6.024 5.284-10.764 5.284-4.082 0-7.358-1.235-9.826-3.704-2.469-2.469-3.704-5.58-3.704-9.332 0-3.72 1.218-6.815 3.654-9.283 2.436-2.502 5.563-3.753 9.382-3.753 3.621 0 6.6 1.251 8.937 3.753 2.371 2.501 3.556 5.596 3.556 9.283 0 .823-.083 1.695-.247 2.617h-18.616Zm-.099-4.938h12.592c-.362-1.679-1.119-2.93-2.271-3.753-1.12-.823-2.404-1.234-3.852-1.234-1.712 0-3.127.444-4.247 1.333-1.119.856-1.859 2.074-2.222 3.654ZM507.327 234.811c.593-1.58 1.564-2.766 2.914-3.556 1.382-.79 2.913-1.185 4.592-1.185v7.111c-1.942-.231-3.687.164-5.234 1.185-1.515 1.02-2.272 2.716-2.272 5.086v11.801h-6.37v-24.689h6.37v4.247Z" style="fill:#1b1f3b;fill-rule:nonzero" transform="translate(814.034 -656.484)"/>
        </g>
    </g>
</svg>