<svg width="272" height="236" viewBox="0 0 272 236" fill="none" xmlns="http://www.w3.org/2000/svg">
<path d="M69.0415 81.4368L71.4402 79.124C72.0191 78.5451 72.6861 78.0618 73.4164 77.6919L75.0347 76.8685L72.8866 75.0283L69.2635 78.7731L69.0415 81.4368Z" fill="white"/>
<path d="M105.058 142.256C93.6801 139.593 96.5871 115.477 96.5871 115.477L101.979 113.823C101.979 113.823 97.876 127.427 100.31 132.79C102.745 138.153 105.058 142.256 105.058 142.256Z" fill="white"/>
<path d="M65.7976 90.9099C66.0124 89.7285 66.2057 88.5327 66.3919 87.3298C66.4563 86.893 66.4635 86.4491 66.5423 86.0051C66.7929 84.4513 67.1294 82.8976 67.5089 81.3581C67.6712 80.6659 67.8359 79.9785 68.003 79.2959C68.1822 78.3909 68.5321 77.5282 69.034 76.754C69.1987 76.5178 69.4493 76.7039 69.6284 77.0476C69.8388 77.44 69.8999 77.8954 69.8002 78.3293C69.3276 79.9475 69.0842 81.6588 68.6617 83.4059C68.4783 84.4867 68.354 85.5767 68.2894 86.671C68.1605 87.8811 68.0316 89.0984 67.8741 90.3156C67.7882 91.0674 67.6736 91.8264 67.5662 92.5783C67.386 93.7353 67.147 94.8824 66.8502 96.0152C66.682 96.9749 66.3373 97.895 65.8334 98.7289C65.7081 98.9362 65.5565 99.1264 65.3823 99.2946C64.6663 99.9247 64.251 99.8674 63.9503 99.4378C63.8677 99.3442 63.7934 99.2436 63.7283 99.1371C63.6453 98.9583 63.6202 98.758 63.6567 98.5642C63.6985 98.3871 63.7686 98.2178 63.8643 98.063C64.1677 97.5549 64.3945 97.0048 64.5374 96.4305C64.7672 95.7521 64.9584 95.0612 65.1102 94.3612C65.3608 93.2585 65.5971 92.0914 65.7761 90.9028L65.7976 90.9099Z" fill="white"/>
<path d="M52.1432 71.6845C53.1019 69.7277 54.2153 67.8505 55.4727 66.0709C56.6899 64.3023 57.9716 62.6125 59.2963 60.9226L60.7283 59.0968L62.232 57.3138C64.0722 55.266 65.9911 53.3112 67.9602 51.4138C69.9293 49.5163 72.0201 47.7406 74.1539 46.0149C76.0728 44.5256 78.0061 43.0291 80.0253 41.7188C81.3213 40.8595 82.6388 40.0146 84.0207 39.2843C84.7161 38.916 85.4335 38.5908 86.1688 38.3105C86.8917 38.0082 87.6331 37.7523 88.3885 37.5443C89.3265 37.2651 89.2907 37.6088 88.6534 38.2245C88.2364 38.6212 87.7913 38.9873 87.3216 39.3201C86.7031 39.8085 86.0497 40.2512 85.3668 40.6447C82.6845 42.1365 80.1185 43.8288 77.691 45.707C75.2422 47.5974 72.822 49.5449 70.4735 51.6214C67.6467 54.197 65.014 56.978 62.5972 59.9417C61.8811 60.7436 61.2653 61.5742 60.5994 62.3905C59.9335 63.2068 59.3178 64.0517 58.6948 64.9181C57.443 66.6024 56.2814 68.352 55.2149 70.1594C53.9049 72.3525 52.9389 74.7335 52.3508 77.2194C51.4313 81.0576 50.7143 84.9414 50.2027 88.8549C49.8089 91.8837 49.5869 94.8695 49.3148 97.884C49.2504 98.5499 49.2146 99.2015 49.1144 99.8674C48.7707 102.338 48.5201 103.104 48.0045 103.576C47.8988 103.693 47.7812 103.799 47.6537 103.891C47.2956 104.085 47.131 103.039 47.1739 101.214C47.1739 98.4998 47.4675 95.7359 47.7324 92.9219C47.9974 90.1079 48.3769 87.2581 48.8136 84.4012C49.143 82.2531 49.5297 80.1623 49.9879 78.05C50.2242 76.9975 50.4533 75.9377 50.8042 74.835C51.1438 73.7619 51.5528 72.7119 52.0286 71.6917L52.1432 71.6845Z" fill="white"/>
<path d="M78.2782 87.1149C78.1103 86.0169 77.8711 84.9311 77.5622 83.8641C77.4404 83.4703 77.2829 83.0908 77.1397 82.697C76.6847 81.2942 76.1197 79.9295 75.4499 78.6157C75.1362 78.0385 74.787 77.4813 74.4045 76.9473C73.888 76.2929 73.4099 75.6091 72.9724 74.8995C72.8507 74.6632 73.1156 74.477 73.5166 74.4412C73.7489 74.4154 73.9839 74.4433 74.2037 74.5228C74.4234 74.6022 74.6219 74.7311 74.784 74.8995C75.9602 76.2557 76.9257 77.7813 77.6481 79.4248C78.0634 80.4201 78.6505 81.3724 79.0801 82.3891C79.556 83.5126 79.9275 84.6775 80.19 85.869C80.2688 86.2342 80.3618 86.585 80.4263 86.9717L80.591 88.0887C80.684 88.6544 80.6697 89.2415 80.7127 89.8072C80.7556 90.3728 80.7127 90.9671 80.7127 91.54C80.6626 91.9911 80.6411 92.435 80.6268 92.8933C80.5749 93.3502 80.4887 93.8025 80.369 94.2466C80.3389 94.4478 80.2785 94.6433 80.19 94.8265C79.8535 95.5426 79.6029 95.6714 79.0658 95.5426C78.9445 95.5167 78.8249 95.4833 78.7078 95.4423C78.52 95.3485 78.3689 95.1948 78.2781 95.0055C78.1873 94.8162 78.1622 94.6021 78.2066 94.3969C78.3498 93.731 78.314 93.0293 78.4142 92.3849C78.4142 92.0483 78.4715 91.7118 78.5216 91.3824V90.3442C78.5216 89.8287 78.4715 89.2916 78.4715 88.7618C78.4715 88.2319 78.3498 87.6877 78.2496 87.1436L78.2782 87.1149Z" fill="white"/>
<path d="M128.035 110.45C128.035 110.45 129.216 153.813 127.097 155.445C124.977 157.078 121.068 157.558 121.068 157.558C121.068 157.558 127.605 142.521 125.93 129.668C124.677 120.081 121.877 120.074 121.877 120.074L128.035 110.45Z" fill="white"/>
<path d="M102.408 180.535C102.301 180.9 102.981 181 104.177 180.922C115.075 180.163 123.331 188.01 123.932 198.923C124.498 209.241 120.352 221.907 120.352 221.907L128.228 216.687L128.851 169.429L102.408 180.535Z" fill="white"/>
<path d="M230.921 78.4651C230.921 78.4651 249.28 68.6269 248.679 36.3984L267.918 52.0651C267.918 52.0651 262.784 53.6117 261.875 61.1515C260.966 68.6913 262.784 73.7679 258.861 78.4651C254.937 83.1622 247.404 81.6514 247.103 86.7782C246.803 91.9049 242.886 89.8284 242.886 89.8284L230.921 78.4651Z" fill="white"/>
<path d="M84.4146 39.1052C72.0918 44.3036 64.1797 54.9151 64.1797 54.9151L65.2967 55.4521L84.4146 39.1052Z" fill="white"/>
<path d="M94.7468 92.299L97.8186 93.2299C98.1909 93.3444 98.5775 93.4232 98.9499 93.5378L102.91 94.7407L104.671 95.2276C105.431 95.4113 106.182 95.6335 106.919 95.8935C107.148 95.9794 107.084 96.1298 106.855 96.2443C106.512 96.3911 106.135 96.4383 105.766 96.3804C104.986 96.2372 104.191 96.1369 103.411 95.9794C102.63 95.8219 101.871 95.5426 101.105 95.2634C100.196 94.9555 99.2077 94.7765 98.241 94.5474L95.112 93.7025L93.1859 93.1798C92.2121 92.9148 91.2383 92.6356 90.2645 92.4208C89.5126 92.2489 88.7465 92.163 87.9875 92.0341C87.8189 92.0189 87.6514 91.9926 87.4863 91.9553C86.8705 91.8121 86.6986 91.6761 86.6557 91.3038C86.6447 91.2206 86.6447 91.1363 86.6557 91.0531C86.6557 90.7811 86.9636 90.6307 87.4361 90.6522C88.8561 90.7723 90.2613 91.0288 91.6321 91.4183C92.6775 91.6833 93.7157 91.984 94.754 92.2704L94.7468 92.299Z" fill="white"/>
<path d="M56.2245 229.483C45.6774 229.776 18.8263 226.748 17.1508 222.179C15.7832 218.449 32.2948 216.902 32.2948 216.902L32.7459 222.179L56.2245 229.483Z" fill="white"/>
<path d="M58.6446 230.593C55.6516 229.767 52.6681 228.886 49.6942 227.951C48.613 227.6 47.5103 227.335 46.4434 226.948C42.6058 225.701 38.883 224.124 35.3164 222.237L34.7292 221.907L34.4285 221.75C34.2924 221.668 34.1673 221.569 34.0562 221.456C33.6806 221.067 33.4054 220.593 33.2542 220.074C32.975 219.191 32.8019 218.278 32.7387 217.353C32.5995 215.096 32.578 212.832 32.6742 210.573C32.6742 209.914 32.8676 209.935 33.1898 210.508C33.6188 211.448 33.8805 212.456 33.9631 213.487C34.0633 214.632 34.1636 215.764 34.3211 216.859C34.4294 217.875 34.6552 218.874 34.9942 219.838C35.0532 219.974 35.1329 220.099 35.2304 220.21C35.2304 220.21 35.2304 220.21 35.2304 220.21L35.3235 220.253L35.6887 220.447L37.1637 221.227C38.1948 221.685 39.1901 222.208 40.2498 222.659C42.8395 223.737 45.4883 224.667 48.1834 225.444C51.1477 226.361 54.1264 227.249 57.1266 228.058C58.9739 228.559 60.8213 229.053 62.683 229.49C65.497 230.206 68.3253 230.922 71.1464 231.473C73.3375 231.925 75.5142 232.189 77.6909 232.605C78.1706 232.684 78.6361 232.748 79.123 232.841C80.9059 233.178 81.4572 233.378 81.7794 233.843C81.8628 233.937 81.9349 234.041 81.9942 234.151C82.116 234.474 81.3426 234.61 79.9965 234.524C78.006 234.366 75.9581 234.187 73.9103 233.858C71.8624 233.528 69.8003 233.142 67.731 232.748C64.6592 232.146 61.6089 231.388 58.5801 230.6L58.6446 230.593Z" fill="white"/>
<path d="M49.1431 103.233C48.909 103.179 48.6861 103.084 48.4844 102.954C48.4271 102.954 48.4844 102.86 48.5345 102.875L48.9927 102.946C49.0858 102.946 50.5608 103.29 51.0621 103.369L52.4941 103.648C53.4822 103.841 54.4704 104.013 55.4656 104.164C55.6876 104.199 55.9096 104.242 56.1244 104.293C56.8712 104.463 57.6265 104.595 58.387 104.686C58.5133 104.697 58.6403 104.697 58.7665 104.686C58.9742 104.686 61.0292 104.937 61.2941 105.001C61.9457 105.137 62.6044 105.245 63.2703 105.352C63.3658 105.357 63.46 105.376 63.5496 105.41C63.7443 105.475 63.9463 105.516 64.1511 105.531L65.0031 105.667C65.1433 105.693 65.2819 105.727 65.4184 105.768C65.5473 105.803 65.4757 105.868 65.4184 105.875C65.3611 105.882 65.4184 105.939 65.4184 105.968C65.4184 105.997 65.4184 105.968 65.4184 106.004H65.1463L64.5449 106.04C64.2134 106.06 63.881 106.06 63.5496 106.04L62.2607 105.947L60.8287 105.825C60.6838 105.809 60.5402 105.783 60.3991 105.746L58.3297 105.474C57.9305 105.419 57.5356 105.335 57.1483 105.223C57.0738 105.199 56.997 105.182 56.9192 105.173C56.2031 105.059 55.5587 104.894 54.8928 104.729L53.8617 104.486L53.6756 104.436L53.4464 104.371C52.6302 104.171 51.8282 103.949 51.0191 103.741L49.7446 103.355C49.6372 103.412 49.2505 103.254 49.1431 103.233Z" fill="white"/>
<path d="M55.6303 100.447C55.431 100.408 55.2456 100.317 55.0933 100.182C55.0431 100.182 55.0933 100.075 55.1434 100.082L55.53 100.132C55.6088 100.132 56.8332 100.426 57.2557 100.476L58.4729 100.684L60.9575 101.056L61.5089 101.142C62.139 101.264 62.7763 101.349 63.4135 101.414C63.5208 101.421 63.6284 101.421 63.7357 101.414C63.9076 101.414 65.6404 101.6 65.8838 101.636L67.5378 101.944C67.6186 101.949 67.6981 101.966 67.7741 101.994C67.9334 102.061 68.1029 102.099 68.2753 102.108L68.9914 102.245C69.1085 102.278 69.2233 102.318 69.3351 102.366C69.4353 102.366 69.3351 102.481 69.3351 102.481C69.3351 102.481 69.3351 102.545 69.3351 102.581V102.617H69.1059H68.6119L67.7885 102.574L66.7287 102.452L65.5186 102.33C65.4006 102.318 65.2835 102.299 65.1678 102.273L63.435 102.094C63.1024 102.061 62.7723 102.006 62.4469 101.929H62.2464C61.6736 101.858 61.1079 101.758 60.5351 101.657L59.6615 101.514H59.5112L59.3107 101.464C58.5946 101.335 57.9431 101.171 57.2628 101.02C57.1053 101.02 56.3678 100.755 56.1888 100.705C56.0098 100.655 55.7162 100.462 55.6303 100.447Z" fill="white"/>
<path d="M65.1391 97.5833C65.0557 97.5919 64.9715 97.5808 64.8932 97.5509C64.8149 97.5211 64.7446 97.4733 64.688 97.4115C64.6451 97.4115 64.688 97.2611 64.688 97.2468L64.9888 97.168C65.0532 97.168 66.0485 97.1107 66.4208 97.1107C66.7488 97.1046 67.0768 97.1238 67.4018 97.168C68.0605 97.2539 68.7193 97.3399 69.3709 97.4544C69.5159 97.4794 69.6594 97.5129 69.8005 97.5547C70.2874 97.6979 70.7814 97.7981 71.2755 97.8912C71.3563 97.9017 71.4381 97.9017 71.5189 97.8912C72.0695 97.9601 72.6148 98.0654 73.1515 98.2063L74.3974 98.6144C74.4615 98.6206 74.523 98.6428 74.5764 98.6788C74.6865 98.7584 74.8143 98.81 74.9487 98.8292C75.1349 98.8722 75.3139 98.9223 75.4929 98.9796C75.5808 99.0165 75.6647 99.062 75.7435 99.1156C75.8151 99.1657 75.7435 99.266 75.7435 99.2731C75.7435 99.2803 75.7435 99.3519 75.7435 99.402C75.7435 99.4521 75.7435 99.402 75.7435 99.445C75.3335 99.4734 74.922 99.4734 74.5119 99.445L72.7577 99.1371C72.6649 99.1184 72.5739 99.0921 72.4856 99.0583L71.1609 98.8006C70.9166 98.7492 70.6771 98.6774 70.4449 98.5857C70.3981 98.5617 70.347 98.5471 70.2945 98.5428C69.8578 98.4569 69.4281 98.3423 68.9985 98.2421C68.7766 98.1848 68.5546 98.1561 68.3326 98.1132L68.2109 98.0774H68.0605C67.5378 97.9915 67.008 97.8912 66.4781 97.8411C66.3564 97.8411 65.7621 97.6979 65.6404 97.6979C65.4768 97.6458 65.3091 97.6075 65.1391 97.5833V97.5833Z" fill="white"/>
<path d="M74.2898 94.5258C74.1036 94.5258 73.9676 94.4327 73.853 94.2322C73.853 94.1678 73.853 94.0031 73.9031 93.9816C74.0112 93.9486 74.1212 93.9223 74.2325 93.9028C74.297 93.9028 75.3209 93.953 75.6646 93.9888C75.9996 94.0138 76.3323 94.064 76.6599 94.1391C77.3329 94.2752 77.9988 94.4184 78.6576 94.5759C78.8041 94.607 78.9478 94.6501 79.0872 94.7048C79.5731 94.8804 80.0708 95.0216 80.5765 95.1272C80.6568 95.1564 80.7417 95.1709 80.8271 95.1702C81.3863 95.2723 81.9387 95.4086 82.4812 95.5783C82.8965 95.743 83.3189 95.8862 83.7414 96.0294C83.8058 96.0294 83.8703 96.0294 83.9204 96.101C84.0305 96.1879 84.1612 96.2446 84.2999 96.2657C84.486 96.323 84.6722 96.3731 84.8512 96.4376C84.9424 96.478 85.0289 96.5284 85.109 96.5879C85.1877 96.6309 85.109 96.7311 85.109 96.7383C85.109 96.7455 85.0732 96.8242 85.0732 96.8672V96.9316C84.8729 96.9441 84.672 96.9441 84.4717 96.9316C84.2477 96.9485 84.0227 96.9485 83.7987 96.9316L81.9799 96.6094C81.8847 96.5884 81.7913 96.5596 81.7007 96.5235L80.3331 96.2442C80.0692 96.1943 79.8137 96.1075 79.5741 95.9865C79.5255 95.9592 79.4719 95.9421 79.4166 95.9363C78.9726 95.8218 78.543 95.6786 78.0991 95.5425C77.8771 95.4709 77.648 95.428 77.426 95.3707L77.3043 95.3206C77.2565 95.2974 77.206 95.2806 77.1539 95.2704C76.6169 95.1487 76.087 94.984 75.5428 94.9053C75.4211 94.9053 74.8268 94.6905 74.6979 94.6761C74.5691 94.6618 74.3614 94.5115 74.2898 94.5258Z" fill="white"/>
<path d="M84.5792 92.8146C84.4575 92.8576 84.3787 92.743 84.3 92.5354C84.2688 92.44 84.2688 92.3372 84.3 92.2418C84.3681 92.1894 84.4427 92.1461 84.522 92.1129C84.8406 92.0796 85.161 92.0652 85.4814 92.07C85.703 92.0686 85.924 92.0926 86.1402 92.1416C86.5841 92.2275 87.0209 92.3206 87.4505 92.4351C87.5448 92.4579 87.6361 92.4915 87.7226 92.5354C88.0245 92.6842 88.3447 92.7925 88.6749 92.8576C88.7282 92.8761 88.7863 92.8761 88.8396 92.8576C89.2003 92.9129 89.5551 93.0016 89.8993 93.1225C90.1499 93.2657 90.4149 93.366 90.6726 93.4949C90.7084 93.4949 90.7586 93.4949 90.78 93.5593C90.8015 93.6237 90.9304 93.681 91.0163 93.7097C91.1333 93.7488 91.248 93.7942 91.36 93.8457C91.4168 93.8859 91.4675 93.9341 91.5104 93.9889C91.5605 94.0319 91.5104 94.1608 91.5104 94.1679C91.5104 94.1751 91.4746 94.2682 91.4746 94.3255C91.4746 94.3827 91.4746 94.3684 91.4746 94.3827C91.1928 94.4498 90.9049 94.4882 90.6153 94.4973C90.6153 94.4973 89.5413 94.3255 89.4267 94.2968C89.3652 94.2811 89.307 94.2544 89.2549 94.2181L88.3742 94.0677C88.2041 94.0314 88.0433 93.9608 87.9016 93.86C87.8686 93.8531 87.8344 93.8531 87.8014 93.86C87.5221 93.7884 87.25 93.6739 86.9708 93.5736C86.8347 93.5235 86.6844 93.502 86.5483 93.4591C86.4123 93.4161 86.4982 93.4591 86.4695 93.4233H86.3765C86.0451 93.3195 85.7047 93.2476 85.3597 93.2085C85.1868 93.1442 85.0098 93.0915 84.8298 93.0509C84.7797 92.9507 84.6294 92.7932 84.5792 92.8146Z" fill="white"/>
<path d="M63.6209 98.9794C63.5298 98.9846 63.4394 98.9611 63.3624 98.9123C63.2853 98.8635 63.2255 98.7918 63.1912 98.7073C63.1554 98.65 63.1913 98.4925 63.2414 98.4782L63.5564 98.3994C63.6209 98.3994 64.6305 98.4567 64.9885 98.4782C65.3175 98.5035 65.645 98.5465 65.9694 98.6071L67.9385 98.9436C68.0817 98.9722 68.2249 99.008 68.3681 99.051C68.8535 99.1903 69.3491 99.2909 69.8503 99.3517C69.9332 99.3665 70.018 99.3665 70.1009 99.3517C70.6567 99.3913 71.2093 99.4679 71.7549 99.5809C72.1774 99.6954 72.607 99.7814 73.0366 99.8673C73.0984 99.8706 73.1591 99.8851 73.2156 99.9102C73.3353 99.9797 73.4711 100.017 73.6095 100.018C73.7956 100.018 73.9818 100.053 74.168 100.089C74.2635 100.111 74.3552 100.147 74.4401 100.197C74.526 100.232 74.483 100.354 74.4401 100.361C74.3971 100.368 74.4401 100.462 74.4401 100.512C74.4401 100.562 74.4401 100.548 74.4401 100.562C74.0306 100.659 73.614 100.724 73.1942 100.755H72.3349L71.3611 100.698C71.2635 100.687 71.1674 100.666 71.0747 100.633C71.0318 100.633 69.7429 100.49 69.6999 100.469C69.4347 100.435 69.1749 100.368 68.9266 100.268C68.8759 100.25 68.823 100.237 68.7691 100.232C68.318 100.154 67.8812 100.032 67.4373 99.9245C67.2153 99.8673 66.9862 99.8243 66.7213 99.7813C66.6796 99.7702 66.6389 99.7559 66.5995 99.7384L66.4492 99.6954C65.9122 99.588 65.3823 99.4448 64.8453 99.3732C64.7164 99.3732 64.1292 99.1727 64.0004 99.1656C63.8715 99.1584 63.6925 98.9722 63.6209 98.9794Z" fill="white"/>
<path d="M72.8077 96.1081C72.6645 96.1081 72.5858 95.9864 72.5571 95.7429C72.5571 95.657 72.6144 95.4422 72.6574 95.4279C72.7399 95.3862 72.8262 95.3527 72.9151 95.3276C72.9653 95.3276 73.6885 95.3921 73.9391 95.3992C74.1808 95.4145 74.4206 95.4529 74.6551 95.5138L76.0872 95.8074C76.1925 95.8285 76.2956 95.8597 76.395 95.9005C76.7365 96.0425 77.0952 96.1388 77.4619 96.1869C77.5227 96.2048 77.5873 96.2048 77.6481 96.1869C78.0605 96.2139 78.4674 96.2958 78.8582 96.4303C79.1517 96.5807 79.4596 96.7024 79.7604 96.8313C79.8033 96.8313 79.8535 96.8313 79.8821 96.9029C79.9107 96.9745 80.0539 97.0318 80.1542 97.0676C80.2867 97.1108 80.4159 97.1635 80.5408 97.2251C80.605 97.2724 80.6627 97.3277 80.7127 97.3898C80.7628 97.4471 80.7127 97.5831 80.6697 97.5903C80.6268 97.5974 80.6268 97.7049 80.6196 97.7693C80.6125 97.8337 80.6196 97.8123 80.6196 97.8266C80.3131 97.8886 80.0015 97.9221 79.6888 97.9268L79.0801 97.8409C78.7723 97.8051 78.45 97.7621 78.3641 97.7621C78.2953 97.7523 78.2294 97.7279 78.1708 97.6905L77.1755 97.5545C76.982 97.5313 76.7961 97.4653 76.6313 97.3612C76.5958 97.355 76.5595 97.355 76.5239 97.3612C76.1985 97.2948 75.8779 97.2062 75.5645 97.0962C75.3998 97.0461 75.2279 97.0175 75.0632 96.9745H74.9845C74.9516 96.9521 74.9154 96.9351 74.8771 96.9244C74.4832 96.8385 74.1038 96.6953 73.7028 96.6308C73.6097 96.6308 73.2087 96.3945 73.1013 96.3802C72.9939 96.3659 72.865 96.101 72.8077 96.1081Z" fill="white"/>
<path d="M82.0088 93.6522C81.8656 93.6522 81.7868 93.5448 81.7367 93.3729C81.7337 93.3363 81.7385 93.2995 81.7509 93.265C81.7632 93.2304 81.7828 93.1988 81.8083 93.1724C81.8917 93.1658 81.9755 93.1658 82.0589 93.1724L83.0685 93.3371C83.3048 93.3729 83.5411 93.4302 83.7846 93.4875L85.2166 93.8169C85.3235 93.8413 85.4287 93.8724 85.5317 93.91C85.8834 94.0408 86.245 94.1437 86.6129 94.2179C86.6745 94.2283 86.7374 94.2283 86.799 94.2179C87.2108 94.3035 87.6154 94.4208 88.0091 94.5687L88.9185 94.9983C88.9614 94.9983 89.0116 94.9983 89.0402 95.0699C89.1131 95.1448 89.2045 95.1991 89.3051 95.2274C89.4375 95.2847 89.5666 95.3492 89.6918 95.4208C89.7491 95.4566 89.7992 95.5139 89.8565 95.5568C89.9138 95.5998 89.8565 95.6642 89.8207 95.6642C89.7849 95.6642 89.8207 95.7215 89.7777 95.7573C89.7777 95.7573 89.5701 95.7573 89.3553 95.7C89.1404 95.6427 88.9185 95.6427 88.8755 95.6284L88.2812 95.4709L87.5652 95.3205C87.4973 95.3074 87.4319 95.2832 87.3719 95.2489C87.3719 95.2489 86.4195 95.0699 86.3837 95.0628C86.1916 95.029 86.0057 94.9662 85.8324 94.8766C85.7991 94.8583 85.7627 94.8461 85.725 94.8408C85.3956 94.762 85.0806 94.6546 84.7584 94.5544L84.2643 94.4255C84.234 94.418 84.205 94.4059 84.1784 94.3897C84.1419 94.3711 84.1035 94.3567 84.0638 94.3467C83.67 94.2465 83.2833 94.1104 82.8895 94.0245C82.7964 94.0245 82.3811 93.8097 82.2737 93.7811C82.1663 93.7524 82.0661 93.6522 82.0088 93.6522Z" fill="white"/>
<path d="M55.9308 102.202C55.796 102.17 55.6697 102.11 55.5608 102.025C55.4519 101.939 55.3631 101.831 55.3007 101.708C55.2577 101.629 55.3365 101.478 55.4224 101.486C55.5083 101.493 55.7661 101.486 55.9308 101.543C56.0955 101.6 57.5776 102.037 58.1218 102.116L59.6684 102.467C60.7282 102.696 61.8165 102.882 62.8691 103.047C63.1054 103.082 63.3417 103.125 63.5851 103.183C64.3984 103.362 65.2206 103.498 66.0482 103.591C66.1863 103.605 66.3255 103.605 66.4635 103.591C66.5781 103.591 67.1796 103.655 67.824 103.741C68.4684 103.827 69.0842 103.977 69.256 104.013C69.9721 104.228 70.6881 104.393 71.4041 104.643C71.5104 104.663 71.6123 104.702 71.7049 104.758C71.8997 104.875 72.1126 104.96 72.335 105.008C72.6357 105.102 72.9364 105.209 73.23 105.331C73.372 105.395 73.5106 105.467 73.6453 105.545C73.767 105.61 73.6453 105.667 73.6453 105.667C73.6453 105.667 73.5952 105.724 73.6023 105.76C73.6095 105.796 73.6023 105.76 73.6023 105.803H73.3088L72.6643 105.724C72.1989 105.667 71.6977 105.631 71.6046 105.61C71.5115 105.588 70.8886 105.524 70.2442 105.402C69.5997 105.281 68.8121 105.202 68.6975 105.195C68.5426 105.172 68.3894 105.139 68.2393 105.094L66.0124 104.808C65.581 104.755 65.1547 104.666 64.7379 104.543C64.6535 104.519 64.5673 104.503 64.4801 104.493C63.7641 104.386 63.0051 104.235 62.2676 104.078L61.1363 103.856L60.9358 103.798L60.6852 103.727C59.7902 103.541 58.9095 103.297 58.0216 103.061C57.8139 103.018 56.8831 102.624 56.6468 102.552C56.4248 102.502 56.0811 102.23 55.9308 102.202Z" fill="white"/>
<path d="M86.2045 94.0675C86.7298 93.8637 87.2651 93.6869 87.8084 93.5376C87.9659 93.5376 87.9731 93.5734 87.8084 93.6593C87.4719 93.8097 87.1425 93.9887 86.7916 94.1319C86.6914 94.1749 85.7892 94.5329 84.7509 94.8479C83.7127 95.163 82.5313 95.5138 81.937 95.6714C80.7842 95.9864 79.6242 96.2513 78.4571 96.5163C76.0957 97.0173 73.7609 97.6363 71.4615 98.3708L69.9292 98.8648C68.1749 99.4162 66.435 100.025 64.695 100.655C64.4086 100.762 64.1079 100.863 63.8358 100.984C63.3918 101.192 58.6589 102.839 58.0216 103.003C56.4822 103.476 54.9284 103.927 53.3603 104.328C53.1383 104.385 52.902 104.457 52.6944 104.493C52.2116 104.583 51.7336 104.698 51.2623 104.837C50.5893 105.001 49.909 105.166 49.236 105.302C48.8994 105.374 48.5629 105.424 48.2335 105.481C47.9041 105.538 48.0832 105.438 48.1834 105.409C48.4841 105.316 48.2264 105.352 48.1834 105.331C48.1404 105.309 48.1834 105.331 48.1834 105.331L48.8063 105.152C49.1715 105.051 49.6656 104.915 50.174 104.758C51.1764 104.471 52.2218 104.113 52.4294 104.042L53.3603 103.748L55.3508 103.097C56.7829 102.61 58.3367 102.087 58.6446 101.972C58.9525 101.858 59.3033 101.758 59.6327 101.657L64.3298 99.9818C65.2392 99.674 66.1414 99.3446 67.0651 99.0797C67.2441 99.0295 67.4302 98.9651 67.6164 98.9007C69.1773 98.366 70.755 97.8624 72.3493 97.3898C73.1656 97.1535 73.9891 96.9459 74.8125 96.7454L75.2636 96.6523L75.8292 96.5306C77.784 96.0938 79.7459 95.7286 81.6863 95.2632C82.1374 95.163 84.2641 94.6618 84.7653 94.4828C85.023 94.4398 85.961 94.1963 86.2045 94.0675Z" fill="white"/>
<path d="M82.6101 96.1152C83.0329 95.8815 83.4976 95.7331 83.9777 95.6785C84.1209 95.6785 84.1567 95.7859 84.0206 95.8718L83.2044 96.3515C83.0468 96.4661 80.2687 97.7836 79.2949 98.1702C78.3211 98.5569 77.426 98.9292 76.4737 99.2801C74.5476 99.9961 72.6 100.641 70.6381 101.228C70.2013 101.364 69.7645 101.493 69.3206 101.6C67.8098 101.994 66.3133 102.431 64.8239 102.882C64.5733 102.96 64.3227 103.032 64.1079 103.125C63.7213 103.276 59.6829 104.5 59.1602 104.643C57.8498 104.994 56.5538 105.359 55.2506 105.774C55.0681 105.837 54.8815 105.887 54.6921 105.925C54.2821 106.002 53.8796 106.114 53.4892 106.261C52.9307 106.44 52.3865 106.634 51.828 106.798C51.5488 106.884 51.2695 106.949 50.9903 107.02C50.711 107.092 50.8471 106.977 50.9258 106.934C51.1621 106.813 50.9258 106.856 50.9258 106.841C50.9258 106.827 50.9258 106.841 50.9258 106.841L52.5011 106.061C53.3102 105.689 54.1694 105.345 54.3413 105.252L55.1146 104.951L56.7901 104.357L59.5969 103.433C59.869 103.347 60.1554 103.276 60.4418 103.204L64.4731 101.965C65.2536 101.75 66.0269 101.493 66.8217 101.335C66.9792 101.335 67.1367 101.256 67.2871 101.213L71.304 100.053C72.02 99.8601 72.6573 99.6309 73.3375 99.4161L73.7098 99.323L74.1753 99.187C75.772 98.6571 77.3759 98.1559 78.9368 97.533C79.302 97.4041 81.0348 96.774 81.4429 96.5878C81.6291 96.4661 82.4167 96.2155 82.6101 96.1152Z" fill="white"/>
<path d="M71.8695 95.8576C72.2646 95.6707 72.684 95.5405 73.1154 95.4709C73.2372 95.4709 73.2586 95.5425 73.1154 95.6142C72.8648 95.7502 72.6214 95.8934 72.3564 96.0223C72.2777 96.0652 71.5975 96.366 70.8098 96.681C70.0222 96.9961 69.1415 97.2968 68.6617 97.4543C67.7882 97.7551 66.9075 98.0272 66.0196 98.2778L60.678 99.7958L59.4894 100.118C58.129 100.483 56.7828 100.934 55.451 101.414C55.2291 101.5 54.9999 101.571 54.7923 101.672C54.4557 101.829 50.8398 103.161 50.3601 103.311C49.1786 103.684 47.9972 104.099 46.7799 104.421C46.6105 104.474 46.4384 104.517 46.2644 104.55C45.8889 104.62 45.5182 104.713 45.1545 104.829C44.639 104.973 44.1235 105.102 43.6008 105.223C43.343 105.281 43.0852 105.316 42.8275 105.359C42.5697 105.402 42.7057 105.302 42.7845 105.273C43.0065 105.187 42.7845 105.202 42.7845 105.18C42.7845 105.159 42.7845 105.18 42.7845 105.18L43.2499 105.023L44.2881 104.665C45.0471 104.393 45.8348 104.085 45.9923 104.035L48.212 103.233L50.7252 102.309C50.9687 102.216 51.2265 102.137 51.4842 102.051L55.0644 100.719C55.7804 100.483 56.4606 100.218 57.2125 100.003L57.6349 99.8745C58.845 99.4735 60.0837 99.1585 61.3225 98.822L63.2056 98.3279L63.5493 98.2491L63.9789 98.1561C65.4683 97.7694 66.9648 97.44 68.4255 96.9531C68.762 96.86 70.3802 96.3875 70.7597 96.2371C70.9602 96.1368 71.6834 95.9507 71.8695 95.8576Z" fill="white"/>
<path d="M80.7772 99.6453C80.994 99.5213 81.2453 99.471 81.4932 99.5021C81.5095 99.5046 81.5247 99.5117 81.5371 99.5226C81.5495 99.5334 81.5585 99.5477 81.563 99.5635C81.5676 99.5794 81.5674 99.5962 81.5627 99.612C81.5579 99.6277 81.5487 99.6418 81.5362 99.6525L81.1495 99.9031C81.0707 99.9604 79.7174 100.576 79.252 100.77C78.7866 100.963 78.3498 101.142 77.8916 101.314C76.9607 101.657 76.0299 101.994 75.0919 102.316C74.8843 102.388 74.6694 102.459 74.4618 102.517C73.7458 102.724 73.0297 102.961 72.3137 103.233C72.1936 103.269 72.0763 103.315 71.9629 103.369C71.7767 103.462 69.8506 104.085 69.5928 104.192C68.9627 104.371 68.3398 104.572 67.7097 104.765C67.6246 104.801 67.5357 104.827 67.4447 104.844C67.2435 104.877 67.0466 104.932 66.8576 105.008L66.0628 105.28C65.9262 105.319 65.7875 105.35 65.6475 105.374C65.5258 105.374 65.5616 105.295 65.5974 105.273C65.6332 105.252 65.5974 105.202 65.5974 105.173L65.8337 105.044L66.3564 104.786C66.7502 104.6 67.1583 104.414 67.2442 104.385L69.6859 103.376C69.8148 103.326 69.9508 103.297 70.0869 103.254L72.013 102.538C72.3853 102.424 72.729 102.28 73.1371 102.202L73.3591 102.137C73.9964 101.915 74.6408 101.715 75.2852 101.514L76.259 101.178L76.438 101.128L76.66 101.056C77.4262 100.777 78.1995 100.526 78.9513 100.211C79.1231 100.147 79.9752 99.8673 80.1685 99.7742C80.3619 99.6812 80.6841 99.7026 80.7772 99.6453Z" fill="white"/>
<path d="M78.0632 93.9959C78.4468 93.7817 78.8628 93.6318 79.2948 93.552C79.4237 93.552 79.4595 93.6379 79.3377 93.7239C79.216 93.8098 78.8652 94.0604 78.6217 94.2107C78.543 94.2537 77.9057 94.6117 77.1109 94.9697C76.3161 95.3277 75.4569 95.6858 75.0129 95.8719C74.1466 96.2156 73.273 96.5235 72.3994 96.8243C70.6094 97.3899 68.8551 98.02 67.0794 98.643C66.6855 98.779 66.2917 98.9079 65.8907 99.0296C64.5231 99.4521 63.1698 99.896 61.8237 100.376C61.5975 100.447 61.3752 100.531 61.1578 100.626C60.8141 100.791 57.1552 102.058 56.6755 102.223C55.4869 102.595 54.3054 102.996 53.1311 103.405C52.9646 103.468 52.7949 103.523 52.6227 103.569C52.2506 103.655 51.8864 103.772 51.5344 103.92L50.0307 104.479C49.7801 104.565 49.5224 104.629 49.2717 104.701C49.0211 104.772 49.1285 104.629 49.2001 104.586C49.4078 104.471 49.2001 104.5 49.2001 104.471C49.2001 104.443 49.2001 104.471 49.2001 104.436L49.3219 104.371L49.6441 104.214L50.6465 103.734C51.3625 103.39 52.1645 103.018 52.322 102.975L57.055 101.092C57.3056 100.992 57.5633 100.913 57.814 100.834L61.4371 99.4664C62.1531 99.2229 62.8691 98.9437 63.5851 98.7504C63.7283 98.7146 63.8644 98.6573 64.0076 98.6072C65.2177 98.1847 66.4349 97.8052 67.6522 97.4114L69.5138 96.7813L69.8575 96.6882L70.2872 96.5593C71.7622 96.0724 73.2587 95.6786 74.7122 95.1702C75.0487 95.0628 76.6598 94.5544 77.0321 94.3826C77.161 94.311 77.8842 94.0675 78.0632 93.9959Z" fill="white"/>
<path d="M55.0931 178.129C57.8713 178.767 60.6495 179.375 63.442 179.919C64.4659 180.12 65.4898 180.277 66.5138 180.456C70.0939 181.172 73.717 181.731 77.3401 182.246C78.9512 182.461 80.5765 182.583 82.1804 182.712L85.2808 182.841C86.3119 182.841 87.3358 182.841 88.3741 182.934C89.0114 182.97 88.9397 183.235 88.3741 183.514C87.5003 183.899 86.5581 184.106 85.6031 184.122C81.3175 184.109 77.0402 183.743 72.8148 183.027C71.5474 182.791 70.2514 182.604 68.9482 182.411L65.0531 181.788L60.7998 180.979L56.5681 180.105L51.3698 178.953C48.7563 178.358 46.1356 177.707 43.5436 177.084C41.5315 176.59 39.5267 176.217 37.5361 175.652C37.0922 175.53 36.6625 175.43 36.2186 175.301C35.6305 175.126 35.0637 174.886 34.5288 174.585C34.2566 174.395 34.0552 174.121 33.956 173.804C33.9127 173.702 33.8861 173.593 33.8772 173.482C33.8772 173.332 34.0705 173.282 34.3856 173.282C34.5725 173.284 34.7591 173.298 34.9441 173.325C35.2102 173.354 35.4736 173.404 35.7317 173.475L46.6869 176.124C49.4651 176.797 52.2648 177.463 55.0716 178.072L55.0931 178.129Z" fill="white"/>
<path d="M112.869 177.965C111.409 178.552 109.941 179.12 108.466 179.669C107.929 179.876 107.399 180.113 106.862 180.299C104.952 180.981 103.014 181.585 101.048 182.11C100.181 182.361 99.3006 182.59 98.4342 182.826C97.3256 183.18 96.1681 183.356 95.0045 183.349C94.6393 183.349 94.6751 183.12 94.94 182.812C95.2762 182.372 95.7632 182.071 96.3076 181.967L97.9617 181.581L99.6157 181.151L102.974 180.277C104.339 179.869 105.682 179.391 106.998 178.845C108.463 178.292 109.929 177.721 111.394 177.134L114.087 176.017C115.433 175.444 116.8 174.871 118.132 174.284C119.17 173.819 120.151 173.296 121.182 172.852L121.898 172.566C122.772 172.244 123.08 172.222 123.331 172.358C123.391 172.381 123.448 172.41 123.502 172.444C123.646 172.551 123.359 172.845 122.786 173.203L121.476 174.005L120.101 174.721C119.178 175.194 118.225 175.659 117.237 176.153C115.805 176.797 114.373 177.413 112.877 178.029L112.869 177.965Z" fill="white"/>
<path d="M128.844 204.815C128.507 208.646 128.128 212.463 127.648 216.272L127.491 217.332L127.441 217.611C127.441 217.754 127.348 217.89 127.297 218.033C127.269 218.099 127.233 218.162 127.19 218.219C127.19 218.32 127.104 218.334 127.061 218.398C126.953 218.481 126.841 218.558 126.725 218.628C126.13 219.014 125.536 219.394 124.927 219.745C120.631 222.251 116.235 224.492 111.767 226.618C109.783 227.549 107.8 228.509 105.817 229.404C103.285 230.607 100.686 231.664 98.0333 232.569C97.1956 232.841 97.2242 232.569 97.8257 232.075C98.8263 231.333 99.916 230.719 101.069 230.249C106.282 228.022 111.38 225.53 116.521 223.003C119.593 221.485 122.693 219.702 125.643 217.854L126.159 217.532C126.178 217.525 126.194 217.512 126.206 217.496C126.217 217.479 126.223 217.459 126.223 217.439V217.382V217.224C126.302 216.766 126.367 216.286 126.431 215.792L126.76 212.928C126.961 211.009 127.147 209.083 127.312 207.164C127.512 204.794 127.698 202.424 127.856 200.054C128.092 196.474 128.307 192.894 128.393 189.313C128.465 186.535 128.393 183.814 128.336 181.079C128.336 180.478 128.293 179.883 128.264 179.282C128.214 177.026 128.264 176.31 128.586 175.809C128.638 175.695 128.698 175.585 128.765 175.48C128.923 175.251 129.317 176.153 129.481 177.821C129.836 182.929 129.881 188.053 129.617 193.166C129.453 197.032 129.173 200.913 128.901 204.78L128.844 204.815Z" fill="white"/>
<path d="M90.8086 217.038C90.9375 214.618 91.052 212.191 91.138 209.77L91.1881 207.114C91.2812 203.999 91.4029 200.877 91.4602 197.756C91.4602 196.374 91.4602 194.984 91.4602 193.61C91.4602 191.841 91.3742 190.073 91.4244 188.311C91.4244 187.76 91.6177 187.824 91.8253 188.311C92.1358 189.051 92.3198 189.837 92.3695 190.638C92.6384 194.243 92.7149 197.859 92.5986 201.472C92.5342 203.62 92.5986 205.918 92.5557 208.145C92.5175 210.594 92.4554 213.043 92.3695 215.492L92.1905 220.01C92.1046 222.294 91.9399 224.585 91.8253 226.848C91.768 227.728 91.7322 228.602 91.7108 229.476L91.5676 232.096C91.5246 232.49 91.496 232.87 91.4458 233.256C91.3957 233.643 91.3527 233.915 91.2955 234.166C91.2407 234.373 91.1713 234.576 91.0878 234.774C91.0408 234.904 90.9676 235.024 90.8728 235.125C90.778 235.226 90.6635 235.306 90.5365 235.361C90.4455 235.415 90.3496 235.461 90.2501 235.497C89.9851 235.562 89.7775 234.91 89.8992 233.922C90.0496 230.822 90.2143 227.6 90.379 224.356L90.7441 217.038H90.8086Z" fill="white"/>
<path d="M104.907 166.601L101.75 167.604C101.363 167.725 100.991 167.883 100.611 168.005L96.544 169.25C95.9425 169.444 95.3482 169.659 94.7611 169.881C94.0226 170.191 93.2643 170.452 92.4913 170.661C92.0044 170.776 92.3767 169.845 93.2073 169.48C94.7196 168.851 96.2635 168.301 97.8328 167.833C98.778 167.561 99.7231 167.117 100.697 166.809L103.84 165.742L105.781 165.083C106.755 164.74 107.735 164.417 108.695 164.045C109.411 163.751 110.127 163.401 110.843 163.078C111.001 163.007 111.151 162.928 111.316 162.864C111.917 162.62 112.139 162.627 112.39 162.864C112.451 162.922 112.508 162.984 112.562 163.05C112.712 163.272 112.562 163.565 112.118 163.802C110.821 164.493 109.467 165.072 108.072 165.534C107.027 165.907 105.924 166.25 104.907 166.608V166.601Z" fill="white"/>
<path d="M75.9153 170.131L70.4019 168.964C69.7288 168.821 69.0486 168.735 68.3827 168.577C66.0198 168.055 63.664 167.489 61.3155 166.931C60.2701 166.68 59.2104 166.465 58.165 166.265C56.8122 166.039 55.4806 165.701 54.1838 165.255C53.7757 165.098 53.9118 164.79 54.3414 164.539C54.9313 164.225 55.6099 164.119 56.2675 164.238C57.6422 164.46 58.9884 164.783 60.3417 165.105C61.695 165.427 63.0483 165.778 64.4016 166.157C66.0269 166.608 67.7526 166.873 69.4137 167.217L74.9701 168.327C76.1086 168.542 77.2543 168.764 78.3927 168.964C80.1255 169.272 81.8655 169.587 83.5983 169.816C84.9444 169.995 86.2834 170.052 87.6152 170.16C87.9087 170.16 88.2023 170.16 88.4959 170.21C88.8865 170.254 89.2693 170.351 89.6344 170.496C89.8407 170.603 90.0066 170.774 90.107 170.983C90.1571 171.068 90.2002 171.157 90.2358 171.248C90.2788 171.384 90.1786 171.499 89.9638 171.599C89.6632 171.742 89.3368 171.822 89.0043 171.835C86.4894 171.873 83.9773 171.652 81.5075 171.177C79.6386 170.883 77.7698 170.525 75.901 170.174L75.9153 170.131Z" fill="white"/>
<path d="M43.0855 108.581L41.7394 108.496C41.5747 108.496 41.41 108.496 41.2453 108.496C40.6546 108.445 40.0683 108.352 39.4911 108.216L38.7249 108.052C38.3893 107.996 38.0666 107.879 37.7726 107.708C37.5936 107.601 38.0518 107.192 38.3812 107.264C38.9898 107.4 39.5985 107.479 40.2357 107.601C40.6298 107.651 41.0276 107.665 41.4243 107.643H42.7633H43.6011C44.0235 107.643 44.4531 107.643 44.8756 107.643C45.298 107.643 45.5343 107.601 45.8709 107.643C45.9448 107.64 46.0189 107.64 46.0928 107.643C46.3649 107.708 46.4365 107.794 46.4437 108.03C46.4437 108.08 46.4437 108.138 46.4437 108.188C46.4316 108.274 46.3914 108.354 46.3292 108.415C46.267 108.475 46.1864 108.514 46.1 108.524C45.5436 108.65 44.9703 108.684 44.403 108.624L43.0783 108.567L43.0855 108.581Z" fill="white"/>
<path d="M56.0239 111.746C58.5682 112.319 61.1197 112.866 63.6783 113.386L66.4923 113.894C69.786 114.539 73.0869 115.176 76.4021 115.72C77.87 115.956 79.3521 116.15 80.82 116.307C82.7103 116.515 84.6078 116.687 86.4766 117.023C87.0566 117.131 86.9492 117.453 86.4193 117.739C85.6159 118.135 84.7195 118.303 83.8273 118.226C81.8726 118.097 79.9393 117.832 78.006 117.51C76.0727 117.188 74.1538 116.859 72.2277 116.451C69.9292 115.964 67.509 115.634 65.1533 115.19C62.5565 114.713 59.9669 114.197 57.3844 113.644L52.6156 112.684L45.4554 111.045C43.6009 110.622 41.7607 110.329 39.9276 109.82C39.5195 109.72 39.1185 109.627 38.7104 109.498C38.1638 109.339 37.6446 109.098 37.1709 108.782C36.9151 108.603 36.7362 108.335 36.6697 108.03C36.6498 107.921 36.6498 107.81 36.6697 107.701C36.6697 107.572 36.906 107.55 37.1208 107.565C37.2934 107.567 37.4657 107.581 37.6363 107.608C37.8773 107.637 38.1163 107.68 38.3524 107.736C41.5315 108.453 44.9685 109.24 48.3768 110.035C50.933 110.622 53.5035 111.216 56.0741 111.761L56.0239 111.746Z" fill="white"/>
<path d="M128.601 140.502C128.35 144.24 128.078 147.97 127.706 151.715C127.634 152.395 127.577 153.075 127.484 153.777L127.441 154.056C127.441 154.192 127.348 154.329 127.305 154.465C127.283 154.532 127.249 154.595 127.204 154.651C127.204 154.651 127.154 154.651 127.204 154.722L127.169 154.758L127.09 154.83C126.982 154.926 126.865 155.01 126.739 155.08L125.865 155.625C121.671 158.026 117.339 160.178 112.891 162.069C110.929 162.928 108.967 163.794 107.012 164.618C104.499 165.678 102 166.766 99.3723 167.561C97.7541 168.069 99.4726 166.479 102.351 165.305C107.485 163.229 112.54 161.009 117.61 158.66C119.12 157.944 120.638 157.228 122.135 156.369C122.851 155.954 123.631 155.539 124.355 155.095C124.72 154.873 125.071 154.665 125.45 154.436L125.987 154.092L126.145 153.992C126.161 153.986 126.175 153.976 126.185 153.961C126.196 153.947 126.201 153.931 126.202 153.913C126.202 153.913 126.259 153.598 126.281 153.391L126.367 152.674L126.51 151.278L126.753 148.471C126.904 146.595 127.032 144.719 127.154 142.843C127.302 140.528 127.431 138.215 127.541 135.905C127.698 132.404 127.849 128.881 127.877 125.401C127.877 122.694 127.827 120.045 127.72 117.374L127.634 115.627C127.57 113.429 127.634 112.763 127.942 112.24C127.998 112.13 128.06 112.022 128.128 111.918C128.286 111.696 128.672 112.577 128.844 114.195C129.21 119.172 129.301 124.166 129.116 129.153C129.023 132.926 128.823 136.707 128.608 140.488L128.601 140.502Z" fill="white"/>
<path d="M90.5365 151.407C90.6511 148.915 90.7585 146.395 90.8229 143.917V141.182C90.8945 137.974 91.0019 134.738 91.0306 131.544C91.0306 130.112 91.0306 128.68 90.9805 127.248C90.9375 125.429 90.8587 123.611 90.8874 121.792C90.8874 121.219 91.0736 121.284 91.2884 121.756C91.607 122.516 91.8074 123.32 91.8827 124.141C92.2028 127.862 92.3223 131.598 92.2407 135.332C92.1906 137.573 92.2407 139.908 92.2407 142.206C92.2407 144.726 92.1929 147.249 92.0975 149.774C92.0497 151.331 92.002 152.882 91.9543 154.429C91.8827 156.784 91.7323 159.14 91.6392 161.474C91.5533 163.293 91.5461 165.054 91.4459 166.888C91.4459 167.281 91.3886 167.675 91.3456 168.076C91.3027 168.477 91.2597 168.792 91.2168 169.014C91.1656 169.228 91.101 169.438 91.0234 169.644C90.9804 169.778 90.9115 169.902 90.8206 170.008C90.7296 170.115 90.6185 170.203 90.4936 170.267C90.4026 170.326 90.3068 170.376 90.2072 170.418C89.9422 170.496 89.7131 169.838 89.8133 168.806C89.8921 165.656 90.0496 162.305 90.1714 158.925C90.2788 156.419 90.379 153.913 90.4864 151.386L90.5365 151.407Z" fill="white"/>
<path d="M91.0162 150.19C91.0664 147.533 91.0878 144.87 91.0878 142.213C91.0878 141.239 91.0162 140.273 91.0162 139.299C91.0162 135.876 91.0162 132.454 91.0162 129.024C91.0162 127.506 90.9088 125.981 90.8516 124.477C90.7585 122.544 90.6368 120.596 90.6654 118.663C90.6654 118.061 90.9088 118.119 91.2024 118.613C91.6256 119.397 91.893 120.255 91.99 121.14C92.4547 125.088 92.6938 129.059 92.7061 133.034C92.7061 135.425 92.8851 137.903 92.9567 140.344C93.0283 143.037 93.0641 145.722 93.0784 148.414C93.0784 150.068 93.0784 151.722 93.0784 153.376C93.0784 155.882 93.014 158.388 92.9925 160.894C92.9925 162.828 93.0569 164.732 92.9925 166.673C92.9925 167.102 92.9925 167.518 92.9352 167.954C92.9168 168.534 92.7981 169.105 92.5843 169.644C92.526 169.794 92.4355 169.93 92.3192 170.041C92.203 170.152 92.0637 170.237 91.9113 170.289C91.7952 170.351 91.6728 170.402 91.5461 170.439C91.1953 170.511 90.8301 169.787 90.916 168.706C90.873 165.391 90.873 161.811 90.916 158.223C90.916 155.56 90.9876 152.875 90.9876 150.197L91.0162 150.19Z" fill="white"/>
<path d="M80.7987 94.0677C77.0897 95.0224 73.3878 96.0058 69.6931 97.0178L65.6691 98.1849C60.8955 99.4881 56.1507 100.825 51.4344 102.195C49.3365 102.81 47.2457 103.483 45.1907 104.171L37.3502 106.885C36.6341 107.164 36.4551 106.827 36.9707 106.169C37.3261 105.745 37.7466 105.38 38.2166 105.087C38.8312 104.673 39.495 104.336 40.1928 104.085C42.8851 103.09 45.5916 102.187 48.3197 101.328C51.0478 100.469 53.7902 99.6599 56.5755 98.9367C59.905 98.0632 63.299 96.939 66.6787 95.9652C70.3949 94.8912 74.1254 93.8672 77.8559 92.8505L84.7584 91.0246C86.5198 90.5735 88.2454 90.1367 90.0498 89.7214C90.3536 89.6319 90.6768 89.6319 90.9807 89.7214L91.6537 89.9434L92.9426 90.3659L95.463 91.2036C96.7876 91.6332 98.1051 92.027 99.4226 92.4209L103.346 93.6309C103.926 93.81 104.492 93.9675 105.072 94.1608C107.184 94.9556 107.814 95.3279 108.158 95.8363C108.247 95.9464 108.326 96.0638 108.394 96.1872C108.53 96.5165 107.55 96.5237 105.903 96.1872C104.678 95.9795 103.468 95.6573 102.251 95.3351C101.034 95.0129 99.8021 94.6692 98.5777 94.3112C96.1361 93.545 93.6729 92.7073 91.2241 91.8982L90.551 91.6762H90.4293L89.1906 91.9698C88.2598 92.1846 87.3289 92.428 86.3909 92.6858C84.5221 93.1512 82.6532 93.6381 80.7916 94.1179L80.7987 94.0677Z" fill="white"/>
<path d="M129.832 141.325C129.667 145.815 129.531 150.247 129.166 154.794C129.166 154.865 129.166 155.08 129.109 155.252C129.089 155.426 129.058 155.598 129.016 155.768C128.98 155.842 128.939 155.913 128.894 155.982L128.823 156.083L128.787 156.126L128.837 156.161L128.45 156.469L127.118 157.185C126.402 157.551 125.636 157.901 124.892 158.245C122.249 159.427 119.586 160.522 116.915 161.603C114.244 162.684 111.566 163.751 108.874 164.747L101.75 167.518C98.7343 168.775 95.6505 169.86 92.5128 170.768C91.5246 171.026 91.5461 170.604 92.2407 169.974C93.368 169.046 94.647 168.319 96.0213 167.826C102.193 165.477 108.323 162.985 114.566 160.629C118.304 159.197 122.085 157.479 125.736 155.732L126.488 155.367L127.09 155.059L127.226 154.994C127.249 154.952 127.263 154.906 127.269 154.858V154.686L127.305 154.285C127.39 153.183 127.448 152.059 127.505 150.942C127.605 148.708 127.691 146.459 127.756 144.211C127.834 141.447 127.899 138.683 127.935 135.912C127.985 131.731 128.028 127.513 127.935 123.36C127.863 120.131 127.634 116.966 127.383 113.794C127.319 113.078 127.262 112.412 127.197 111.71C127.018 109.104 127.054 108.281 127.541 107.658C127.623 107.516 127.714 107.38 127.813 107.25C128.049 106.956 128.708 107.966 128.987 109.913C129.737 115.836 130.096 121.801 130.061 127.771C130.097 132.282 130.004 136.807 129.904 141.325H129.832Z" fill="white"/>
<path d="M91.4673 215.792C91.5723 213.21 91.6511 210.62 91.7036 208.023C91.7036 207.078 91.7036 206.133 91.7036 205.159C91.7537 201.823 91.8468 198.486 91.8683 195.135C91.8683 193.653 91.8182 192.171 91.7895 190.703C91.7323 188.812 91.6463 186.922 91.6965 185.039C91.6965 184.459 91.9471 184.509 92.2335 184.989C92.6352 185.759 92.8787 186.601 92.9495 187.466C93.3556 191.321 93.5254 195.197 93.4579 199.073C93.4221 201.4 93.5438 203.82 93.5581 206.198C93.5581 208.818 93.5581 211.439 93.5152 214.074C93.5152 215.685 93.4507 217.296 93.4221 218.907C93.3791 221.349 93.2502 223.805 93.1715 226.232C93.1214 228.115 93.1715 229.97 93.0641 231.86C93.0641 232.282 93.0211 232.691 92.971 233.106C92.9433 233.675 92.8098 234.233 92.5772 234.753C92.5118 234.902 92.4133 235.034 92.2893 235.14C92.1652 235.245 92.0188 235.321 91.8611 235.361C91.7409 235.415 91.6164 235.458 91.4888 235.49C91.1451 235.54 90.8229 234.824 90.9088 233.786C90.9446 230.557 91.0162 227.07 91.1093 223.583C91.1881 220.984 91.274 218.37 91.3528 215.764L91.4673 215.792Z" fill="white"/>
<path d="M31.8581 215.384C31.4929 206.842 31.2996 198.293 31.407 189.729C31.4571 186.607 31.4858 183.478 31.7292 180.342C31.8652 178.702 32.0299 177.062 32.3307 175.408C32.4094 174.993 32.4954 174.571 32.6028 174.148C32.7141 173.697 32.8577 173.254 33.0324 172.824C33.2482 172.195 33.676 171.661 34.2425 171.313C34.5245 171.167 34.8439 171.11 35.159 171.148C35.4776 171.223 35.7839 171.344 36.0683 171.506L36.2903 171.606L36.4407 171.664L36.7486 171.778L37.4001 172C37.8512 172.143 38.2952 172.287 38.7606 172.408C39.67 172.68 40.6008 172.924 41.5316 173.167C43.3861 173.647 45.2621 174.105 47.131 174.549C50.883 175.432 54.6469 176.277 58.4227 177.084C63.17 178.108 67.9745 179.039 72.7433 179.948C78.8367 181.065 84.9659 182.153 91.0306 183.378C92.921 183.757 92.5987 184.158 90.9089 184.344C88.1431 184.557 85.3615 184.415 82.6316 183.922C76.3664 182.912 70.1441 181.688 63.929 180.392C57.7139 179.096 51.4916 177.714 45.3123 176.146L40.4289 174.9C39.6127 174.685 38.7892 174.463 37.9586 174.227L36.7056 173.847L36.0755 173.633L35.4883 173.404C35.4124 173.359 35.3305 173.325 35.2449 173.303C35.2007 173.307 35.1581 173.321 35.1206 173.345C35.0832 173.368 35.0521 173.401 35.0301 173.439C34.9783 173.512 34.9373 173.591 34.9084 173.676C34.8217 173.91 34.7477 174.149 34.6864 174.392C34.4289 175.42 34.2446 176.466 34.1351 177.521C33.8844 179.669 33.7556 181.881 33.6625 184.072C33.3331 192.607 33.5193 201.2 33.8272 209.771C33.9179 212.406 34.0372 215.031 34.1852 217.647L34.2997 219.623L34.3499 220.49C34.3631 220.571 34.3928 220.65 34.4371 220.72C34.4814 220.79 34.5394 220.85 34.6076 220.898C35.0857 221.261 35.6019 221.57 36.1471 221.821C36.7128 222.101 37.3071 222.358 37.9085 222.595C41.6344 223.995 45.4296 225.205 49.279 226.218C53.1313 227.27 57.005 228.223 60.8787 229.082C66.8933 230.442 72.8507 231.523 78.851 232.569L82.7963 233.22C85.2595 233.679 86.8777 233.987 88.0018 234.287C88.7971 234.473 89.5599 234.777 90.2645 235.19C90.4955 235.313 90.718 235.452 90.9304 235.605C91.1452 235.805 90.7371 235.927 89.8062 235.977C88.3957 236.037 86.9827 235.98 85.5817 235.805C82.8464 235.533 80.0969 235.089 77.3259 234.645C74.5548 234.201 71.7766 233.672 68.977 233.106C63.3848 231.975 57.7425 230.693 52.1145 229.247C47.9401 228.158 43.7728 227.005 39.627 225.573C38.5959 225.215 37.5577 224.857 36.5266 224.392C35.3974 223.956 34.3271 223.381 33.3403 222.681C33.2625 222.626 33.1884 222.566 33.1183 222.502C33.0151 222.409 32.9171 222.311 32.8247 222.208C32.652 222.014 32.503 221.8 32.3808 221.571C32.319 221.455 32.2778 221.329 32.2591 221.198V221.105V221.055V220.869L32.2161 220.303L32.123 218.685L31.9512 215.449L31.8581 215.384Z" fill="white"/>
<path d="M113.714 176.411L108.645 178.394C108.029 178.638 107.435 178.924 106.819 179.16C104.633 179.991 102.439 180.795 100.239 181.573L97.3243 182.669C96.6942 182.891 96.0927 183.163 95.4412 183.385C94.7986 183.637 94.1118 183.756 93.422 183.736C92.9852 183.736 93.0138 183.442 93.2788 183.02C93.5823 182.437 94.0933 181.99 94.7108 181.767C95.9352 181.344 97.174 180.85 98.4198 180.392C99.6657 179.934 100.955 179.525 102.251 179.117C103.797 178.645 105.322 177.914 106.855 177.291L111.931 175.258L115.053 173.998L119.772 172.064C120.982 171.556 122.128 170.947 123.352 170.446C123.624 170.339 123.875 170.224 124.154 170.131C125.171 169.787 125.543 169.795 125.858 169.995C125.933 170.032 126.005 170.075 126.073 170.124C126.238 170.282 125.908 170.647 125.235 171.055L123.724 171.979L122.128 172.802C121.046 173.332 119.979 173.862 118.834 174.377C117.165 175.093 115.468 175.809 113.779 176.482L113.714 176.411Z" fill="white"/>
<path d="M98.9285 115.004L97.3317 115.52C97.1312 115.584 96.9594 115.691 96.7661 115.749L94.6824 116.386C94.3807 116.484 94.0864 116.604 93.8017 116.744C93.4474 116.956 93.0563 117.099 92.6489 117.167C92.384 117.167 92.2837 116.078 92.6847 115.856C93.4172 115.465 94.1936 115.162 94.9975 114.954C95.4891 114.807 95.968 114.62 96.4295 114.395L98.0191 113.801L98.9929 113.436C99.487 113.25 99.9882 113.078 100.468 112.863C100.948 112.648 101.184 112.434 101.542 112.24C101.621 112.193 101.702 112.15 101.785 112.111C102.1 111.982 102.244 112.054 102.43 112.419C102.475 112.501 102.515 112.584 102.552 112.67C102.606 112.788 102.623 112.919 102.601 113.047C102.579 113.174 102.52 113.293 102.43 113.386C101.865 113.853 101.22 114.212 100.525 114.446C100.01 114.646 99.4798 114.825 98.9571 115.018L98.9285 115.004Z" fill="white"/>
<path d="M48.155 167.733C47.0093 168.076 45.8637 168.449 44.7323 168.807C44.3171 168.943 43.9161 169.122 43.5008 169.258L39.09 170.69C38.4385 170.905 37.8084 171.17 37.1639 171.406C36.357 171.742 35.5235 172.01 34.6722 172.208C34.4001 172.258 34.3571 172.014 34.486 171.699C34.6584 171.293 34.9745 170.964 35.3739 170.776C36.9898 170.018 38.6664 169.398 40.3861 168.921C41.4171 168.628 42.4339 168.155 43.4578 167.768L46.8661 166.544C47.5821 166.293 48.2982 166.05 48.9784 165.828C50.0453 165.47 51.1265 165.112 52.1862 164.754C53.0025 164.453 53.7901 164.124 54.6064 163.837C54.7854 163.78 54.9572 163.701 55.1434 163.651C55.8594 163.444 56.0814 163.508 56.3034 163.744C56.3573 163.796 56.4076 163.851 56.4537 163.909C56.5826 164.102 56.3606 164.374 55.9095 164.625C54.5101 165.37 53.0602 166.016 51.5704 166.558C50.4463 166.974 49.3221 167.389 48.1836 167.79L48.155 167.733Z" fill="white"/>
<path d="M130.262 192.808C130.19 198.257 130.018 203.699 129.782 209.133C129.689 211.124 129.646 213.107 129.517 215.091L129.424 216.408L129.374 217.067V217.418C129.381 217.511 129.381 217.604 129.374 217.697L129.288 217.948C129.288 218.026 129.231 218.119 129.195 218.198L129.138 218.306C129.08 218.306 129.216 218.356 129.195 218.356L129.152 218.406C129.034 218.541 128.897 218.657 128.744 218.75L128.085 219.172C127.706 219.408 127.369 219.652 126.961 219.888C125.45 220.797 123.918 221.671 122.378 222.509C119.299 224.191 116.17 225.774 113.02 227.299C110.227 228.652 107.413 230.013 104.621 231.316C101.023 233.096 97.2995 234.609 93.4794 235.841C92.2693 236.178 92.3123 235.698 93.1643 234.968C94.5416 233.868 96.0737 232.977 97.7111 232.325C105.086 229.204 112.361 225.767 119.586 222.115C121.734 221.005 123.882 219.802 125.994 218.492L127.484 217.525L127.612 217.439C127.616 217.389 127.616 217.339 127.612 217.289L127.67 216.458C127.734 215.212 127.799 213.974 127.87 212.735C128.135 207.286 128.314 201.815 128.407 196.352C128.465 192.987 128.486 189.622 128.443 186.263C128.444 181.189 128.16 176.119 127.591 171.076C127.527 170.589 127.455 170.11 127.369 169.644L127.319 169.379C127.319 169.315 127.319 169.243 127.262 169.193C127.209 169.151 127.151 169.115 127.09 169.086L126.868 168.978C126.03 168.599 125.106 168.262 124.197 167.962C122.371 167.346 120.517 166.773 118.669 166.193L116.228 165.427C113.192 164.432 112.254 163.995 111.731 163.379C111.601 163.258 111.488 163.121 111.394 162.971C111.208 162.584 112.511 162.763 114.781 163.365C118.139 164.267 121.569 165.255 125.049 166.422C125.923 166.73 126.775 167.017 127.706 167.446C128.035 167.632 128.543 167.826 128.715 168.212L128.758 168.284V168.32C128.722 168.32 128.815 168.32 128.808 168.32L128.865 168.47C128.907 168.57 128.941 168.673 128.966 168.778L129.066 169.322C129.152 169.788 129.231 170.246 129.295 170.711C129.56 172.566 129.761 174.42 129.882 176.275C130.247 181.781 130.283 187.294 130.262 192.794V192.808Z" fill="white"/>
<path d="M63.6639 166.888C63.7653 166.827 63.8829 166.8 64.0005 166.809C64.0081 166.812 64.0147 166.818 64.0192 166.825C64.0238 166.832 64.0263 166.84 64.0263 166.848C64.0263 166.857 64.0238 166.865 64.0192 166.872C64.0147 166.879 64.0081 166.884 64.0005 166.888L63.8143 167.016C63.7785 167.016 63.0983 167.382 62.8978 167.482C62.6973 167.582 62.461 167.675 62.239 167.768L60.8786 168.291C60.7783 168.334 60.6709 168.363 60.5707 168.398C60.2194 168.506 59.875 168.635 59.5396 168.785C59.4822 168.804 59.4288 168.833 59.3821 168.871L58.2937 169.394L57.4273 169.78C57.3897 169.805 57.3487 169.825 57.3056 169.838C57.2074 169.859 57.1147 169.9 57.0335 169.959C56.919 170.024 56.8044 170.103 56.6898 170.174C56.6274 170.207 56.5628 170.236 56.4965 170.26C56.4392 170.26 56.4392 170.224 56.4464 170.21C56.4535 170.196 56.4464 170.167 56.4464 170.16L56.7399 169.852C56.8975 169.702 57.0693 169.551 57.1051 169.523C57.1554 169.479 57.208 169.439 57.2626 169.401L57.6207 169.157L58.2508 168.821L58.4512 168.749C58.4512 168.749 59.3391 168.348 59.3749 168.341C59.5563 168.267 59.743 168.208 59.9334 168.162L60.048 168.126C60.3559 168.019 60.6781 167.926 60.9931 167.826L61.4729 167.668H61.566L61.6734 167.632C62.0529 167.503 62.4324 167.389 62.7975 167.238C62.8835 167.238 63.3059 167.074 63.399 167.024C63.4921 166.974 63.6138 166.916 63.6639 166.888Z" fill="white"/>
<path d="M67.2942 167.303C67.3986 167.259 67.5106 167.237 67.6236 167.238C67.6236 167.238 67.6666 167.274 67.6236 167.296L67.4303 167.41L66.5209 167.847C66.3069 167.946 66.0869 168.032 65.8622 168.105L64.5232 168.592L64.2225 168.685C63.8758 168.776 63.5379 168.898 63.2129 169.05C63.1548 169.067 63.1011 169.096 63.0553 169.136C62.9694 169.186 62.1174 169.616 62.0028 169.658C61.7216 169.775 61.4467 169.907 61.1793 170.052C61.1451 170.078 61.1062 170.098 61.0648 170.11C60.9677 170.12 60.8769 170.163 60.807 170.231C60.7011 170.309 60.5911 170.38 60.4776 170.446C60.4121 170.469 60.3451 170.489 60.2772 170.503C60.2127 170.503 60.1769 170.439 60.1841 170.417C60.1912 170.396 60.1483 170.36 60.1196 170.339C60.1926 170.206 60.279 170.081 60.3774 169.966C60.4846 169.84 60.602 169.723 60.7283 169.616C61.0981 169.363 61.4858 169.138 61.8882 168.942C61.9497 168.911 62.0146 168.887 62.0815 168.871C62.0815 168.871 62.9694 168.491 63.0052 168.484C63.1862 168.417 63.3732 168.366 63.5637 168.334H63.6711C63.9862 168.234 64.3012 168.148 64.6163 168.069L65.096 167.933H65.1891H65.2965C65.676 167.818 66.0555 167.725 66.4278 167.611C66.5138 167.611 66.9362 167.496 67.0365 167.46C67.1267 167.415 67.213 167.363 67.2942 167.303V167.303Z" fill="white"/>
<path d="M70.7598 167.647C70.8195 167.62 70.8841 167.606 70.9495 167.606C71.0149 167.606 71.0796 167.62 71.1393 167.647C71.1822 167.647 71.1966 167.74 71.1393 167.761L70.9245 167.89C70.8815 167.89 70.1512 168.184 69.9077 168.298C69.6643 168.413 69.4351 168.492 69.1917 168.577C68.7048 168.756 68.225 168.95 67.7596 169.15C67.6552 169.198 67.5475 169.239 67.4374 169.272C67.0603 169.38 66.6936 169.521 66.3419 169.694C66.2794 169.718 66.2214 169.752 66.17 169.795C66.0841 169.859 65.1461 170.332 65.0172 170.389C64.7022 170.511 64.3943 170.654 64.0864 170.804C64.0434 170.804 64.0076 170.862 63.9575 170.854C63.8486 170.866 63.7459 170.911 63.6639 170.983L63.2916 171.205C63.2204 171.235 63.1459 171.257 63.0696 171.27C62.998 171.27 62.9551 171.184 62.9694 171.155C62.9837 171.127 62.9264 171.084 62.8906 171.055C62.9778 170.923 63.076 170.798 63.1842 170.683C63.306 170.551 63.4351 170.427 63.5709 170.31L64.1437 169.938C64.4372 169.759 64.7523 169.587 64.8167 169.551C64.8832 169.511 64.9558 169.482 65.0316 169.465C65.0316 169.465 65.9695 168.986 66.0125 168.978C66.204 168.887 66.406 168.82 66.614 168.778L66.7357 168.742C67.0706 168.607 67.4153 168.497 67.7668 168.413L68.2966 168.248H68.3897H68.5186L69.7717 167.897C69.8647 167.897 70.3373 167.79 70.4447 167.754C70.5521 167.718 70.7097 167.668 70.7598 167.647Z" fill="white"/>
<path d="M74.5189 168.377C74.6267 168.313 74.7529 168.288 74.8769 168.305C74.8828 168.309 74.8877 168.315 74.891 168.321C74.8944 168.327 74.8961 168.334 74.8961 168.341C74.8961 168.348 74.8944 168.355 74.891 168.362C74.8877 168.368 74.8828 168.373 74.8769 168.377L74.6979 168.535L73.7313 169.007C73.5093 169.122 73.2802 169.222 73.0153 169.322L71.619 169.931L71.3039 170.053C70.9393 170.181 70.583 170.331 70.2371 170.504C70.1762 170.528 70.1185 170.559 70.0652 170.597C69.9793 170.654 69.0556 171.148 68.9339 171.198C68.626 171.32 68.3181 171.463 68.0102 171.599C67.9673 171.599 67.9315 171.649 67.8813 171.649C67.7745 171.653 67.6707 171.685 67.5806 171.742C67.4527 171.809 67.3213 171.869 67.1868 171.921C67.1151 171.945 67.0402 171.957 66.9648 171.957C66.9004 171.957 66.8789 171.857 66.8932 171.835C66.9075 171.814 66.8574 171.764 66.8359 171.728V171.692C67.0559 171.466 67.2955 171.26 67.552 171.076L68.1319 170.783C68.4255 170.647 68.7263 170.504 68.805 170.475C68.8714 170.444 68.9411 170.42 69.0127 170.403L69.9865 169.995C70.1706 169.91 70.3624 169.843 70.5593 169.795C70.5999 169.788 70.6388 169.774 70.6738 169.752C70.9961 169.623 71.3326 169.516 71.6548 169.401L72.156 169.215H72.2491L72.3637 169.179C72.7575 169.029 73.1585 168.9 73.5451 168.742C73.631 168.742 74.075 168.563 74.1752 168.52C74.2755 168.477 74.4688 168.399 74.5189 168.377Z" fill="white"/>
<path d="M78.9942 169.193C79.0743 169.147 79.1696 169.134 79.2591 169.157C79.2591 169.157 79.3021 169.208 79.2591 169.222L79.1159 169.322C79.1159 169.322 78.5789 169.587 78.3999 169.659L77.8844 169.874L76.8461 170.274L76.617 170.353C76.3485 170.433 76.0874 170.536 75.8365 170.661C75.7925 170.675 75.7514 170.697 75.7148 170.726C75.6504 170.769 74.9988 171.119 74.9057 171.162C74.6909 171.263 74.4761 171.37 74.2684 171.492C74.2684 171.492 74.2183 171.535 74.1825 171.542C74.1076 171.556 74.0382 171.591 73.982 171.642L73.7314 171.821C73.6844 171.848 73.6337 171.867 73.581 171.878C73.5309 171.878 73.5023 171.828 73.5094 171.814C73.5166 171.8 73.4736 171.764 73.4521 171.742C73.5786 171.54 73.7328 171.357 73.9104 171.198C74.1891 170.991 74.4809 170.802 74.784 170.632C74.8351 170.608 74.8877 170.586 74.9415 170.568C74.9415 170.568 75.6217 170.239 75.6575 170.239C75.7939 170.174 75.9385 170.128 76.0871 170.103H76.1731C76.4093 170.01 76.66 169.945 76.8891 169.874L77.2614 169.752H77.3259H77.4118C77.7054 169.659 77.9989 169.58 78.2853 169.473C78.3569 169.473 78.6792 169.365 78.7508 169.336C78.8356 169.295 78.917 169.247 78.9942 169.193V169.193Z" fill="white"/>
<path d="M84.2784 169.336C84.3389 169.3 84.4082 169.28 84.4789 169.28C84.5496 169.28 84.619 169.3 84.6794 169.336C84.7295 169.336 84.7582 169.472 84.7224 169.501L84.529 169.673L83.5194 170.188C83.2891 170.316 83.0498 170.426 82.8034 170.518L81.3141 171.112L80.9704 171.227C80.5789 171.331 80.196 171.465 79.8247 171.628C79.7578 171.651 79.695 171.685 79.6386 171.728C79.2343 171.929 78.8154 172.099 78.3855 172.236L77.3473 172.501C77.2981 172.515 77.2461 172.515 77.1969 172.501C77.0815 172.486 76.9643 172.506 76.8604 172.558C76.7145 172.604 76.5663 172.642 76.4164 172.673C76.3356 172.684 76.2538 172.684 76.173 172.673C76.0942 172.673 76.0871 172.544 76.1014 172.523C76.1157 172.501 76.1014 172.43 76.0513 172.387V172.344C76.3168 172.136 76.5995 171.952 76.8962 171.792L78.2352 171.234C78.3068 171.234 78.3855 171.198 78.4571 171.176L79.481 170.761C79.6777 170.677 79.8848 170.619 80.0968 170.589L80.2257 170.554C80.5622 170.418 80.9417 170.317 81.2711 170.21L81.7938 170.024H81.8941H82.0229L83.276 169.587C83.3691 169.551 83.8488 169.451 83.992 169.408C84.0888 169.39 84.1845 169.366 84.2784 169.336V169.336Z" fill="white"/>
<path d="M87.0565 170.683C87.0969 170.647 87.1462 170.623 87.1991 170.613C87.252 170.603 87.3066 170.607 87.3573 170.625C87.3573 170.625 87.4289 170.704 87.4074 170.725L87.2785 170.876C87.2785 170.876 86.7415 171.262 86.5625 171.384C86.3835 171.506 86.2116 171.599 86.0326 171.699C85.6674 171.893 85.3166 172.086 84.9299 172.265C84.8497 172.308 84.7658 172.344 84.6793 172.372C84.3816 172.472 84.092 172.594 83.8129 172.737C83.7618 172.752 83.715 172.779 83.6769 172.816C83.3741 172.985 83.058 173.129 82.7317 173.246L81.9441 173.475C81.9067 173.486 81.867 173.486 81.8295 173.475C81.7455 173.45 81.6558 173.45 81.5718 173.475L81.2281 173.554C81.1662 173.561 81.1038 173.561 81.0419 173.554C80.9846 173.554 80.9846 173.468 80.9918 173.454C80.9989 173.439 80.9918 173.389 80.9918 173.36C80.9918 173.36 81.1278 173.246 81.271 173.124C81.3767 173.034 81.4892 172.953 81.6076 172.881L82.6243 172.451L82.7962 172.408L83.5695 172.079C83.7159 172.013 83.8698 171.965 84.0277 171.936C84.0583 171.943 84.0902 171.943 84.1208 171.936C84.3786 171.828 84.6435 171.742 84.9013 171.642L85.2879 171.477H85.3596H85.4526C85.7605 171.334 86.0684 171.212 86.362 171.048C86.4264 171.012 86.7701 170.883 86.8489 170.833C86.9277 170.783 87.0207 170.733 87.0565 170.683Z" fill="white"/>
<path d="M91.045 170.547C91.1012 170.516 91.1639 170.501 91.2276 170.501C91.2913 170.501 91.354 170.516 91.4102 170.547C91.4248 170.563 91.4329 170.585 91.4329 170.607C91.4329 170.63 91.4248 170.651 91.4102 170.668L91.224 170.804C91.1811 170.804 90.551 171.177 90.3505 171.327C90.15 171.477 89.9423 171.585 89.7347 171.699C89.3122 171.943 88.854 172.193 88.4029 172.415C88.3056 172.461 88.2051 172.499 88.1021 172.53C87.744 172.637 87.3945 172.771 87.0567 172.931C86.9979 172.953 86.9443 172.987 86.8992 173.031C86.8204 173.103 85.9326 173.525 85.818 173.575C85.5177 173.672 85.2236 173.787 84.9373 173.919C84.9015 173.919 84.8657 173.969 84.8156 173.962C84.7655 173.955 84.6223 174.012 84.5363 174.055C84.4251 174.131 84.3077 174.198 84.1855 174.256C84.1174 174.285 84.0447 174.302 83.9707 174.306C83.9062 174.306 83.8418 174.198 83.8489 174.177C83.8561 174.155 83.7917 174.091 83.7559 174.055L83.7129 174.012C83.8814 173.732 84.0914 173.478 84.3358 173.26C84.3358 173.26 85.4099 172.609 85.5316 172.544C85.5971 172.512 85.6672 172.491 85.7393 172.48C85.7393 172.48 86.6343 172.05 86.6701 172.043C86.8542 171.967 87.0463 171.911 87.2429 171.878C87.2784 171.885 87.3148 171.885 87.3503 171.878C87.6623 171.76 87.9802 171.657 88.3026 171.57C88.4673 171.52 88.6105 171.456 88.768 171.391H88.8611H88.9685C89.3337 171.234 89.6846 171.091 90.0784 170.912C90.1643 170.869 90.6011 170.74 90.7013 170.697C90.8016 170.654 90.9949 170.575 91.045 170.547Z" fill="white"/>
<path d="M103.103 168.148C103.28 168.068 103.468 168.015 103.661 167.99C103.719 167.99 103.726 168.026 103.661 168.055L103.325 168.227L101.735 168.943C101.363 169.107 101.019 169.265 100.611 169.415L98.327 170.353L97.8186 170.554C97.2347 170.759 96.6632 170.998 96.1073 171.27C96.0135 171.314 95.9226 171.364 95.8352 171.42C95.6848 171.513 94.2098 172.301 94.0165 172.401C93.5296 172.63 93.0642 172.895 92.5844 173.16C92.5233 173.205 92.4557 173.242 92.3839 173.267C92.2223 173.317 92.0716 173.397 91.94 173.504C91.7467 173.625 91.5677 173.769 91.36 173.883C91.2551 173.938 91.1447 173.981 91.0306 174.012C90.9304 174.055 90.9018 173.933 90.9232 173.897C90.9447 173.862 90.8803 173.819 90.8445 173.783V173.747L90.9877 173.575C91.0933 173.445 91.2056 173.321 91.3242 173.203C91.5892 172.945 91.8899 172.702 91.9472 172.659C92.0357 172.588 92.129 172.523 92.2264 172.465L92.8422 172.072L93.8948 171.47C94.0006 171.414 94.1108 171.366 94.2241 171.327C94.2671 171.284 95.7135 170.611 95.7779 170.611C96.0823 170.479 96.3958 170.369 96.7159 170.282C96.78 170.266 96.8424 170.245 96.9021 170.217C97.4319 170.017 97.969 169.845 98.506 169.666L99.3223 169.386L99.4726 169.344L99.6588 169.293C100.303 169.071 100.955 168.871 101.599 168.642C101.742 168.592 102.458 168.37 102.63 168.305C102.802 168.241 103.024 168.184 103.103 168.148Z" fill="white"/>
<path d="M106.955 168.334C107.152 168.225 107.375 168.176 107.599 168.191C107.614 168.194 107.628 168.201 107.639 168.212C107.65 168.222 107.658 168.235 107.663 168.25C107.667 168.264 107.667 168.28 107.664 168.294C107.66 168.309 107.653 168.323 107.642 168.334C107.53 168.428 107.413 168.517 107.292 168.599C107.22 168.663 105.938 169.315 105.494 169.458C105.05 169.601 104.642 169.809 104.22 169.973C103.797 170.138 103.353 170.303 102.945 170.482C102.537 170.661 102.136 170.876 101.706 171.069C101.52 171.155 101.327 171.234 101.134 171.305C100.473 171.552 99.829 171.844 99.2075 172.179C99.0974 172.224 98.9938 172.285 98.8997 172.358C98.7565 172.487 97.0451 173.353 96.816 173.453C96.2432 173.675 95.6775 173.926 95.1047 174.169C95.0299 174.219 94.9436 174.249 94.8541 174.255C94.6603 174.272 94.4736 174.336 94.3099 174.441C94.0761 174.549 93.8371 174.644 93.5939 174.728C93.465 174.765 93.3333 174.791 93.2001 174.807C93.0783 174.807 93.0855 174.706 93.1142 174.678C93.1428 174.649 93.1141 174.585 93.064 174.556C93.0139 174.527 93.064 174.556 93.064 174.513C93.1199 174.449 93.1823 174.392 93.2502 174.341L93.6798 173.969C93.9044 173.763 94.1437 173.574 94.3958 173.403L96.6227 172.179C96.7413 172.121 96.8632 172.071 96.9879 172.028L98.6992 171.141C99.0328 170.973 99.3801 170.834 99.7374 170.725C99.8092 170.707 99.8789 170.68 99.9451 170.647C100.518 170.374 101.119 170.138 101.714 169.931L102.644 169.573L102.823 169.537L103.038 169.479C103.754 169.236 104.542 169.064 105.265 168.828C105.437 168.778 106.253 168.584 106.439 168.506C106.614 168.458 106.786 168.4 106.955 168.334Z" fill="white"/>
<path d="M63.4564 167.596C63.2873 167.55 63.1274 167.475 62.9838 167.374C62.9408 167.339 62.9838 167.296 63.0196 167.31L63.3633 167.367C63.4277 167.367 64.5089 167.639 64.8884 167.682L65.9696 167.854L68.175 168.198L68.6619 168.291C69.2204 168.405 69.7789 168.491 70.3446 168.563C70.4398 168.573 70.5358 168.573 70.631 168.563C70.7885 168.563 72.3208 168.792 72.5141 168.842L73.9462 169.215C74.017 169.221 74.0855 169.243 74.1467 169.279C74.2866 169.35 74.4362 169.401 74.5906 169.429C74.7983 169.48 74.9988 169.544 75.2064 169.616C75.3053 169.656 75.401 169.704 75.4928 169.759C75.5054 169.763 75.5164 169.771 75.5242 169.782C75.5319 169.793 75.5361 169.806 75.5361 169.82C75.5361 169.833 75.5319 169.846 75.5242 169.857C75.5164 169.868 75.5054 169.876 75.4928 169.88C75.3926 169.88 75.457 169.938 75.457 169.981C75.4598 169.993 75.4598 170.005 75.457 170.017H75.2565L74.8269 169.959L74.1109 169.866L73.1872 169.687L72.1346 169.515C72.0282 169.498 71.9229 169.474 71.8196 169.444C71.7766 169.444 70.3875 169.243 70.3016 169.229C70.0067 169.192 69.7148 169.135 69.4281 169.057H69.2562C68.7478 168.978 68.2466 168.878 67.7454 168.785L66.9721 168.642L66.836 168.606L66.6642 168.563C66.0556 168.434 65.4541 168.269 64.8598 168.112C64.7166 168.112 64.0722 167.854 63.9146 167.804C63.7571 167.754 63.5351 167.618 63.4564 167.596Z" fill="white"/>
<path d="M63.5494 169.515C63.0983 169.515 62.7403 169.515 62.3894 169.515C62.282 169.515 62.2748 169.437 62.3894 169.394C62.6417 169.307 62.9039 169.251 63.1699 169.229C63.6846 169.203 64.2007 169.231 64.7093 169.315C65.4755 169.422 66.3061 169.616 66.7214 169.702C67.5448 169.881 68.3038 170.031 69.1416 170.131C70.8099 170.353 72.4783 170.618 74.1538 170.847C74.5189 170.905 74.8698 170.969 75.2564 171.041C76.5166 171.284 77.784 171.485 79.0585 171.671C79.2672 171.705 79.4775 171.729 79.6886 171.742C80.0323 171.742 83.4764 172.294 83.9204 172.387L87.2213 173.017C87.379 173.04 87.5347 173.076 87.6867 173.124C88.0159 173.23 88.3537 173.307 88.6963 173.353C89.1689 173.432 89.6414 173.532 90.1283 173.64C90.3646 173.69 90.5866 173.761 90.8444 173.826C91.1021 173.89 90.9231 173.955 90.8444 173.948C90.6296 173.948 90.7942 174.012 90.8086 174.048C90.8229 174.084 90.8086 174.048 90.8086 174.084H90.3575L89.3622 174.012C88.6462 173.955 87.8657 173.876 87.7153 173.855L83.1972 173.196C82.9609 173.196 82.7246 173.11 82.4812 173.06L79.0442 172.551C78.3855 172.437 77.7196 172.358 77.0752 172.193L76.6813 172.122C75.5428 171.95 74.4187 171.742 73.2874 171.542L71.5474 171.263L71.2324 171.198L70.8385 171.126L68.7907 170.761C68.0747 170.654 67.3586 170.468 66.7285 170.296C66.4206 170.203 64.9671 169.773 64.5805 169.73C64.242 169.635 63.8976 169.563 63.5494 169.515Z" fill="white"/>
<path d="M77.0968 169.966C76.8566 169.905 76.6304 169.798 76.4309 169.651C76.3736 169.616 76.4309 169.58 76.481 169.601L76.9393 169.716C77.0324 169.752 78.5575 170.045 79.0874 170.088C79.6172 170.131 80.1041 170.21 80.6053 170.303L83.6986 170.79C83.9277 170.826 84.1497 170.869 84.4146 170.919C85.1879 171.098 85.9684 171.227 86.7632 171.334C86.8941 171.348 87.0261 171.348 87.157 171.334C88.0364 171.435 88.9091 171.588 89.7705 171.792L91.7897 172.344C91.8872 172.359 91.9815 172.391 92.0689 172.437C92.2568 172.55 92.4627 172.63 92.6776 172.673C92.9689 172.747 93.2558 172.838 93.5368 172.945C93.6761 173.003 93.8102 173.072 93.9378 173.153C94.0595 173.217 93.9378 173.289 93.9378 173.289C93.9378 173.289 93.8877 173.36 93.8948 173.403C93.902 173.446 93.8948 173.439 93.8948 173.446C93.8948 173.453 93.458 173.446 93.0069 173.396C92.5558 173.346 92.0761 173.339 91.983 173.325L91.5677 173.26L90.6799 173.11L89.1977 172.881C89.0521 172.855 88.9086 172.819 88.768 172.773C88.6964 172.773 86.7202 172.465 86.62 172.422C86.2113 172.349 85.809 172.244 85.417 172.107C85.3379 172.081 85.2564 172.061 85.1736 172.05C84.4576 171.907 83.7845 171.728 83.0971 171.563L82.0302 171.327L81.8369 171.27L81.6006 171.205C80.7557 171.019 79.9179 170.811 79.0802 170.589L77.7627 170.181C77.598 170.167 77.2042 169.966 77.0968 169.966Z" fill="white"/>
<path d="M63.8932 170.439C63.5825 170.381 63.2828 170.275 63.0053 170.124C62.9266 170.081 62.9624 170.031 63.0626 170.052C63.1628 170.074 63.4564 170.131 63.6641 170.16C63.8717 170.188 65.762 170.539 66.4351 170.632L68.3827 170.983L72.3423 171.699C72.6359 171.749 72.9295 171.807 73.2159 171.878C74.2112 172.1 75.2208 172.279 76.2232 172.465C76.395 172.465 76.5669 172.53 76.7316 172.544C77.0037 172.544 79.7246 173.088 80.0754 173.174L82.6818 173.797C82.8064 173.819 82.9288 173.852 83.0469 173.897C83.3037 174 83.57 174.076 83.8417 174.126C84.2141 174.212 84.5578 174.298 84.9587 174.399C85.1377 174.449 85.3168 174.52 85.4958 174.585C85.6748 174.649 85.5459 174.692 85.4958 174.685C85.3239 174.685 85.4528 174.742 85.4958 174.771L83.0469 174.47L82.5171 174.384L81.3714 174.177L79.4668 173.84L78.9083 173.711L76.1301 173.26C75.6074 173.153 75.0776 173.067 74.5692 172.909C74.4694 172.874 74.3662 172.85 74.2613 172.838C73.3662 172.651 72.4712 172.444 71.5762 172.25L70.2086 171.957L69.958 171.892L69.6501 171.821L66.4065 171.105L64.688 170.668C64.5519 170.682 64.0364 170.468 63.8932 170.439Z" fill="white"/>
<path d="M90.8946 171.449C90.8412 171.437 90.7929 171.408 90.7569 171.367C90.7208 171.326 90.6989 171.274 90.6941 171.22C90.6941 171.184 90.6941 171.098 90.7585 171.098H90.9519C90.9877 171.098 91.539 171.277 91.7323 171.313C91.9257 171.349 92.1047 171.406 92.2837 171.463C92.6488 171.57 92.9997 171.664 93.4007 171.749L93.6513 171.828C93.9301 171.926 94.2179 171.996 94.5105 172.036C94.5604 172.043 94.611 172.043 94.6609 172.036C94.9886 172.063 95.314 172.113 95.6347 172.186C95.8781 172.272 96.1288 172.337 96.3507 172.415C96.3893 172.416 96.4267 172.429 96.4581 172.451C96.4883 172.481 96.5241 172.505 96.5634 172.521C96.6027 172.537 96.6448 172.545 96.6873 172.544L97.0095 172.637C97.0628 172.666 97.1131 172.699 97.1598 172.738C97.2028 172.773 97.1598 172.866 97.1598 172.874C97.1598 172.881 97.1598 172.945 97.1598 172.988C97.1632 173.002 97.1632 173.017 97.1598 173.031C96.9232 173.07 96.6835 173.087 96.4438 173.081L95.3841 172.931C95.3271 172.919 95.2718 172.899 95.2194 172.874L94.4174 172.738C94.2621 172.707 94.1107 172.659 93.9663 172.594C93.9385 172.585 93.9083 172.585 93.8804 172.594C93.6161 172.527 93.3555 172.446 93.0999 172.351L92.699 172.236L92.6345 172.201L92.5486 172.165C92.2335 172.065 91.9257 171.943 91.6178 171.835C91.5462 171.835 91.224 171.635 91.1452 171.606C91.0664 171.578 90.9375 171.456 90.8946 171.449Z" fill="white"/>
<path d="M96.4078 170.081C96.2861 170.081 96.2073 170.017 96.1357 169.845C96.1357 169.795 96.1357 169.644 96.1787 169.63L96.3935 169.544C96.4365 169.544 97.1095 169.544 97.3244 169.587C97.5421 169.607 97.7577 169.645 97.9688 169.702C98.3984 169.809 98.8208 169.917 99.2433 170.038C99.3363 170.068 99.4272 170.104 99.5154 170.146C99.8123 170.284 100.122 170.394 100.439 170.475C100.493 170.485 100.549 170.485 100.604 170.475C100.96 170.544 101.309 170.642 101.649 170.769C101.907 170.897 102.165 170.998 102.43 171.112C102.465 171.112 102.508 171.112 102.537 171.17C102.566 171.227 102.687 171.27 102.773 171.298L103.117 171.427C103.174 171.459 103.225 171.5 103.267 171.549C103.317 171.585 103.267 171.685 103.267 171.692C103.267 171.699 103.267 171.771 103.267 171.814C103.267 171.857 103.267 171.85 103.267 171.864C102.992 171.902 102.714 171.914 102.437 171.9C102.437 171.9 101.384 171.671 101.27 171.642C101.209 171.628 101.151 171.603 101.098 171.571L100.239 171.341C100.07 171.305 99.9097 171.237 99.766 171.141C99.7356 171.122 99.7014 171.11 99.6658 171.105C99.3865 171.026 99.1144 170.912 98.8423 170.812C98.7039 170.761 98.5629 170.718 98.4199 170.683H98.3268L98.2337 170.64C97.8997 170.535 97.5603 170.449 97.2169 170.382C97.1453 170.382 96.7802 170.224 96.6871 170.217C96.594 170.21 96.4508 170.074 96.4078 170.081Z" fill="white"/>
<path d="M100.346 168.656C100.274 168.661 100.201 168.645 100.137 168.61C100.074 168.574 100.022 168.52 99.9883 168.456C99.9883 168.405 99.9883 168.284 99.9883 168.269C100.072 168.239 100.158 168.215 100.246 168.198C100.296 168.198 101.127 168.198 101.406 168.241C101.678 168.261 101.948 168.299 102.215 168.355C102.752 168.463 103.289 168.577 103.819 168.713C103.936 168.742 104.051 168.777 104.163 168.821C104.55 168.966 104.947 169.083 105.351 169.172C105.418 169.182 105.485 169.182 105.552 169.172C105.997 169.261 106.437 169.376 106.869 169.515C107.199 169.651 107.542 169.766 107.879 169.88C107.93 169.889 107.979 169.908 108.022 169.938C108.109 170.007 108.213 170.051 108.323 170.067L108.767 170.21C108.838 170.241 108.907 170.277 108.974 170.317C108.984 170.321 108.992 170.327 108.997 170.336C109.003 170.344 109.006 170.354 109.006 170.364C109.006 170.374 109.003 170.384 108.997 170.392C108.992 170.4 108.984 170.407 108.974 170.41C108.903 170.41 108.974 170.46 108.974 170.489C108.974 170.518 108.974 170.489 108.974 170.489H108.824L108.495 170.532C108.311 170.542 108.127 170.542 107.943 170.532C107.943 170.532 106.619 170.317 106.475 170.289C106.398 170.276 106.324 170.252 106.254 170.217C106.218 170.217 105.194 170.002 105.158 169.981C104.946 169.93 104.742 169.853 104.549 169.752C104.51 169.733 104.47 169.719 104.428 169.709C104.077 169.616 103.712 169.487 103.382 169.372C103.203 169.315 103.017 169.279 102.838 169.229L102.745 169.186L102.623 169.25C102.201 169.133 101.773 169.037 101.342 168.964C101.241 168.964 100.776 168.806 100.661 168.799C100.547 168.792 100.404 168.642 100.346 168.656Z" fill="white"/>
<path d="M51.735 199.939C52.4511 199.223 53.1313 198.572 53.833 197.899C54.0908 197.648 54.3271 197.383 54.549 197.14L57.3201 194.612C57.7282 194.24 58.1077 193.839 58.48 193.431C58.9299 192.888 59.4258 192.385 59.9622 191.927C60.3202 191.662 60.714 192.808 60.1484 193.402C59.152 194.457 58.085 195.442 56.9549 196.352C56.2389 196.903 55.666 197.569 55.0288 198.185C54.3915 198.801 53.5967 199.531 52.9308 200.219C52.5084 200.648 52.0859 201.071 51.6778 201.508C51.062 202.166 50.4462 202.846 49.8877 203.548C49.4581 204.1 49.0857 204.672 48.7063 205.245L48.4556 205.625C48.1406 206.09 47.9831 206.197 47.7396 206.169C47.6776 206.173 47.6154 206.173 47.5534 206.169C47.3744 206.112 47.3744 205.832 47.5534 205.453C48.12 204.262 48.8424 203.152 49.7015 202.152C50.3388 201.393 51.019 200.663 51.6993 199.954L51.735 199.939Z" fill="white"/>
<path d="M66.485 198.113L68.1176 196.717C68.3181 196.545 68.4899 196.352 68.6904 196.187L70.8385 194.426C71.1464 194.161 71.44 193.875 71.7192 193.581C72.0478 193.177 72.4282 192.818 72.8505 192.514C73.1369 192.349 73.6024 193.423 73.1656 193.846C72.3928 194.587 71.5619 195.264 70.681 195.872C70.1585 196.269 69.6567 196.692 69.1773 197.14L67.5376 198.522L66.528 199.388C66.0196 199.825 65.5112 200.269 65.0387 200.734C64.6663 201.092 64.3227 201.45 64.0076 201.873L63.7856 202.123C63.4992 202.431 63.356 202.481 63.1269 202.374L62.9693 202.302C62.8118 202.202 62.8261 201.973 63.0052 201.715C63.5733 200.943 64.2109 200.224 64.9098 199.567C65.4253 199.066 65.9695 198.579 66.4994 198.092L66.485 198.113Z" fill="white"/>
<path d="M49.594 133.249L51.248 131.552C51.4485 131.344 51.6347 131.122 51.8423 130.914C52.5584 130.198 53.2744 129.482 54.0477 128.824C54.3771 128.508 54.6921 128.186 55 127.864C55.3722 127.425 55.7898 127.027 56.2459 126.675C56.5466 126.475 56.8044 127.391 56.3462 127.864C55.537 128.695 54.6993 129.497 53.8043 130.256C53.2672 130.714 52.809 131.28 52.3078 131.795L50.6895 133.514C50.3602 133.872 50.0308 134.23 49.7157 134.595C49.236 135.153 48.7205 135.69 48.2837 136.263C47.9328 136.707 47.6249 137.172 47.3027 137.631C47.2311 137.731 47.1667 137.831 47.0879 137.931C46.7943 138.282 46.6511 138.368 46.4507 138.34C46.4054 138.344 46.3599 138.344 46.3146 138.34C46.1786 138.289 46.2 138.067 46.3146 137.76C46.7956 136.818 47.3637 135.924 48.0116 135.089C48.4914 134.448 49.0078 133.836 49.5582 133.256L49.594 133.249Z" fill="white"/>
<path d="M59.1674 136.428L60.2271 135.397C60.356 135.275 60.4705 135.139 60.5994 135.017L62.0315 133.764C62.2391 133.578 62.4396 133.385 62.6258 133.184C62.8543 132.913 63.1166 132.673 63.4063 132.468C63.5924 132.346 63.8287 133.005 63.5495 133.292C63.0447 133.804 62.5065 134.282 61.9384 134.724C61.6058 135.013 61.2903 135.322 60.9932 135.647L59.9693 136.686C59.7545 136.9 59.554 137.115 59.3535 137.337C59.0457 137.674 58.7378 138.01 58.4657 138.368C58.2669 138.652 58.0829 138.946 57.9143 139.249L57.7998 139.442C57.6422 139.679 57.5491 139.722 57.3415 139.65L57.1983 139.593C57.0479 139.521 57.0121 139.349 57.0981 139.149C57.3842 138.557 57.7504 138.008 58.1864 137.516C58.5086 137.137 58.8452 136.8 59.1889 136.414L59.1674 136.428Z" fill="white"/>
<path d="M130.19 106.519C127.443 111.476 124.985 116.587 122.829 121.828C122.278 123.138 121.734 124.456 121.211 125.78L120.81 126.776C120.696 127.084 120.588 127.377 120.481 127.699C120.273 128.337 120.094 129.01 119.908 129.69C119.248 132.546 118.389 135.352 117.338 138.089C116.897 139.158 116.33 140.17 115.648 141.103C114.897 142.166 113.855 142.989 112.648 143.473C112.013 143.7 111.345 143.814 110.671 143.81L109.791 143.774C109.497 143.774 109.203 143.695 108.91 143.66C107.73 143.464 106.594 143.064 105.552 142.478C103.781 141.424 102.313 139.929 101.291 138.139C100.308 136.445 99.57 134.62 99.1003 132.719C98.6305 130.861 98.3404 128.961 98.2339 127.048C98.1059 125.132 98.2166 123.208 98.5633 121.32C98.9031 119.442 99.4259 117.603 100.124 115.828C100.793 114.077 101.556 112.363 102.408 110.694C104.07 107.357 105.931 104.185 107.506 100.898C108.214 99.4561 108.842 97.9766 109.39 96.4662C109.912 94.9769 110.342 93.3873 110.757 91.8335C111.591 88.7333 112.152 85.5659 112.433 82.3677C112.483 81.3509 112.562 80.3341 112.511 79.3245C112.492 76.286 111.952 73.2732 110.915 70.4172C110.585 69.4637 110.198 68.5312 109.755 67.6246C109.325 66.7081 108.767 65.8561 108.323 64.9467C107.286 63.1723 106.07 61.5094 104.692 59.9846C102.981 58.0728 103.353 58.1444 105.129 59.5049C105.671 59.8992 106.185 60.3298 106.669 60.7937L107.585 61.6458C107.936 61.95 108.269 62.2752 108.58 62.6196C110.201 64.2131 111.52 66.0856 112.476 68.1473C112.721 68.6513 112.941 69.1675 113.134 69.694L113.442 70.4816L113.6 70.8683L113.714 71.2764L114.166 72.9018C114.316 73.4459 114.387 74.0044 114.502 74.5558C114.7 75.66 114.841 76.7737 114.924 77.8925C114.924 78.4438 114.96 79.0023 114.975 79.5608V80.3986L114.939 81.2292L114.867 82.8904L114.688 84.5372C114.595 85.6471 114.38 86.6853 114.208 87.8023C113.772 89.9504 113.263 92.0985 112.648 94.1463L112.189 95.7001L111.652 97.2897C111.266 98.3279 110.85 99.359 110.392 100.354C109.49 102.359 108.48 104.278 107.456 106.161C105.423 109.935 103.332 113.615 101.907 117.503C101.022 119.812 100.522 122.25 100.425 124.721C100.371 127.241 100.668 129.757 101.306 132.196C101.873 134.597 102.996 136.832 104.585 138.719C105.348 139.597 106.296 140.295 107.361 140.763C108.425 141.231 109.58 141.457 110.743 141.426C111.303 141.406 111.851 141.255 112.342 140.985C112.833 140.716 113.254 140.334 113.571 139.872C114.36 138.811 114.977 137.631 115.397 136.378C116.357 133.778 116.922 130.972 117.681 128.136C117.882 127.42 118.097 126.704 118.397 125.988L119.185 123.962C119.724 122.616 120.271 121.274 120.825 119.938C121.934 117.26 123.109 114.596 124.362 111.975C127.33 105.407 131.09 99.2274 135.56 93.5735C136.506 92.5035 137.584 91.558 138.768 90.7595C139.914 89.9719 141.076 89.2415 142.255 88.5685C144.611 87.2008 147.003 85.9406 149.38 84.6876C154.156 82.1815 158.896 79.6754 163.471 76.9903C167 74.9194 170.413 72.6582 173.696 70.2167C176.959 67.8253 180.01 65.1591 182.818 62.2473C183.42 61.6028 184.028 60.9727 184.573 60.2925C185.117 59.6123 185.682 58.9822 186.191 58.2662C188.203 55.6813 189.298 53.8411 190.136 52.5809C190.481 52.056 190.857 51.5515 191.26 51.0701C191.534 50.7164 191.846 50.3946 192.191 50.1106C192.459 49.8504 192.746 49.611 193.05 49.3946C193.458 49.1941 193.509 49.7741 193.229 51.0271C193.158 51.3422 193.079 51.7002 192.957 52.094C192.836 52.4878 192.664 52.8959 192.485 53.3542C192.062 54.4089 191.556 55.4288 190.974 56.4045C188.992 59.6984 186.603 62.7296 183.864 65.4264C181.107 68.1626 178.141 70.6788 174.992 72.9519C168.615 77.4618 161.914 81.4945 154.943 85.017L147.289 89.0554C144.798 90.3429 142.385 91.7775 140.064 93.3515L139.269 93.9458L138.553 94.5616C138.339 94.7693 138.152 94.9769 137.945 95.1774C137.737 95.3779 137.508 95.7144 137.286 95.9793C136.842 96.5164 136.405 97.0677 135.99 97.6334C135.575 98.199 135.145 98.7504 134.751 99.3375C133.132 101.646 131.631 104.036 130.255 106.498L130.19 106.519Z" fill="white"/>
<path d="M78.7867 68.7203C80.8345 67.4028 82.8967 66.1211 84.9946 64.9039C85.7608 64.4599 86.4911 63.9587 87.2716 63.5291C89.9997 62.0039 92.7922 60.5934 95.6348 59.2759C96.9022 58.7031 98.1552 58.0873 99.4441 57.5502C100.267 57.1837 101.116 56.8821 101.986 56.6481C102.879 56.3912 103.807 56.2776 104.736 56.3115C105.337 56.3115 105.215 56.6839 104.793 57.0848C104.208 57.618 103.534 58.0445 102.802 58.345C102.408 58.4954 102.022 58.6672 101.628 58.8248L101.041 59.0969L100.439 59.3332C99.6445 59.6625 98.8498 60.0062 98.0478 60.3642L93.2289 62.6126C91.2797 63.6058 89.3865 64.7053 87.558 65.9063C85.4958 67.1665 83.448 68.4506 81.4145 69.7585C80.1686 70.5676 78.9227 71.3839 77.7055 72.236C75.8509 73.5177 73.9893 74.8208 72.2565 76.2243C70.9426 77.3243 69.6878 78.4931 68.4973 79.7256L67.7312 80.5347C66.7574 81.5157 66.3707 81.6804 65.6977 81.4871C65.5416 81.4569 65.3883 81.4138 65.2394 81.3582C64.774 81.1792 64.8527 80.4059 65.5115 79.518C67.631 77.0218 70.0531 74.7994 72.7219 72.9019C74.6838 71.4269 76.7173 70.0378 78.7509 68.6702L78.7867 68.7203Z" fill="white"/>
<path d="M113.922 5.00797C128.429 5.86525 142.979 5.70494 157.464 4.52823L161.416 4.14874L165.34 3.62604C167.968 3.32531 170.553 2.79545 173.159 2.39447C175.45 1.98633 177.706 1.46363 179.99 1.00537C181.186 0.790566 182.367 0.511317 183.57 0.34663L185.389 0.1533C185.992 0.0744941 186.599 0.0314624 187.207 0.0244198C192.072 -0.146579 196.927 0.581642 201.528 2.1725L203.225 2.77396C203.795 2.96129 204.354 3.17879 204.9 3.42555L208.18 4.85761L211.352 6.50447L212.147 6.91261L212.891 7.42815L214.424 8.33034C216.5 9.49747 218.433 10.8651 220.424 12.1468C221.398 12.8127 222.343 13.5215 223.288 14.2018C224.233 14.882 225.221 15.5622 226.152 16.2997C232.825 21.3549 239.255 26.7752 245.42 32.303L246.917 33.6205C247.397 34.0501 247.898 34.4797 248.406 34.9021L251.478 37.4154L257.693 42.4276C261.846 45.7571 265.956 49.1296 269.866 52.7527C271.054 53.927 271.477 54.5643 271.298 54.6502C271.119 54.7361 270.395 54.3423 269.15 53.6692C267.904 52.9962 266.185 51.9436 264.137 50.6404C263.128 49.9817 262.032 49.2657 260.901 48.4566C259.77 47.6474 258.61 46.7452 257.414 45.7929L251.07 40.6948C248.958 38.9692 246.86 37.2865 244.755 35.4177L238.704 30.0403C236.642 28.3004 234.63 26.496 232.532 24.799C230.434 23.102 228.372 21.362 226.217 19.7438C225.143 18.9347 224.104 18.0683 223.002 17.3022L219.722 14.9464C215.345 11.8449 210.718 9.11226 205.889 6.77656L203.697 5.7956C202.981 5.45907 202.194 5.2371 201.442 4.95785L200.311 4.54972C199.935 4.40556 199.549 4.28597 199.158 4.1917L196.831 3.57592C196.443 3.46507 196.048 3.38133 195.649 3.3253L194.511 3.13198C193.722 2.97382 192.923 2.86856 192.119 2.81692C191.317 2.75964 190.508 2.68088 189.706 2.65224L187.286 2.70236H186.678L186.076 2.7668L184.873 2.90285L183.663 3.0389L182.467 3.28234C181.665 3.44703 180.899 3.59024 180.061 3.7764L177.57 4.31343C174.262 5.0939 170.911 5.59512 167.588 6.13214C160.249 7.1847 152.867 7.7432 145.492 8.05825C138.116 8.3733 130.727 8.38762 123.352 8.1943C118.812 8.08689 114.28 7.87208 109.747 7.62147L102.974 7.20618H102.15C101.912 7.19033 101.673 7.19033 101.434 7.20618C100.945 7.25934 100.464 7.37236 100.002 7.54271C98.9857 7.91743 97.9974 8.36491 97.0451 8.88168C94.08 10.5258 91.2113 12.338 88.4528 14.3092C85.6603 16.2711 82.9179 18.3189 80.2256 20.4241C74.8339 24.6271 69.6069 29.0164 64.5804 33.5918C60.678 37.1361 56.9261 40.7521 53.3817 44.5614C51.6131 46.4588 49.8947 48.3921 48.3194 50.4113C47.5485 51.4032 46.8315 52.4358 46.1713 53.5046C45.8565 54.0075 45.5812 54.5342 45.3479 55.0798C45.2441 55.3095 45.1649 55.5495 45.1116 55.7958C45.0997 55.8909 45.0997 55.9871 45.1116 56.0822C45.1116 56.1538 45.1116 56.3615 45.1116 56.4904C45.2881 58.6498 45.7928 60.7697 46.6081 62.7771C47.2384 64.4249 47.9554 66.0383 48.7562 67.6103C49.4078 68.9135 49.9663 69.9589 50.4174 70.8253C51.0902 71.9997 51.6466 73.2372 52.0786 74.52C52.1931 74.9567 52.4366 75.4723 52.4652 75.7659C52.6585 76.7611 49.7013 74.4054 46.558 68.7488C45.3648 66.6253 44.3585 64.402 43.5507 62.104C43.14 60.9062 42.824 59.6781 42.6055 58.4308C42.5554 58.1086 42.4981 57.7936 42.4623 57.4642L42.3979 56.4617C42.3626 56.0374 42.3915 55.6101 42.4838 55.1944C42.5653 54.8095 42.6828 54.4331 42.8346 54.0702C43.362 52.8583 44.0173 51.7061 44.7894 50.6333C45.5054 49.595 46.2716 48.6069 47.0592 47.6474C48.6273 45.7356 50.2813 43.9098 51.9783 42.1197C58.8761 35.0031 66.185 28.2967 73.8673 22.0351C79.5759 17.2587 85.5525 12.8121 91.768 8.717C93.3717 7.67773 95.028 6.72176 96.7301 5.85289C97.6518 5.38553 98.6096 4.99285 99.5942 4.6786C100.178 4.485 100.785 4.36708 101.399 4.32774H101.671C101.735 4.32415 101.8 4.32415 101.864 4.32774H102.243L102.96 4.36355C106.669 4.58552 110.313 4.82896 113.979 4.98649L113.922 5.00797Z" fill="white"/>
<path d="M62.8764 55.1586C62.7611 54.8707 62.6222 54.5929 62.4611 54.328C62.411 54.2277 62.3107 54.1776 62.2535 54.0773C62.0558 53.731 61.8153 53.411 61.5374 53.125C61.4095 53.0087 61.2615 52.9165 61.1006 52.8529C60.893 52.767 60.671 52.7599 60.5207 52.5307C60.3703 52.3016 61.0505 51.2634 61.3727 51.3493C61.9226 51.5001 62.4049 51.8334 62.7404 52.2944C62.96 52.536 63.1995 52.7588 63.4564 52.9603C63.6986 53.2204 63.9211 53.498 64.1223 53.7909C64.2512 53.9628 64.3514 54.1489 64.4731 54.328C64.6265 54.6015 64.8012 54.8625 64.9958 55.1084C65.1677 55.2803 65.3682 55.4235 65.54 55.5882C65.5758 55.624 65.6259 55.6526 65.6546 55.6884C65.7691 55.8459 65.6546 55.9891 65.4111 56.2469L65.225 56.4188C65.1373 56.5042 65.0328 56.5706 64.9182 56.6137C64.8036 56.6568 64.6813 56.6758 64.5591 56.6694C64.3105 56.614 64.0699 56.5274 63.843 56.4116C63.6555 56.2932 63.4946 56.1371 63.3705 55.9533C63.17 55.7099 63.0124 55.4378 62.8263 55.1944L62.8764 55.1586Z" fill="white"/>
<path d="M227.964 78.6874C225.458 76.5393 222.844 74.5201 220.181 72.5725C219.214 71.8565 218.161 71.255 217.18 70.5605C213.693 68.1251 210.069 65.8921 206.325 63.8728L205.08 63.1997C204.657 62.992 204.22 62.7987 203.798 62.6054L201.22 61.4597L197.855 60.1852C196.724 59.7842 195.592 59.4047 194.49 58.9107C193.773 58.6099 194.024 58.1947 194.776 57.9011C195.892 57.5616 197.083 57.5616 198.199 57.9011C202.983 59.4779 207.552 61.6425 211.803 64.3453L215.72 66.7512C217.052 67.5317 218.362 68.3766 219.644 69.2358C222.458 71.119 225.157 73.1668 227.821 75.2504L230.234 77.2338C231.043 77.8854 231.83 78.5585 232.618 79.2459L234.401 80.7997L236.141 82.4036C237.308 83.4561 238.439 84.5516 239.571 85.6328L242.249 88.1962C243.136 89.0053 243.981 89.8646 244.826 90.7381C245.191 91.1176 245.542 91.4542 245.929 91.8838C247.189 93.4375 247.454 94.0319 247.204 94.7479C247.161 94.9161 247.101 95.0793 247.025 95.2348C246.745 95.6787 245.915 95.3135 244.876 94.3326C244.16 93.6166 243.33 92.9005 242.564 92.1201L241.411 90.9816L240.222 89.8574C238.661 88.3251 237.022 86.8286 235.418 85.2892C234.186 84.1793 232.998 83.0265 231.73 81.9453L229.861 80.2984L227.928 78.7375L227.964 78.6874Z" fill="white"/>
<path d="M242.871 63.579C243.492 62.4993 244.052 61.3853 244.547 60.2423L245.263 58.5239L245.864 56.7481C246.019 56.3164 246.151 55.8766 246.258 55.4306C246.351 54.9867 246.451 54.5356 246.566 54.0988C246.975 52.5317 247.291 50.9417 247.511 49.3372L247.712 46.9099C247.755 46.5032 247.769 46.0941 247.755 45.6855V44.4682V43.3799C247.755 43.0147 247.669 42.6638 247.619 42.2987C247.518 41.5826 247.425 40.8666 247.296 40.1506C247.06 39.2627 246.831 38.3677 246.58 37.4726C246.33 36.5776 245.986 35.7327 245.771 34.8233C245.628 34.2577 246 34.1646 246.545 34.4796C247.318 34.9911 247.921 35.7215 248.277 36.5776C249.693 40.3574 250.229 44.4099 249.845 48.4279C249.652 50.8671 249.308 53.2919 248.814 55.6884C248.669 56.3448 248.487 56.9926 248.27 57.6288C248.07 58.2732 247.884 58.9177 247.662 59.5549L246.895 61.4166C246.655 62.0436 246.378 62.6557 246.065 63.2496L244.933 65.455L243.637 67.5744C243.466 67.8394 243.315 68.1115 243.136 68.3692L242.571 69.1211L241.454 70.6176C240.666 71.5914 239.814 72.5007 239.005 73.4459C238.289 74.1261 237.651 74.8063 236.993 75.508C236.334 76.2097 235.561 76.7826 234.845 77.4127L234.358 77.828C234.193 77.9569 234.014 78.0714 233.835 78.1931C232.475 79.0309 231.938 79.1311 231.322 78.68C231.177 78.5843 231.038 78.4791 230.906 78.365C230.534 77.9569 230.849 77.2408 231.673 76.5391C234.183 74.4565 236.507 72.1588 238.618 69.6724C239.031 69.2192 239.416 68.7409 239.771 68.2403L240.895 66.7582L241.883 65.1757C242.235 64.6611 242.551 64.1228 242.828 63.5647L242.871 63.579Z" fill="white"/>
<path d="M0.438743 106.24C0.202453 106.34 0.0735679 106.047 0.00196509 105.524C-0.0107596 105.277 0.0384673 105.031 0.145168 104.808C0.277985 104.696 0.421945 104.597 0.57479 104.514C0.660713 104.471 1.92092 104.457 2.3577 104.443C2.76751 104.438 3.17637 104.483 3.57494 104.579L5.96648 105.08C6.14434 105.116 6.31573 105.179 6.47486 105.266C7.02268 105.55 7.6167 105.735 8.22913 105.81C8.33115 105.846 8.44216 105.846 8.54418 105.81C9.21558 105.828 9.88103 105.941 10.5204 106.147C11.0002 106.412 11.4871 106.605 11.9525 106.863C12.0241 106.863 12.11 106.863 12.153 106.992C12.2675 107.257 12.4394 107.242 12.5897 107.293C12.813 107.349 13.0292 107.431 13.2342 107.536C13.3512 107.624 13.4507 107.734 13.5277 107.858C13.554 107.938 13.5631 108.023 13.5544 108.107C13.5458 108.191 13.5196 108.272 13.4776 108.345C13.363 108.445 13.4275 108.617 13.4132 108.768C13.4174 108.818 13.4174 108.868 13.4132 108.918C12.9017 109.155 12.3594 109.319 11.8021 109.405L10.7424 109.34C10.2125 109.283 9.66118 109.219 9.54662 109.219C9.42639 109.196 9.31345 109.144 9.21725 109.068C9.15997 109.068 7.59186 108.861 7.53458 108.839C7.22669 108.732 6.89016 108.739 6.63239 108.453C6.58311 108.408 6.51966 108.383 6.45338 108.381C5.91602 108.249 5.38942 108.077 4.87811 107.865C4.61227 107.782 4.34219 107.713 4.069 107.658C4.02057 107.634 3.97493 107.605 3.93296 107.572C3.87947 107.536 3.82174 107.507 3.76111 107.486C3.13376 107.294 2.49531 107.141 1.84932 107.028C1.69895 107.028 1.04737 106.634 0.87552 106.627C0.703673 106.619 0.531826 106.197 0.438743 106.24Z" fill="white"/>
<path d="M24.3039 99.0796C24.5975 99.2371 24.3826 99.588 23.8743 100.082C23.627 100.294 23.3323 100.444 23.015 100.519C22.7936 100.472 22.5776 100.403 22.3706 100.311C21.8576 99.7539 21.3793 99.1657 20.9386 98.5497C20.6253 98.13 20.37 97.67 20.1796 97.1821C19.7858 96.2012 19.3776 95.2345 19.0339 94.2392C18.9544 94.0083 18.9086 93.7672 18.8979 93.5232C18.8371 92.7217 18.661 91.9331 18.3752 91.1818C18.3322 91.0529 18.3179 90.9169 18.1818 90.8238C17.7979 90.0117 17.5558 89.1399 17.4658 88.2461C17.5374 87.5301 17.5159 86.814 17.6019 86.098C17.6019 85.9906 17.5589 85.8904 17.6735 85.7829C17.9384 85.5323 17.8668 85.3319 17.8668 85.117C17.8658 84.8115 17.897 84.5067 17.9599 84.2077C18.0316 84.0397 18.1309 83.8848 18.2534 83.7494C18.3609 83.6062 18.7762 83.642 18.8263 83.685C18.8764 83.728 19.1556 83.685 19.3275 83.6492C19.3894 83.6423 19.4518 83.6423 19.5137 83.6492C19.7296 83.8867 19.9171 84.1486 20.0722 84.4297C20.2727 84.7145 20.4522 85.0137 20.6092 85.3247C20.6092 85.3247 20.645 85.4822 20.7166 85.7042C20.7882 85.9262 20.867 86.2126 20.9529 86.5133C21.1247 87.1148 21.318 87.7306 21.3753 87.8523C21.4111 87.9908 21.4111 88.1362 21.3753 88.2747C21.3753 88.3463 22.0341 90.0934 22.0914 90.165C22.1558 90.5445 22.3635 90.8811 22.2202 91.325C22.1915 91.3987 22.1915 91.4805 22.2202 91.5541C22.4228 92.1902 22.5854 92.8382 22.7071 93.4946C22.8046 93.8203 22.9194 94.1405 23.0508 94.454C23.0581 94.5183 23.0581 94.5831 23.0508 94.6474C23.0399 94.7258 23.0399 94.8053 23.0508 94.8837C23.295 95.6498 23.6015 96.3945 23.9674 97.1105C24.0604 97.268 24.1464 98.1989 24.2824 98.3707C24.4184 98.5426 24.1893 99.0008 24.3039 99.0796Z" fill="white"/>
<path d="M33.3974 151.128C32.932 142.765 32.9249 134.437 33.2471 126.067C33.376 123.024 33.4977 119.981 33.8271 116.938C34.0256 114.944 34.3291 112.963 34.7364 111.002C34.9422 109.981 35.2345 108.98 35.61 108.009C35.8225 107.453 36.1169 106.931 36.4835 106.462C36.7237 106.13 37.0522 105.871 37.4318 105.715C37.8114 105.559 38.227 105.513 38.6316 105.581L48.5558 108.102L58.3653 110.551C62.9622 111.668 67.6093 112.699 72.199 113.694C75.149 114.303 78.1062 114.911 81.0634 115.498C82.5456 115.771 84.0206 116.086 85.4956 116.336C86.9707 116.587 88.4528 116.866 89.8992 117.052C91.632 117.181 91.5389 117.625 89.8992 118.033C87.1951 118.424 84.4439 118.349 81.7651 117.811C75.6502 116.766 69.6285 115.391 63.6138 113.959C57.5992 112.527 51.5989 110.995 45.5914 109.384L42.0113 108.438L38.4741 107.551C38.4255 107.539 38.3749 107.537 38.3257 107.546C38.2764 107.554 38.2294 107.573 38.1877 107.601C38.1467 107.631 38.1105 107.667 38.0803 107.708C38.0118 107.785 37.9517 107.869 37.9013 107.959C37.625 108.439 37.4086 108.951 37.2568 109.484C36.9117 110.658 36.6462 111.854 36.462 113.064C36.0754 115.534 35.8463 118.076 35.6601 120.582C35.1337 128.897 35.0261 137.232 35.3379 145.557C35.431 148.121 35.5598 150.684 35.7747 153.226C35.8248 153.863 35.8892 154.5 35.9537 155.131C35.9537 155.324 35.9537 155.338 35.9966 155.431C36.0159 155.509 36.0554 155.581 36.1112 155.639C36.2803 155.805 36.4676 155.952 36.6697 156.076C37.7332 156.703 38.8526 157.23 40.0135 157.651C43.5937 159.011 47.36 160.086 51.112 161.117C54.864 162.148 58.6374 163.057 62.4037 163.916C68.2608 165.241 74.0535 166.301 79.8963 167.353L83.7414 168.019C86.1329 168.492 87.7082 168.821 88.7965 169.136C89.558 169.339 90.2829 169.66 90.9446 170.088C91.1659 170.218 91.3788 170.361 91.5819 170.518C91.7895 170.733 91.3814 170.84 90.4792 170.869C89.105 170.889 87.7313 170.808 86.3692 170.625C83.7199 170.325 81.0491 169.909 78.364 169.43C75.6789 168.95 72.9651 168.456 70.2442 167.897C64.8024 166.788 59.3105 165.534 53.8329 164.138C49.7658 163.086 45.706 161.99 41.6604 160.608C40.6508 160.264 39.6412 159.892 38.6316 159.498C37.5747 159.089 36.5523 158.596 35.5742 158.023C35.2862 157.842 35.0111 157.641 34.7507 157.422C34.3591 157.102 34.0621 156.681 33.8915 156.205C33.8089 155.974 33.7606 155.733 33.7483 155.489L33.6982 155.088L33.6194 154.293C33.5192 153.233 33.4404 152.145 33.3688 151.121L33.3974 151.128Z" fill="white"/>
</svg>
