<svg fill="none" xmlns="http://www.w3.org/2000/svg" viewBox="0 0 33 40">
    <path fill="#fff" d="M30.414 30.964c.576.344.507 1.043.073 1.941a1.753 1.753 0 0 1-1.055.723 7.7 7.7 0 0 1-1.13-.41c-.205-.114-2.618-2.398-3.498-3.089a25.34 25.34 0 0 1-2.344-2.243 102.23 102.23 0 0 0-4.719-4.58 9.084 9.084 0 0 1-.97-1.085 18.337 18.337 0 0 0-3.55-3.528 1.584 1.584 0 0 0-.73-.427c-.803-.45-1.56-.977-2.259-1.575a24.36 24.36 0 0 1-2.164-1.81c-.962-1.125-2.02-2.13-3.04-3.21-.144-.154-.358-.235-.404-.503a1.711 1.711 0 0 0-.867-1.112 16.058 16.058 0 0 1-1.42-1.268 3.73 3.73 0 0 1-.488-.96c-.125-.313.337-.784.44-.788.355-.02.322-.407.45-.654.039-.088.086-.173.14-.253.696.08 1.381.232 2.046.453.77.194 1.524.446 2.255.753l.788.44c.46.285 1.092.637 1.713 1.039l2.778 1.836c.267.198.5.44.686.715.12.095 3.717 2.677 3.835 2.819a6.92 6.92 0 0 1 1.853 2.092c.089.163.217.301.372.402a31.351 31.351 0 0 1 3.206 3.455c.521.607 1.098 1.163 1.64 1.746.087.12.165.245.233.376.091.16.195.313.31.457 1.302 1.368 2.391 2.927 3.71 4.28.313.314 1.277 2.201 1.625 2.561.183.176.264 1.269.485 1.407Z"/>
    <path fill="#fff" d="M4.712 33.404c-.144.665-.814.855-1.81.79-.317-.027-1.016-.492-1.015-.71-.008-.421.02-.842.081-1.258.273-.673.58-1.332.918-1.974.512-.962 1.065-2.062 1.37-2.602a19.32 19.32 0 0 1 2.002-2.997 87.706 87.706 0 0 1 4.716-5.645 9.828 9.828 0 0 1 1.221-1.09c.745-.575 1.48-1.148 2.171-1.778.69-.63 1.392-1.24 2.078-1.918.25-.195.455-.441.603-.721a13.197 13.197 0 0 1 2.248-2.079 21.191 21.191 0 0 1 2.582-1.854c1.5-.702 2.93-1.472 4.418-2.139.21-.098.388-.278.66-.233a2.146 2.146 0 0 0 1.46-.444c.609-.327 1.246-.6 1.903-.813a3.71 3.71 0 0 1 1.115-.055c.344.004.506.641.445.746-.17.324.187.466.34.687.06.07.107.15.141.236a10.075 10.075 0 0 1-1.413 1.56 20.28 20.28 0 0 1-1.672 1.619s-.33.209-.77.527c-.439.318-1.024.734-1.618 1.16-.594.427-1.178.907-1.658 1.274s-.82.676-.935.78a3.289 3.289 0 0 1-.864.477c-.077.026-.93.785-1.784 1.534-.854.748-1.653 1.551-1.728 1.598a8.658 8.658 0 0 1-2.164 1.638 1.403 1.403 0 0 0-.427.337c-1.102 1.1-2.306 2.103-3.444 3.18a27.45 27.45 0 0 0-1.618 1.774c-.106.1-.22.191-.34.274-.149.109-.288.231-.414.366a43.084 43.084 0 0 0-3.587 4.478c-.278.334-1.77 1.856-2.029 2.298-.115.27-1.12.718-1.182.977Z"/>
</svg>