<svg fill="none" xmlns="http://www.w3.org/2000/svg" viewBox="0 0 352 341"><path d="M140.327 332.105a13.404 13.404 0 0 1-.097-2.817c0-.897.097-1.779.164-2.661l.105-1.921c.172-2.242.374-4.485.381-6.727a15.736 15.736 0 0 0-.269-2.93 8.624 8.624 0 0 0-.209-.882 1.039 1.039 0 0 0-.292-.575.886.886 0 0 0-.605 0c-.299.052-.628.127-.972.157-.344.029-.373-.202-.089-.471.177-.176.37-.336.575-.479a1.69 1.69 0 0 1 1.308-.358c.314.061.597.23.8.478.158.193.284.41.374.643.127.336.232.681.313 1.031.134.674.222 1.355.262 2.041a28.492 28.492 0 0 1-.06 4.006c-.134 1.584-.164 3.229-.276 4.836-.105 1.764-.269 3.535-.239 5.232.007.325.035.649.082.971.019.122.049.243.089.359.012.04.033.077.061.107a.27.27 0 0 0 .104.065l.209.082.277.09.553.164c1.569.426 3.199.748 4.806 1.077 1.248.239 2.496.358 3.737.56.276.053.546.082.822.142 1.024.217 1.33.404 1.495.748.036.082.066.167.09.254 0 .276-.426.381-1.181.321a49.292 49.292 0 0 1-6.914-1.136l-2.16-.501c-.366-.089-.748-.179-1.091-.284a7.912 7.912 0 0 1-.561-.164l-.276-.09-.397-.142a3.922 3.922 0 0 1-.358-.254 2.03 2.03 0 0 1-.277-.336 5.018 5.018 0 0 1-.179-.411 2.694 2.694 0 0 1-.075-.307l-.03.082ZM176.084 323.525l-.92-4.088c-.112-.501-.276-.979-.381-1.495a136.938 136.938 0 0 1-1.001-5.322l-.165-.972-.045-.254-.037-.358a2.17 2.17 0 0 1 .037-.696c0-.104.105-.201.15-.298.071-.091.148-.175.231-.255a2.66 2.66 0 0 1 1.996-.418c.538.075 1.032.232 1.45.329.217.052.314.344 0 .695a2.332 2.332 0 0 1-1.45.747H175.359c.037 0 0 0 0 0v.262l.142.957c.097.657.179 1.322.261 1.995.212 1.259.489 2.507.83 3.737l.942 4.096.605 2.519c.321 1.263.62 2.541.994 3.782.299.964.673 1.891.972 2.833.067.209.142.411.202.628.101.279.134.579.097.874a.811.811 0 0 1-.262.478 1.78 1.78 0 0 1-.164.172c-.157.135-.523-.112-.875-.635a22.776 22.776 0 0 1-2.01-5.232 97.612 97.612 0 0 1-1.069-4.081h.06ZM264.404 146.25a220.507 220.507 0 0 0 5.336-5.232l1.899-1.958c2.242-2.242 4.567-4.522 6.973-6.675 1.062-.956 2.13-1.92 3.229-2.84 1.413-1.151 2.908-2.362 4.814-2.818.598-.134.553.15.194.561a11.738 11.738 0 0 1-1.764 1.584c-2.885 2.033-5.494 4.672-8.222 7.161-1.652 1.495-3.206 3.221-4.806 4.851a389.06 389.06 0 0 1-5.336 5.336c-1.106 1.084-2.243 2.145-3.371 3.214a115.459 115.459 0 0 1-5.307 4.642c-1.413 1.151-2.788 2.302-4.29 3.333-.336.217-.643.471-1.002.658-1.3.747-1.816.83-2.242.62a1.247 1.247 0 0 1-.299-.149c-.247-.217.187-.695 1.054-1.271a79.08 79.08 0 0 0 7.646-5.979 118.079 118.079 0 0 0 5.509-5.06l-.015.022ZM97.847 297.096s-13.917 11.764-22.296 3.797c0 0-4.656-10.629-9.82-57.425l-.472 7.22s-6.517 46.303-9.821 47.686c-3.304 1.382-20.823-1.936-24.299-7.751 0 0 20.928-78.891 18.155-103.197 0 0 24.606 6.36 33.769-4.866 0 0 7.519 97.696 14.784 114.536ZM43.038 77.89s2.489-5.867 6.817-3.737c4.327 2.13 4.155 1.637 4.155 1.637s-3.61-8.289.8-13.962 11.794-6.794 19.979-2.377c8.184 4.418 13.67 4.313 19.433-.747s9.716-14.762 2.13-22.505c-7.586-7.743-13.356-3.064-14.948-1.839 0 0-5.688-7.287-12.759-6.278-13.835 1.98-10.845 14.111-9.903 14.537-5.016-2.092-13.334-1.547-17.82 2.55-4.902 4.544-4.857 11.704-.306 16.652l-3.737-2.99s-3.498.157-5.516 4.148a10.419 10.419 0 0 0 6.249 14.358l5.426.553ZM140.292 186.596s-16.81 94.453-12.908 122.511c0 0 8.752 4.821 20.928 1.323 0 0 1.868-34.486 4.678-44.322 0 0 11.429 42.835 16.093 42.603 4.664-.232 10.635.568 17.721-4.701 0 0-18.574-75.296-15.031-115.343.03.015-18.491 8.012-31.481-2.071ZM141.963 76.553s2.915-3.962 7.377-.882c4.463 3.08 5.038.747 5.038.747s-.516-15.322 8.969-18.91c0 0 11.817-8.49 27.259 4.253 0 0 1.495 3.52 6.943-1.353 0 0 7.923-8.55 5.569-16.077-2.579-8.222-12.37-14.268-24.037-12.9-12.378 1.45-21.302 14.477-21.302 14.477s-6.391-3.214-12.848-2.541c-5.165.5-12.505 3.349-14.082 10.606 0 0-1.951 9.35 6.548 18.559l4.566 4.02ZM240.294 187.426s-18.342 104.431-16.078 124.671a34.922 34.922 0 0 0 11.481 3.67c4.043.486 8.506 1.106 12.22-.613l8.342-49.801s17.901 51.744 27.341 54.771c0 0 9.948-.702 19.612-13.491 0 0-30.645-86.701-27.595-113.609 0 .015-22.266 2.773-35.323-5.598ZM259.421 82.233c-.478.971-3.296 5.5-7.758 5.232-4.462-.27-15.121-3.371-14.949-23.738 0 0-.06-23.17 16.122-24.972 0 0 10.09-2.377 16.182 2.526 0 0 10.853-16.368 28.686-15.62 17.834.746 21.691 10.979 22.827 17.706 1.136 6.727-6.167 20.285-14.77 20.599 0 0-16.047.747-27.654-7.213 0 0-4.612-1.21-7.938 3.55-3.326 4.761-5.352 13.05-5.352 13.05s-2.989-5.232-7.907-3.737-5.643 5.113-4.022 8.379c1.622 3.266 6.533 4.238 6.533 4.238ZM294.699 96.434c-1.794 3.035-4.081 5.979-7.243 7.915-.571.356-1.165.673-1.779.949a8.575 8.575 0 0 1-.949.367c-.314.124-.64.219-.971.284a13.935 13.935 0 0 1-6.974-.254 17.943 17.943 0 0 1-6.099-3.11 25.641 25.641 0 0 1-4.335-4.155 18.895 18.895 0 0 1-3.603-6.727c-.209-.748.038-.748.501-.195.692.855 1.332 1.75 1.914 2.684a29.88 29.88 0 0 0 4.716 5.59 20.233 20.233 0 0 0 6.091 3.917 14.92 14.92 0 0 0 2.108.628c.366.067.747.104 1.099.157.363.058.731.083 1.098.074a10.69 10.69 0 0 0 4.306-.747c2.989-1.173 5.419-3.67 7.302-6.443a37.977 37.977 0 0 0 2.99-5.493 68.93 68.93 0 0 0 3.303-8.97c.71-2.376 1.211-4.76 1.779-7.16.127-.523.232-1.046.374-1.577.508-1.973.927-2.549 1.547-2.803.137-.066.279-.119.426-.157.441-.052.501.822.239 2.243a99.692 99.692 0 0 1-3.468 13.266 56.218 56.218 0 0 1-4.327 9.717h-.045ZM305.26 86.718a4.29 4.29 0 0 1-.209 1.367c-.077.236-.185.46-.322.666l-.209.306c-.082.09-.164.172-.254.254a3.217 3.217 0 0 1-.747.613c-.439.21-.904.358-1.383.44-.434.09-.86.158-1.286.225-.426.067-.747.157-1.136.24a2.288 2.288 0 0 1-1.622 0c-.209-.113 0-.427.187-.748.187-.322.307-.703.493-.748.748-.142 1.637-.388 2.549-.493a3.199 3.199 0 0 0 1.353-.568 1.332 1.332 0 0 0 .635-1.009 3.274 3.274 0 0 0-.082-.987 7.84 7.84 0 0 0-.523-1.651c-.187-.426-.516-.793-.748-1.249a2.295 2.295 0 0 1-.142-.306c-.127-.404 0-.613.434-.747.097-.038.194-.083.291-.112a.93.93 0 0 1 .86.179c.301.276.565.59.785.934.22.369.412.754.575 1.151.304.711.481 1.47.524 2.243h-.023Z" fill="#1B1F3B"/><path d="M321.516 46.394a25.626 25.626 0 0 1-2.071 6.928 21.252 21.252 0 0 1-4.17 5.935 20.648 20.648 0 0 1-5.942 4.126c-.554.239-1.099.5-1.667.695-.566.224-1.145.413-1.734.568a17.198 17.198 0 0 1-3.625.523 31.1 31.1 0 0 1-10.255-1.622 69.277 69.277 0 0 1-8.349-3.363c-1.353-.636-2.69-1.308-4.013-1.959a8.473 8.473 0 0 0-1.884-.747 6.683 6.683 0 0 0-1.996-.142 6.066 6.066 0 0 0-3.587 1.607 12.32 12.32 0 0 0-2.549 3.341 44.558 44.558 0 0 0-3.176 8.162c-.24.747-.471 1.495-.748 2.31a2.909 2.909 0 0 1-.919 1.39.746.746 0 0 1-.748.104 1.96 1.96 0 0 1-.65-.463l-1.121-1.091-1.032-.83c-.351-.262-.747-.463-1.106-.703-.358-.239-.747-.358-1.166-.545a8.658 8.658 0 0 0-1.211-.307 4.378 4.378 0 0 0-1.21 0c-.394.043-.78.144-1.144.3l-.501.29c-.163.108-.316.23-.456.367l-.201.18-.165.216c-.115.14-.223.288-.321.441a4.479 4.479 0 0 0-.441 1.01 5.925 5.925 0 0 0-.232 2.242 6.557 6.557 0 0 0 1.928 4.036c.563.532 1.2.98 1.891 1.33.345.186.699.354 1.062.5.381.113.747.262 1.136.352.77.196 1.56.306 2.354.329h1.196a10.53 10.53 0 0 0 1.189-.15c.5-.074.844-.179 1.076-.224.232-.045.344 0 .351 0 .008 0-.097.142-.299.292a4.98 4.98 0 0 1-.927.523 8.764 8.764 0 0 1-3.737.83 8.472 8.472 0 0 1-1.278-.083 8.656 8.656 0 0 1-6.375-3.819 8.37 8.37 0 0 1-.748-1.428c-.09-.254-.164-.515-.247-.747l-.112-.389-.067-.396-.12-.792v-1.218l.06-.404c.045-.276.068-.546.135-.815a6.353 6.353 0 0 1 1.629-2.99 5.284 5.284 0 0 1 3.102-1.494c1.108-.121 2.23.02 3.274.41.471.218.971.412 1.42.666.448.254.874.538 1.278.837l1.166.95c.179.164.351.343.523.515l.217.224h.09c.269-.657.515-1.405.747-2.145.478-1.495.949-2.99 1.495-4.53a27.888 27.888 0 0 1 2.07-4.424 12.45 12.45 0 0 1 3.319-3.834 7.474 7.474 0 0 1 3.184-1.36 8.393 8.393 0 0 1 3.453.186c.545.186 1.077.408 1.592.666l1.428.695c.949.463 1.898.911 2.855 1.352a58.067 58.067 0 0 0 11.824 4.149c2.203.511 4.47.698 6.727.553a13.81 13.81 0 0 0 3.229-.628c.53-.202 1.061-.381 1.584-.59a8.682 8.682 0 0 0 1.495-.748 19.43 19.43 0 0 0 5.314-4.051 19.828 19.828 0 0 0 3.581-5.666 22.68 22.68 0 0 0 1.24-3.968 17.01 17.01 0 0 0 .434-4.104v-1.031l-.157-1.069-.075-.508-.119-.501-.285-1.017a17.425 17.425 0 0 0-1.674-3.737 19.627 19.627 0 0 0-9.417-8.05l-1.495-.538-1.495-.388c-.516-.112-1.046-.187-1.57-.277a14.043 14.043 0 0 0-1.577-.224 28.271 28.271 0 0 0-3.176-.18h-1.585l-1.584.128c-6.57.62-12.654 3.333-17.976 7.033-.576.426-1.151.837-1.727 1.256l-1.674 1.345c-1.039.837-1.861 1.592-2.578 2.182-.718.59-1.249 1.136-1.734 1.495a8.543 8.543 0 0 1-2.131 1.495c-.24.128-.49.238-.747.329-.314.067-.15-.359.433-1.18.292-.404.681-.92 1.189-1.496.508-.575 1.143-1.218 1.854-1.936a46.943 46.943 0 0 1 15.419-10.097 34.297 34.297 0 0 1 19.014-1.847 21.203 21.203 0 0 1 12.512 7.475 19.535 19.535 0 0 1 3.528 6.54c.749 2.417.948 4.97.583 7.474l-.104-.037Z" fill="#1B1F3B"/><path d="M235.997 67.748a44.744 44.744 0 0 1-.358-7.019c.101-2.359.459-4.7 1.068-6.98a29.027 29.027 0 0 1 1.727-4.867 29.632 29.632 0 0 1 2.309-3.923 29.17 29.17 0 0 1 2.99-3.454 16.687 16.687 0 0 1 7.96-4.417 19.157 19.157 0 0 1 8.035 0c1.683.339 3.324.857 4.896 1.547.779.35 1.529.763 2.242 1.233a9.843 9.843 0 0 1 2.018 1.637c.374.411.449.695.336.748-.112.052-.396 0-.837-.172a30.47 30.47 0 0 1-4.043-1.495 20.832 20.832 0 0 0-9.283-2.138 14.591 14.591 0 0 0-8.835 3.102 19.76 19.76 0 0 0-4.058 4.38 25.92 25.92 0 0 0-2.818 5.397 28.904 28.904 0 0 0-1.667 6.495 32.26 32.26 0 0 0-.179 6.727c.165 2.79.601 5.56 1.3 8.266a28.337 28.337 0 0 0 2.242 5.89 18.73 18.73 0 0 0 3.738 4.97 12.309 12.309 0 0 0 3.924 2.564 7.299 7.299 0 0 0 4.424.269 5.82 5.82 0 0 0 .927-.299l.456-.187.449-.224c.77-.43 1.519-.9 2.242-1.405.37-.242.784-.41 1.218-.493.147-.043.297-.075.449-.098.194 0 .142.225-.09.748a5.469 5.469 0 0 1-1.577 1.779 9.717 9.717 0 0 1-4.38 2.033 9.113 9.113 0 0 1-5.023-.59 13.894 13.894 0 0 1-4.148-2.751 20.475 20.475 0 0 1-3.162-3.737 26.281 26.281 0 0 1-2.997-6.526 40.94 40.94 0 0 1-1.495-6.958v-.052ZM248.069 181.686a43.898 43.898 0 0 1-7.146 3.67 15.343 15.343 0 0 1-8.289 1.106 8.083 8.083 0 0 1-4.014-1.943 9.174 9.174 0 0 1-2.406-3.678 18.178 18.178 0 0 1-.748-8.221 59.658 59.658 0 0 1 2.482-11.339 98.903 98.903 0 0 1 8.184-18.566 76.677 76.677 0 0 1 5.576-8.513 48.479 48.479 0 0 1 7.026-7.407c4.581-3.902 9.955-7.176 15.942-8.446 3.87-.86 7.9-.664 11.668.568a20.834 20.834 0 0 1 5.291 2.586 27.213 27.213 0 0 1 2.332 1.764c.382.306.711.665 1.062 1.001.351.337.695.673 1.016 1.032 1.645 1.764 1.144 1.749-.553.65a62.952 62.952 0 0 0-8.633-4.484 20.225 20.225 0 0 0-10.673-1.166 29.15 29.15 0 0 0-10.292 3.916 45.271 45.271 0 0 0-8.872 6.981 54.908 54.908 0 0 0-7.085 8.969 85.12 85.12 0 0 0-6.615 12.423 90.336 90.336 0 0 0-4.672 13.453 53.367 53.367 0 0 0-1.353 7.602 14.766 14.766 0 0 0 1.01 7.294 6.58 6.58 0 0 0 2.204 2.669 6.796 6.796 0 0 0 3.319 1.098c2.51.102 5.006-.411 7.272-1.494a55.695 55.695 0 0 0 8.357-4.724 74.618 74.618 0 0 0 7.609-5.867 250.516 250.516 0 0 0 20.621-20.779c2.526-2.803 4.985-5.628 7.429-8.446a192.915 192.915 0 0 1 3.738-4.215 61.313 61.313 0 0 1 1.935-2.078 9.493 9.493 0 0 1 1.174-1.039c.236-.152.486-.28.747-.381.232-.097.456-.195.688-.277a18.429 18.429 0 0 1 5.03-1.106 13.33 13.33 0 0 1 6.772 1.076 7.17 7.17 0 0 1 1.562 1.009c.31.288.582.614.807.972.167.271.305.559.411.859.068.344-.388.113-1.293-.403a13.026 13.026 0 0 0-4.484-1.495 16.99 16.99 0 0 0-4.724.075 16.68 16.68 0 0 0-2.325.53c-.379.108-.754.236-1.121.382a4.303 4.303 0 0 0-.545.224l-.269.119h-.068c-.089-.194.187.426-.209-.426l.037.083.135.314v.044c-.113.086-.22.178-.321.277-.135.112-.284.269-.426.404-.284.284-.568.597-.86.896-.568.628-1.144 1.256-1.712 1.891l-3.43 3.887c-4.582 5.232-9.291 10.531-14.201 15.696-3.64 3.819-7.363 7.579-11.294 11.159-1.966 1.786-3.984 3.535-6.092 5.187a64.915 64.915 0 0 1-6.607 4.589l-.104.038Z" fill="#1B1F3B"/><path d="M284.354 130.614c-1.539 1.255-3.049 2.817-4.581 4.275l-4.59 4.432c-1.128 1.069-2.242 2.183-3.356 3.236-4.028 3.738-8.162 7.34-12.512 10.704-1.935 1.494-3.894 2.989-5.934 4.312a30.923 30.923 0 0 1-4.133 2.332 8.33 8.33 0 0 1-4.844.875c-1.091-.269-.747-.553.067-.845.23-.093.454-.198.673-.314l.389-.179.418-.239c.144-.082.294-.152.449-.21a4.79 4.79 0 0 1 .478-.246l1.069-.486a29.737 29.737 0 0 0 3.961-2.145 67.05 67.05 0 0 0 3.85-2.586c2.526-1.809 4.992-3.737 7.474-5.748 2.945-2.377 5.77-5.142 8.588-7.811 3.102-2.937 6.144-5.934 9.231-8.924a22.52 22.52 0 0 1 6.592-4.694 14.838 14.838 0 0 1 6.054-1.323c2.062.003 4.109.354 6.054 1.039a17.2 17.2 0 0 1 7.766 5.329c.442.547.849 1.121 1.218 1.719.281.482.531.981.748 1.495.126.358.223.726.291 1.099.109.441.069.906-.112 1.323a2.998 2.998 0 0 1-.172.419c-.104.156-.291 0-.598-.367a6.33 6.33 0 0 1-.486-.747c-.186-.292-.396-.621-.597-1.002a15.746 15.746 0 0 0-12.505-8.334 13.13 13.13 0 0 0-5.763.636 16.772 16.772 0 0 0-5.149 2.99l-.038-.015Z" fill="#1B1F3B"/><path d="M274.875 150.57a16.183 16.183 0 0 1-.658-1.36 45.972 45.972 0 0 1-.591-1.39c-.142-.329-.314-.651-.426-1.002a20.388 20.388 0 0 1-.874-3.737c0-.292-.075-.568-.127-.852l-.082-.867a3.898 3.898 0 0 1 .313-2.243c.105-.216.449-.037.748.247a1.401 1.401 0 0 1 .575.942c-.01 1.284.111 2.567.359 3.827.078.409.196.809.351 1.196.157.388.359.747.516 1.158.157.411.396.845.583 1.271l.658 1.24c.306.486.568 1.002.912 1.495.254.352.493.748.747 1.054.254.349.542.672.86.964a3.5 3.5 0 0 0 .747.598c.267.169.544.322.83.456.123.05.243.107.359.172.418.195.47.374.373.949 0 .127-.037.262-.067.389a.744.744 0 0 1-.655.587.752.752 0 0 1-.309-.034 6.73 6.73 0 0 1-3.543-2.384 10.1 10.1 0 0 1-.912-1.263 15.967 15.967 0 0 1-.8-1.316l.113-.097ZM288.083 266.295c-1.27-4.41-2.631-8.798-3.774-13.252-.583-2.243-1.211-4.433-1.757-6.66l-1.622-6.727c-.418-1.622-.747-3.273-1.121-4.903-.374-1.629-.747-3.266-1.061-4.918-1.099-5.807-2.093-11.645-2.736-17.527a134.047 134.047 0 0 1-.814-17.737c0-1.308-.001-2.593.097-3.953.097-1.361.261-2.654.471-3.954a90.221 90.221 0 0 1 1.651-7.706 118.91 118.91 0 0 1 6.533-18.992c.919-1.891 1.136-1.451.747.291a79.837 79.837 0 0 1-2.391 8.491 161.472 161.472 0 0 0-2.938 9.716 88.743 88.743 0 0 0-2.115 9.836 40.343 40.343 0 0 0-.262 2.467l-.059 1.218v1.278c0 1.719-.068 3.409-.053 5.105 0 3.386.15 6.78.434 10.18a188.439 188.439 0 0 0 3.961 24.71c.934 4.485 2.078 8.969 3.169 13.454l1.801 6.674.905 3.334.979 3.319c.807 2.72 1.592 5.448 2.422 8.161l2.593 8.11.987 3.072 1.039 3.057 2.115 6.084c1.36 4.081 2.885 8.095 4.35 12.101l1.742 4.641.523 1.398-.613 1.375c-.177.39-.379.767-.606 1.129a8.981 8.981 0 0 1-.68 1.076 24.856 24.856 0 0 1-7.399 6.817 32.512 32.512 0 0 1-3.909 2.07 24.62 24.62 0 0 1-5.591 1.779c-.872.19-1.774.19-2.646 0a5.792 5.792 0 0 1-.867-.247c-.277-.157.12-.396 1.046-.672.464-.127 1.047-.344 1.757-.538.71-.195 1.495-.464 2.422-.808a33.103 33.103 0 0 0 7.683-3.879 22.357 22.357 0 0 0 6.136-5.979c.381-.592.721-1.208 1.017-1.846.202-.441.164-.352.164-.374l-.082-.239-.202-.538-1.614-4.343-3.199-8.745-4.485-13.147c-1.39-4.417-2.847-8.827-4.193-13.259h.045ZM261.1 282.738l-1.435-3.857c-.471-1.286-.905-2.586-1.353-3.879l-1.345-3.887-1.264-3.909c-.612-1.898-1.315-3.774-1.876-5.688-2.07-6.727-3.909-13.521-5.702-20.315-.8-2.99-1.607-6.047-2.407-9.036-.508-1.929-.994-3.865-1.495-5.793-.501-1.928-.747-3.916-1.054-5.897-.172-1.226.15-1.129.748-.187a24.158 24.158 0 0 1 2.242 4.873c2.182 7.796 4.058 15.651 6.076 23.567a188.798 188.798 0 0 0 2.026 7.145c.732 2.392 1.495 4.791 2.242 7.175.86 2.601 1.682 5.232 2.556 7.826a329.727 329.727 0 0 0 2.714 7.773c1.195 3.154 2.302 6.353 3.617 9.463.979 2.362 1.899 4.753 2.99 7.07 1.091 2.317 2.055 4.687 3.259 6.914.911 1.749 1.808 3.483 2.765 5.172.957 1.689 2.041 3.304 2.99 4.993.418.747.897 1.435 1.368 2.153a29.235 29.235 0 0 1 1.741 2.907c.237.486.383 1.01.434 1.547a3.62 3.62 0 0 1 0 .531c0 .209-.269.075-.71-.329a13.19 13.19 0 0 1-1.802-2.033c-1.054-1.42-2.182-2.825-3.124-4.365-.942-1.54-1.906-3.094-2.855-4.671-.949-1.577-1.719-3.259-2.579-4.903-.418-.83-.867-1.645-1.263-2.489l-1.173-2.534-1.734-3.737c-.576-1.256-1.077-2.549-1.615-3.827l-1.592-3.842c-.516-1.285-.994-2.579-1.495-3.872l.105-.059Z" fill="#1B1F3B"/><path d="M224.933 277.67c1.002-7.915 2.138-15.8 3.319-23.671.441-2.877.814-5.755 1.27-8.618 1.6-10.12 3.401-20.18 5.188-30.271.747-4.484 1.562-8.969 2.332-13.408 1.038-5.696 2.062-11.414 3.408-17.057.456-1.764.65-1.457.598.09a65.038 65.038 0 0 1-.748 7.654l-1.367 8.745a586.58 586.58 0 0 1-1.495 8.744c-.997 5.83-2.006 11.675-3.027 17.535-1.226 7.011-2.243 14.358-3.334 21.556-1.181 7.923-2.324 15.853-3.341 23.798-.628 4.888-1.218 9.784-1.712 14.68-.373 3.737-.747 7.429-.971 11.144a110.49 110.49 0 0 0-.292 11.099c0 .747.082 1.42.135 2.123v.314c0 .097 0 .216.112.239.112.022.284.134.658.306 1.293.53 2.615.985 3.961 1.361a44.054 44.054 0 0 0 8.222 1.494c.613.045 1.211.053 1.816.075.605.023 1.196 0 1.809 0s1.069-.09 1.539-.119a9.69 9.69 0 0 0 1.271-.165l1.054-.157.837-.179a10.283 10.283 0 0 1 2.183-.262c.25.001.499.018.747.052.299.083.06.397-.688.912-.187.127-.403.262-.65.411-.247.15-.553.255-.867.389l-1.046.404c-.389.112-.8.209-1.241.314a26.77 26.77 0 0 1-8.027.426 38.74 38.74 0 0 1-7.99-1.555 37.278 37.278 0 0 1-3.924-1.413l-.269-.127a4.678 4.678 0 0 1-.441-.209l-.86-.471-.217-.119c-.075-.038-.037-.15-.06-.217l-.052-.486-.075-.972c-.044-.702-.127-1.397-.134-2.078l-.052-2.062v-2.048c0-1.368.074-2.721.119-4.089.374-8.065 1.248-16.092 2.242-24.082l.06-.03Z" fill="#1B1F3B"/><path d="m253.452 288.889-.942 6.271c-.105.747-.179 1.539-.306 2.302l-1.346 8.065c-.202 1.195-.366 2.399-.545 3.595-.12.747-.21 1.539-.382 2.302-.18.773-.443 1.525-.784 2.242-.284.478-.434.247-.531-.209a6.918 6.918 0 0 1-.172-2.078c.448-3.035.882-6.151 1.442-9.268.344-1.861.486-3.834.748-5.755.276-2.116.59-4.223.889-6.339l.561-3.901c.299-1.966.598-3.947.889-5.905.232-1.495.374-3.027.71-4.529.075-.329.135-.658.225-.994.089-.337.172-.561.254-.748.077-.174.17-.342.276-.5a1.1 1.1 0 0 1 .538-.456c.077-.036.157-.063.24-.083.216 0 .172.494.112 1.383-.195 1.301-.254 2.683-.396 4.074-.142 1.39-.284 2.802-.509 4.208-.299 2.107-.6 4.215-.904 6.323h-.067ZM264.254 194.997c-1.054 0-2.107 0-3.154-.127l-1.569-.127-1.563-.224-1.136-.142c-.373-.068-.747-.135-1.121-.217a41.857 41.857 0 0 1-7.661-2.459c-1.084-.478-2.197-.89-3.251-1.413a18.936 18.936 0 0 1-3.909-2.279c-.374-.284-.135-.539.388-.643a3.365 3.365 0 0 1 2.078.291c.651.352 1.346.613 2.018.92.673.306 1.323.672 2.011.934l2.04.882c.703.254 1.398.523 2.093.807.854.309 1.728.558 2.616.748.897.209 1.816.313 2.721.493.904.179 1.995.276 2.99.403l1.494.105c.497.048.996.071 1.495.067h1.869l1.868-.104c.942-.068 1.884-.195 2.818-.314a26.338 26.338 0 0 0 2.766-.583c.699-.18 1.388-.4 2.063-.658.68-.254 1.337-.516 1.995-.807.292-.12.568-.247.867-.351 1.084-.456 1.495-.494 1.899-.217.099.057.194.122.284.194.254.239-.075.695-.837 1.211a20.563 20.563 0 0 1-7.841 2.99c-1.046.224-2.108.321-3.169.456-1.061.134-2.13.149-3.192.172l.03-.008ZM233.798 316.566s-1.891 17.669 0 20.024c1.891 2.354 25.592 6.121 26.287 3.543 1.091-4.014-20.181-7.318-21.803-7.078-1.621.239.942-16.519.942-16.519l-5.426.03ZM289.514 319.399s5.651 17.191 9.194 15.539c3.542-1.652 16.757-15.27 16.047-18.372-.71-3.101-10.621 4.141-15.337 12.198 0 0-5.023-6.031-5.584-12.198l-4.32 2.833ZM176.545 112.055a8.394 8.394 0 0 0 5.336-2.055 14.572 14.572 0 0 0 3.625-4.956 29.32 29.32 0 0 0 1.63-4.38 55.707 55.707 0 0 0 1.816-8.184c.433-2.78.71-5.598.889-8.416.15-2.504.217-5.03.24-7.527.037-3.206-.098-6.428.097-9.649.082-1.009.276-.867.545 0a16 16 0 0 1 .748 4.245c.149 3.29.246 6.585.202 9.896a92.76 92.76 0 0 1-.808 9.934 64.015 64.015 0 0 1-2.511 12.033 23.5 23.5 0 0 1-3.109 6.144 11.824 11.824 0 0 1-5.561 4.32 13.003 13.003 0 0 1-8.528-.344 21.563 21.563 0 0 1-5.621-3.056 29.231 29.231 0 0 1-4.649-4.306 32.138 32.138 0 0 1-5.299-8.124 29.06 29.06 0 0 1-.815-1.988c-.837-2.564-.747-3.476-.366-4.111a2.22 2.22 0 0 1 .284-.426c.179-.157.396 0 .635.44.141.266.264.54.366.823.135.329.284.747.426 1.158a31.55 31.55 0 0 0 9.284 13.805 22.435 22.435 0 0 0 5.232 3.379 13.347 13.347 0 0 0 5.882 1.293l.03.052Z" fill="#1B1F3B"/><path d="m142.443 86.583-.478-.688-.381-.747a7.416 7.416 0 0 1-.621-1.495 10.612 10.612 0 0 1-.448-3.206 8.478 8.478 0 0 1 .314-2.392 5.73 5.73 0 0 1 2.735-3.394 6.032 6.032 0 0 1 4.163-.478c1.133.264 2.232.657 3.274 1.174.655.32 1.287.684 1.891 1.09a9.442 9.442 0 0 1 1.592 1.496c.284.351 0 .538-.486.56a4.24 4.24 0 0 1-1.935-.41 20.318 20.318 0 0 0-3.536-1.683 6.122 6.122 0 0 0-3.431-.298 2.802 2.802 0 0 0-1.614 1.143 5.263 5.263 0 0 0-.747 2.033 8.004 8.004 0 0 0 .747 5.038 7.48 7.48 0 0 0 2.055 2.489 10.214 10.214 0 0 0 4.679 1.876c1.326.157 2.666.157 3.992 0a8.4 8.4 0 0 1 .874-.09c.396-.04.795-.013 1.181.082.238.101.439.274.576.494.069.09.131.184.186.284.075.157 0 .314-.194.493a2.006 2.006 0 0 1-.919.5 13.5 13.5 0 0 1-3.917.457 14.942 14.942 0 0 1-4.155-.613 13.464 13.464 0 0 1-1.518-.59 11.64 11.64 0 0 1-1.457-.808 9.632 9.632 0 0 1-2.474-2.295l.052-.022Z" fill="#1B1F3B"/><path d="M160.939 58.36a20.323 20.323 0 0 1 8.095-3.468c.523-.105 1.054-.187 1.577-.284.523-.097 1.054-.12 1.584-.172 3.76-.187 7.502.618 10.853 2.332a43.364 43.364 0 0 1 4.193 2.489c.852.568 1.712 1.136 2.519 1.749.813.606 1.589 1.26 2.324 1.958.449.441.172.703-.515.748a4.777 4.777 0 0 1-2.766-.748c-1.719-1.15-3.326-2.37-5.03-3.37a25.886 25.886 0 0 0-5.322-2.475 17.551 17.551 0 0 0-7.212-.493 20.779 20.779 0 0 0-5.83 1.517c-.612.271-1.208.576-1.787.912a14.954 14.954 0 0 0-3.834 3.095 18.626 18.626 0 0 0-3.633 6.607 23.153 23.153 0 0 0-.814 5.77v1.285a7.596 7.596 0 0 1-.217 1.712c-.1.294-.281.553-.523.748a2.346 2.346 0 0 1-.269.231c-.15.075-.284-.052-.434-.351a3.746 3.746 0 0 1-.381-1.39 22.143 22.143 0 0 1 1.839-11.354 20.084 20.084 0 0 1 2.317-3.849 16.3 16.3 0 0 1 3.244-3.214l.022.015Z" fill="#1B1F3B"/><path d="M184.609 27.252c2.254.178 4.464.715 6.548 1.592a28.783 28.783 0 0 1 9.298 6.54 19.733 19.733 0 0 1 4.298 7.333c.434 1.378.658 2.814.665 4.26a14.212 14.212 0 0 1-.643 4.215 20.523 20.523 0 0 1-1.36 3.476 21.333 21.333 0 0 1-1.906 3.176 17.006 17.006 0 0 1-3.252 3.468 9.84 9.84 0 0 1-4.305 2.056c-.994.164-.867-.09-.179-.576.687-.486 1.794-1.405 3.042-2.444a19.258 19.258 0 0 0 5.165-7.033 17.842 17.842 0 0 0 1.255-4.186 14.12 14.12 0 0 0 0-4.275 13.189 13.189 0 0 0-1.973-4.955A24.514 24.514 0 0 0 187.136 29.8a19.438 19.438 0 0 0-7.475-.18 27.847 27.847 0 0 0-10.643 4.343 39.1 39.1 0 0 0-6.727 5.815c-.448.47-.874.942-1.315 1.428-1.63 1.794-2.13 2.347-2.848 2.489a2.51 2.51 0 0 1-.471.112c-.433 0-.179-1.084.897-2.624a35.26 35.26 0 0 1 2.624-3.303 39.125 39.125 0 0 1 3.116-2.99 36.577 36.577 0 0 1 7.34-4.88 25.476 25.476 0 0 1 13.043-2.834l-.068.075ZM133.68 46.97a15.492 15.492 0 0 0-3.438 7.944 15.13 15.13 0 0 0 .045 3.185 21.855 21.855 0 0 0 4.536 10.553 25.66 25.66 0 0 0 3.603 3.812 23.68 23.68 0 0 0 2.668 2.003c.464.292.92.576 1.383.852.421.267.883.461 1.368.576h.164l.097.037a.244.244 0 0 1 .135.142.272.272 0 0 1 .025.116c0 .04-.008.08-.025.116a.788.788 0 0 1-.351.291 4.18 4.18 0 0 1-3.416-.306 23.235 23.235 0 0 1-5.703-4.634 25.41 25.41 0 0 1-4.133-6.047 21.168 21.168 0 0 1-2.489-8.685 17.248 17.248 0 0 1 2.721-9.507 16.07 16.07 0 0 1 4.148-4.485 15.315 15.315 0 0 1 4.096-2.108 22.167 22.167 0 0 1 4.424-1.053 21.097 21.097 0 0 1 6.989.15c.516.089 1.009.223 1.495.358a6.073 6.073 0 0 1 1.861.882c.27.229.469.53.575.867.05.115.088.235.112.359 0 .164-.179.216-.538.216a5.61 5.61 0 0 1-1.532-.224 20.741 20.741 0 0 0-11.578-.06c-.709.208-1.405.458-2.085.748a13.03 13.03 0 0 0-1.913 1.046A13.518 13.518 0 0 0 133.717 47l-.037-.03ZM145.361 171.424a46.04 46.04 0 0 1-5.733 3.67 15.794 15.794 0 0 1-3.289 1.33c-.582.127-1.151.306-1.748.381l-.905.105c-.302.045-.607.06-.912.045a9.07 9.07 0 0 1-1.846-.15c-.306-.06-.62-.089-.919-.179l-.897-.307a4.464 4.464 0 0 1-.86-.396 7.968 7.968 0 0 1-.822-.471 9.37 9.37 0 0 1-1.442-1.21 12.322 12.322 0 0 1-3.14-6.421 23.247 23.247 0 0 1 .426-10.03 36.333 36.333 0 0 1 3.199-8.14 54.54 54.54 0 0 1 4.762-7.242 82.023 82.023 0 0 1 5.702-6.443c2.018-2.041 4.134-3.962 6.301-5.823.964-.822 1.936-1.637 2.93-2.429.479-.411 1.009-.747 1.532-1.158l1.577-1.129 1.69-.964.852-.479c.291-.134.59-.254.889-.381.598-.254 1.189-.523 1.794-.747l1.861-.553a21.768 21.768 0 0 1 9.911-.314c1.629.319 3.209.849 4.701 1.577a15.455 15.455 0 0 1 4.134 2.833 8 8 0 0 1 .456.515c.092.144.175.294.246.449.105.239.112.359.038.381-.075.022-.225-.052-.434-.187-.209-.134-.217-.157-.359-.246l-.501-.284a27.798 27.798 0 0 0-7.668-2.654 20.758 20.758 0 0 0-9.096-.082 22.715 22.715 0 0 0-8.386 3.737 47.235 47.235 0 0 0-3.797 2.93 113.792 113.792 0 0 0-3.693 3.177 86.811 86.811 0 0 0-6.884 6.883 49.25 49.25 0 0 0-6.801 9.62 31.978 31.978 0 0 0-3.595 11.144c-.275 2.1-.184 4.232.269 6.301a9.88 9.88 0 0 0 2.945 5.232l.59.456c.202.138.415.26.635.366a6.85 6.85 0 0 0 1.376.56c.246.066.495.116.747.15.246.053.496.088.748.105.51.041 1.022.041 1.532 0a8.365 8.365 0 0 0 1.54-.24 10.903 10.903 0 0 0 1.494-.411 18.668 18.668 0 0 0 2.893-1.345 58.203 58.203 0 0 0 6.652-4.589c2.138-1.675 4.208-3.446 6.241-5.232 6.151-5.509 12.041-11.376 17.699-17.326 2.526-2.653 4.926-5.314 7.4-7.967a3.18 3.18 0 0 1 .5-.404l.449-.306c.291-.195.59-.374.889-.553a30.947 30.947 0 0 1 1.824-1.002 31.119 31.119 0 0 1 3.827-1.652 22.912 22.912 0 0 1 4.178-1.076 11.308 11.308 0 0 1 5.837.471 4.532 4.532 0 0 1 2.123 1.599c.158.223.293.461.404.71.119.673-1.555-.747-5.045-.956a18.265 18.265 0 0 0-7.071 1.308c-1.172.43-2.318.929-3.431 1.495a45.89 45.89 0 0 0-1.659.911l-.792.494-.367.254a1.375 1.375 0 0 0-.209.157l-6.63 7.085a457.703 457.703 0 0 1-6.876 7.101 276.591 276.591 0 0 1-9.649 9.313 132.722 132.722 0 0 1-10.33 8.685l-.007-.052Z" fill="#1B1F3B"/><path d="M174.161 129.433a59.087 59.087 0 0 0-8.087 6.578c-.927.882-1.801 1.831-2.721 2.743-3.251 3.206-6.562 6.405-10.097 9.357-1.577 1.301-3.169 2.616-4.866 3.738a19.2 19.2 0 0 1-3.483 1.98 7.36 7.36 0 0 1-4.133.621c-.912-.247-.576-.598.104-.89.68-.291 1.652-.807 2.878-1.36a32.146 32.146 0 0 0 6.368-3.991c2.048-1.57 4.036-3.282 6.024-5.016 2.384-2.085 4.612-4.484 6.914-6.831a84.29 84.29 0 0 1 3.931-3.737c1.338-1.204 2.706-2.392 4.171-3.483a24.859 24.859 0 0 1 5.882-3.364c.396-.164.815-.276 1.226-.418a9.434 9.434 0 0 1 1.263-.314c.837-.165 1.674-.322 2.526-.411a20.333 20.333 0 0 1 5.135 0 16.71 16.71 0 0 1 7.362 2.855c.486.317.955.659 1.406 1.024 1.636 1.42 1.92 2.093 1.913 2.728.016.144.016.289 0 .433-.12.397-.919 0-2.13-.911a23.188 23.188 0 0 0-5.606-3.394 14.952 14.952 0 0 0-6.45-.956c-.837 0-1.674.157-2.512.276l-1.255.239c-.411.097-.8.187-1.196.307a18.179 18.179 0 0 0-4.485 2.167l-.082.03Z" fill="#1B1F3B"/><path d="M161.527 147.55c.256.417.546.812.867 1.181.119.135.284.225.403.367.441.492.908.961 1.398 1.405.228.186.479.342.747.463.362.115.694.309.972.568.172.202-.673 1.361-1.151 1.211a5.322 5.322 0 0 1-2.123-1.36 15.026 15.026 0 0 0-1.188-.994 11.82 11.82 0 0 1-1.159-1.271 14.08 14.08 0 0 1-.62-.86 15.405 15.405 0 0 1-.822-1.412 6.013 6.013 0 0 1-.65-1.144 1.799 1.799 0 0 1-.098-.284c-.044-.373.083-.515.546-.613l.314-.067a1.058 1.058 0 0 1 .837.209c.233.203.446.429.635.673.135.232.269.478.404.747.222.404.471.791.747 1.159l-.059.022ZM187.119 179.533a12.19 12.19 0 0 0 2.422 1.495c.375.164.77.282 1.174.351.28.049.569.013.829-.104.281-.18.5-.441.628-.748.124-.191.229-.394.314-.605.103-.214.193-.433.269-.658.327-.936.56-1.903.695-2.885a37.98 37.98 0 0 0 .284-4.485 82.33 82.33 0 0 0-1.495-15.98c-.441-2.347-1.046-4.671-1.704-6.936a41.28 41.28 0 0 0-1.495-4.297 15.675 15.675 0 0 0-2.033-3.902c-.553-.553-.418-.8.449-.456a7.086 7.086 0 0 1 2.735 3.266 41.934 41.934 0 0 1 1.757 4.485 44.32 44.32 0 0 1 1.293 4.582 76.252 76.252 0 0 1 1.659 9.38c.5 3.873.71 7.778.628 11.682a23.698 23.698 0 0 1-1.136 6.488l-.336.8a8.97 8.97 0 0 1-.419.747 3.05 3.05 0 0 1-1.577 1.383 3.683 3.683 0 0 1-1.996.112 7.376 7.376 0 0 1-1.674-.591 16.816 16.816 0 0 1-3.378-2.309 21.228 21.228 0 0 1-2.818-2.893 56.42 56.42 0 0 1-5.98-10.359 62.588 62.588 0 0 1-3.236-8.573c-.179-.65-.381-1.286-.523-1.951-.523-2.474-.396-3.311 0-3.901.079-.139.172-.269.276-.389.337-.284.748.68 1.226 2.407a66.693 66.693 0 0 0 5.86 15.262 52.75 52.75 0 0 0 3.259 5.232c.306.411.605.867.889 1.203.284.337.643.748.994 1.092.7.713 1.449 1.374 2.243 1.98l-.083.075ZM125.68 293.523c.344-9.933 1.196-19.807 2.183-29.658.366-3.587.702-7.19 1.121-10.77 1.495-12.639 3.274-25.233 5.232-37.797.867-5.576 1.764-11.212 2.751-16.698.62-3.543 1.263-7.086 1.988-10.621a93.431 93.431 0 0 1 2.631-10.516c.403-1.069.687-1.495.747-1.428a6.005 6.005 0 0 1-.254 1.54c-.351 1.951-.964 5.344-1.682 9.358-1.383 7.19-2.444 14.447-3.558 21.675a2278.503 2278.503 0 0 0-3.258 21.862c-1.256 8.753-2.28 17.939-3.229 26.908-.523 4.948-1.017 9.896-1.428 14.851-.411 4.956-.792 9.918-1.046 14.881-.157 3.05-.269 6.107-.314 9.164-.045 1.495 0 3.049 0 4.574s.052 3.05.172 4.559c.075 1.151.149 2.302.306 3.431l.068.605v.113c0 .037 0 .082.052.082l.217.075.62.149.837.157c2.27.37 4.558.619 6.854.747 2.287.146 4.582.146 6.869 0a19.155 19.155 0 0 0 3.318-.5c.127-.038.269-.06.397-.105l.291-.112.217-.082c.052 0 .06-.053.067-.097v-.128c.075-.254.157-.941.232-1.494.426-3.521.643-7.071.889-10.591.247-3.521.464-7.049.748-10.584.134-1.555.231-3.087.418-4.649.665-5.815 1.233-7.669 1.981-8.79a5.34 5.34 0 0 1 .508-.747c.486-.419.09 1.853-.276 6.076-.531 6.271-.965 12.744-1.428 19.321-.247 3.297-.478 6.6-.86 9.971l-.186 1.301v.179l-.068.284-.127.576c-.127.351 0 .867-.56.911l-1.136.434c-.222.08-.45.145-.681.194a13.39 13.39 0 0 1-1.345.284 33.562 33.562 0 0 1-5.232.381 67.62 67.62 0 0 1-7.609-.381 48.414 48.414 0 0 1-3.812-.515c-.321-.068-.635-.105-.971-.195l-.299-.067a4.448 4.448 0 0 1-.441-.112l-.867-.292c-.142-.052-.299-.089-.426-.149l-.075-.449c-.052-.299-.09-.598-.127-.897l-.112-1.038a115.449 115.449 0 0 1-.359-15.143l.052-.038Z" fill="#1B1F3B"/><path d="M179.459 267.393a305.595 305.595 0 0 0 7.886 35.002l.299 1.032.202.695.052.172v.157l-.307.194-1.143.748c-.232.157-.478.291-.748.441-.956.59-1.95 1.113-2.952 1.614a26.612 26.612 0 0 1-6.42 2.242 18.72 18.72 0 0 1-6.062.187c-.501-.052-1.001-.187-1.495-.284-.246-.045-.486-.134-.747-.202l-.479-.142c-.194-.06-.403-.112-.59-.179l-.792-1.652c-.217-.448-.441-.897-.613-1.345-1.54-3.595-2.803-7.243-4.104-10.89-2.533-7.303-4.85-14.68-7.033-22.087-1.913-6.585-3.827-13.207-5.464-19.814-1.068-4.245-2.062-8.513-2.922-12.818-.411-2.153-.747-4.328-1.091-6.496a62.415 62.415 0 0 1-.561-6.577c-.09-2.758.284-2.362.748-.082.119.568.239 1.248.366 2.033.127.785.344 1.667.538 2.631.329 1.928.845 4.178 1.278 6.637 1.637 8.707 3.902 17.318 6.293 25.898 2.392 8.581 5.023 17.124 7.833 25.644 1.682 5.09 3.528 10.263 5.673 15.278.255.643.576 1.218.86 1.831l.149.314.038.075h.082l.748.224c1.276.295 2.584.43 3.894.404a21.188 21.188 0 0 0 7.706-1.794 33.042 33.042 0 0 0 3.939-2.003c.321-.195.642-.374.949-.576l.217-.134c.037-.045.149-.053.127-.12l-.479-1.667c-.859-2.907-1.637-5.845-2.392-8.775a313.859 313.859 0 0 1-3.953-17.751c-1.421-7.325-2.587-14.694-3.573-22.079-1.495-11.211-2.526-22.483-3.334-33.634-.575-8.7-.964-17.236-.844-25.861.045-1.899.089-3.737.194-5.673a73.16 73.16 0 0 1 .747-7.519c.138-1.125.427-2.227.86-3.274.15-.329.306-.747.426-.949.449-.613.209 2.242-.06 7.392a363.961 363.961 0 0 0 1.495 47.596c1.076 12.011 2.497 24.045 4.485 35.944l.074-.008Z" fill="#1B1F3B"/><path d="M160.752 192.89c-.965.037-1.936 0-2.893 0-.957 0-1.928-.105-2.878-.255-.695-.112-1.397-.164-2.085-.284l-1.794-.463-.897-.239-.867-.314-1.726-.643c-.561-.254-1.106-.531-1.659-.792-1.002-.426-1.944-.972-2.886-1.495l-.919-.478c-.299-.18-.575-.389-.852-.591a17.85 17.85 0 0 1-1.614-1.3c-.314-.292-.075-.501.411-.561a3.226 3.226 0 0 1 1.898.366c1.151.688 2.355 1.263 3.506 1.936l1.816.845c.306.142.598.306.912.433l.934.374c.749.336 1.534.587 2.339.747.815.165 1.622.382 2.445.471.9.154 1.808.258 2.72.314l1.368.09h1.368c.566.009 1.133-.016 1.696-.075.561-.06 1.129-.09 1.682-.172 1.702-.23 3.379-.62 5.008-1.166a27.917 27.917 0 0 0 3.558-1.629c.254-.127.485-.292.747-.404.964-.441 1.293-.538 1.719-.291.099.044.194.097.284.157.262.202 0 .665-.628 1.233a14.647 14.647 0 0 1-3.236 2.018 23.94 23.94 0 0 1-3.7 1.271l-1.42.343-1.442.247c-.957.194-1.944.224-2.908.336l-.007-.029ZM152.389 333.601c1.159.298 2.31.62 3.461.979l.867.276.964.329c.975.318 1.919.726 2.818 1.218a2.796 2.796 0 0 1 1.301 1.435c.053.144.081.296.082.449.001.175-.043.347-.127.501a1.91 1.91 0 0 1-.553.642 5.314 5.314 0 0 1-2.243.748c-.493.067-.994.134-1.495.164-.246 0-.56.045-.747.045h-.456c-1.771.052-3.513.075-5.232 0a78.297 78.297 0 0 1-6.338-.605 43.062 43.062 0 0 1-3.162-.553 18.79 18.79 0 0 1-1.599-.411c-.277-.09-.546-.18-.83-.299a4.08 4.08 0 0 1-.949-.561 6.335 6.335 0 0 1-.344-.433c-.105-.15-.172-.344-.239-.479a6.196 6.196 0 0 1-.232-.792 12.016 12.016 0 0 1-.261-1.495 38.084 38.084 0 0 1-.232-2.878c-.127-2.72-.165-5.441-.187-8.117-.101-3.448.004-6.9.314-10.337.254-2.13 2.242.688 2.115 4.612-.075 3.221-.142 6.443-.134 9.649 0 1.607 0 3.207.097 4.791.045.785.097 1.57.194 2.325.052.366.105.747.18 1.061.044.127.082.322.119.404.01.043.028.083.052.119a.169.169 0 0 0 .075.06c.072.052.15.095.232.127.205.093.414.176.628.247a29.66 29.66 0 0 0 6.121 1.099c2.123.201 4.283.306 6.413.358h4.231c.235-.015.468-.055.695-.119.104-.045.269-.082.269-.217 0-.134-.135-.179-.217-.247a4.098 4.098 0 0 0-.62-.314l-.344-.142-.523-.186c-.546-.187-1.107-.359-1.667-.531a80.237 80.237 0 0 0-8.446-2.011 41.86 41.86 0 0 0-1.495-.239l-.747-.097-.374-.037h-.508v-.09a6.498 6.498 0 0 0-1.054-.254.529.529 0 0 0-.224 0c-.053 0-.075-.12-.128-.187l-.358-.463c0-2.856-.068-5.703-.097-8.529-.038-3.423-.225-6.726-.135-10.209v-.696a1.115 1.115 0 0 1 0-.231c0-.06.052-.15-.037-.195a2.374 2.374 0 0 0-.583-.037c-.404 0-.815.06-1.114.067-.48.036-.96-.077-1.375-.321a2.612 2.612 0 0 1-.479-.299c-.179-.187 0-.448.449-.747a7.283 7.283 0 0 1 2.339-.748 4.143 4.143 0 0 1 2.437.172 1.2 1.2 0 0 1 .635.815l.075.568c0 .231-.112.493-.172.747v3.976c0 1.279 0 2.572.052 3.88.038 2.608.075 5.232.112 7.907l.045 2.676.396.038.583.059c.389.045.748.105 1.137.157.747.12 1.494.254 2.242.396 1.495.285 2.922.613 4.372.972l-.045.038ZM190.844 325.147c.815-.15 1.629-.277 2.452-.396l1.659-.209a22.274 22.274 0 0 1 2.16-.15 5.81 5.81 0 0 1 1.697.164c.353.098.678.277.949.524.141.121.253.271.329.441a.971.971 0 0 1 .067.613c-.069.354-.22.686-.441.971a7.889 7.889 0 0 1-2.055 1.615c-.456.269-.905.53-1.391.747l-.68.351-.418.21a52.429 52.429 0 0 1-4.537 2.033 64.455 64.455 0 0 1-4.141 1.442c-1.424.46-2.884.8-4.365 1.017a9.128 9.128 0 0 1-1.226.059 3.484 3.484 0 0 1-.747-.097 1.903 1.903 0 0 1-.748-.373 2.42 2.42 0 0 1-.575-.598c-.112-.18-.239-.367-.337-.539-.186-.358-.351-.71-.5-1.053a41.039 41.039 0 0 1-1.413-4.178c-.747-2.467-1.383-4.956-2.025-7.408a81.583 81.583 0 0 1-2.123-9.552c-.262-2.018 2.309.09 3.139 3.738.747 3.213 1.495 6.427 2.295 9.611.411 1.592.829 3.177 1.3 4.724.239.748.493 1.54.748 2.242.13.338.28.667.448.987.209.359.172.321.284.404.112.082 0 0 .082 0h.254a4.7 4.7 0 0 0 .628 0c.465-.043.927-.113 1.383-.21a25.842 25.842 0 0 0 2.863-.784c1.906-.621 3.797-1.383 5.65-2.175a53.676 53.676 0 0 0 2.99-1.361l.665-.321c.187-.097.381-.209.576-.329.194-.12.441-.254.515-.486-.037-.112-.172-.127-.269-.149h-1.016l-.366.037-.501.06a70.06 70.06 0 0 0-8.058 1.577c-.523.142-1.046.284-1.562.448l-.433.15-.284.105c-.097.037-.194.097-.284.044a1.028 1.028 0 0 0-.493 0 2.948 2.948 0 0 0-.397.06c-.089 0-.149.075-.201.06a1.093 1.093 0 0 0-.187-.179c-.157-.127-.269-.24-.456-.374-.748-2.743-1.495-5.486-2.287-8.222-.867-3.132-1.861-6.121-2.601-9.32a3.137 3.137 0 0 1-.09-.404 1.994 1.994 0 0 0-.06-.306 1.31 1.31 0 0 1 0-.217.137.137 0 0 0-.017-.105.156.156 0 0 0-.038-.039.148.148 0 0 0-.05-.021.829.829 0 0 0-.298 0h-.359c-.411.068-.748.135-1.054.165a2.24 2.24 0 0 1-1.331-.172 2.49 2.49 0 0 1-.485-.254c-.382-.314.448-1.121 2.436-1.742l.195-.052.299-.067c.209-.038.418-.075.62-.097a2.979 2.979 0 0 1 1.188.097c.808.261 1.092.942 1.032 1.943.149.591.291 1.189.441 1.786.149.598.306 1.151.463 1.727.329 1.166.658 2.347.987 3.528l2.033 7.198.493 1.756.254.882c0 .052 0 0 0 0l.262-.09.553-.164a44.48 44.48 0 0 1 2.167-.583 72.582 72.582 0 0 1 4.336-.927l.007.187ZM77.829 110.68a5.306 5.306 0 0 1-1.151.381c-.392.122-.791.215-1.196.277-.411.037-.838.09-1.249.104l-1.173-.059c-.404 0-.748-.142-1.174-.21l-.582-.119-.561-.18c-.366-.119-.747-.224-1.106-.366l-1.062-.463a15.716 15.716 0 0 1-1.494-.748 10.25 10.25 0 0 1-1.495-.904 24.773 24.773 0 0 1-7.61-8.67c-.448-.748-.746-1.495-1.143-2.287a21.377 21.377 0 0 1-.971-2.355 18.918 18.918 0 0 1-.957-3.109 10.466 10.466 0 0 1-.277-1.607 61.39 61.39 0 0 1-.164-1.607c-.052-.673.217-.613.605-.105a8.746 8.746 0 0 1 1.249 2.587 34.614 34.614 0 0 0 5.396 11.308 19.437 19.437 0 0 0 5.815 5.098c.608.357 1.237.676 1.883.956.33.135.643.299.98.411l1.001.314a9.24 9.24 0 0 0 4.051.299 8.594 8.594 0 0 0 4.425-2.339l.351-.329.307-.381c.202-.262.418-.501.605-.748a13.44 13.44 0 0 0 .994-1.711 18.54 18.54 0 0 0 1.368-3.737c.458-2.02.73-4.076.815-6.144 0-.456 0-.905.075-1.368.097-1.704.32-2.242.83-2.571.108-.086.225-.159.35-.217.382-.135.65.59.68 1.868.09 4-.579 7.979-1.973 11.728a14.957 14.957 0 0 1-2.451 4.118 11.556 11.556 0 0 1-1.801 1.689l-1.032.703-1.136.53-.022-.037ZM86.199 70.499v3.266l-.224 3.042v1.345a8.228 8.228 0 0 1-.097 1.712c-.038.18-.24.157-.441 0a1.18 1.18 0 0 1-.486-.748c-.06-.583-.127-1.166-.135-1.749-.007-.583.045-1.166.112-1.749.045-.714.045-1.43 0-2.145l-.037-2.347c0-.478 0-.964-.06-1.442a26.963 26.963 0 0 0-.231-2.175c-.098-.553-.277-1.084-.42-1.622a2.688 2.688 0 0 1-.089-.352c-.06-.455 0-.62.254-.747.052-.04.107-.075.165-.105.194-.09.41.053.598.367.277.468.49.97.635 1.495.156.52.279 1.049.366 1.584.112.8.157 1.615.202 2.422l-.112-.052Z" fill="#1B1F3B"/><path d="M44.272 84.393a8.793 8.793 0 0 1-1.681-2.294 6.091 6.091 0 0 1-.658-2.87 5.674 5.674 0 0 1 .8-2.923c.147-.26.312-.51.493-.748.184-.269.394-.52.628-.747.23-.215.48-.407.747-.575a6.996 6.996 0 0 1 3.438-.882 7.58 7.58 0 0 1 3.042.53 4.767 4.767 0 0 1 2.826 2.736c.142.388-.187.448-.636.329a4.738 4.738 0 0 1-1.42-.68l-.291-.232-.322-.187a4.595 4.595 0 0 0-.672-.314c-.49-.16-.989-.288-1.495-.381a6.555 6.555 0 0 0-3.11.224c-.286.097-.553.24-.792.426-.12.079-.228.175-.321.284-.11.116-.205.244-.284.381a5.5 5.5 0 0 0-.822 1.802 4.573 4.573 0 0 0 1.046 4.043 9.53 9.53 0 0 0 2.138 1.944 13.628 13.628 0 0 0 4.08 1.853 14 14 0 0 0 3.409.366h.747c.92 0 1.211.098 1.495.471.065.084.125.171.18.262.141.276-.217.635-.98.852a10.809 10.809 0 0 1-3.513.21 13.976 13.976 0 0 1-3.49-.913 14.2 14.2 0 0 1-4.634-2.915l.052-.052ZM87.894 86.434c.38-.04.756-.1 1.129-.18A.232.232 0 0 0 89.21 86a4.608 4.608 0 0 0-.284-.792 11.96 11.96 0 0 0-2.063-3.304 8.225 8.225 0 0 0-1.308-1.188c-.613-.441-1.263-.747-1.861-1.203-.187-.142-.082-.404.224-.613a1.442 1.442 0 0 1 1.315-.165 9.716 9.716 0 0 1 3.902 3.341c.648.853 1.221 1.76 1.712 2.713.154.338.26.695.314 1.062.068.436 0 .882-.195 1.278a2.19 2.19 0 0 1-.897.89 3.908 3.908 0 0 1-.964.365 14.76 14.76 0 0 1-2.085.337c-1.047.12-2.093.12-3.11.187-.792.052-1.562.216-2.331.321-.165 0-.337.067-.501.082-.636 0-.837-.134-.987-.687 0-.127-.075-.254-.097-.381a.852.852 0 0 1 .643-.957 17.192 17.192 0 0 1 4.223-.583c1.002-.046 2-.154 2.99-.322l.044.053ZM99.659 54.25a16.675 16.675 0 0 1-5.77 6.076 8.51 8.51 0 0 1-.912.53c-.306.157-.606.337-.927.479-.63.283-1.273.532-1.928.747a17.46 17.46 0 0 1-4.051.935c-2.03.194-4.079.006-6.04-.553-3.378-.965-6.368-2.55-9.484-3.498a15.361 15.361 0 0 0-4.724-.8 13.145 13.145 0 0 0-4.679.807 11.398 11.398 0 0 0-3.603 2.16 9.306 9.306 0 0 0-2.414 3.363c-.59 1.725-.91 3.53-.949 5.352a24.084 24.084 0 0 0 0 2.75c.036.908.133 1.812.291 2.706.247 1.062-.134 1.136-.889.277a7.279 7.279 0 0 1-1.084-1.996 9.182 9.182 0 0 1-.47-3.109c.008-2.08.333-4.147.964-6.129.181-.514.4-1.014.657-1.495.274-.484.58-.949.92-1.39a13.244 13.244 0 0 1 2.294-2.242 14.649 14.649 0 0 1 12.064-2.46c4.82 1.084 9.096 3.693 13.603 4.388 1.835.31 3.716.197 5.501-.329.61-.16 1.212-.355 1.801-.583a15.36 15.36 0 0 0 6.122-4.208 15.203 15.203 0 0 0 3.602-8.4c.08-.588.124-1.18.135-1.772a6.725 6.725 0 0 0-.097-1.697 13.866 13.866 0 0 0-1.07-3.334 15.127 15.127 0 0 0-4.237-5.53 9.71 9.71 0 0 0-2.242-1.368 8.472 8.472 0 0 0-2.497-.703 10.18 10.18 0 0 0-5.067.748c-.71.294-1.403.626-2.078.994-.658.314-1.159.665-1.622.897-.356.235-.725.45-1.106.642a3.738 3.738 0 0 1-1.458.471c-.175.03-.353.047-.53.053-.217 0-.127-.284.194-.785.203-.317.43-.617.68-.897.314-.329.703-.673 1.144-1.062l1.061-.8c.359-.268.747-.492 1.129-.747a14.376 14.376 0 0 1 2.526-1.158 11.465 11.465 0 0 1 11.211 1.936 16.524 16.524 0 0 1 3.835 4.365 18.69 18.69 0 0 1 1.816 3.894c.226.701.401 1.418.523 2.145.116.741.147 1.494.09 2.242a20.14 20.14 0 0 1-.613 4.208 19.39 19.39 0 0 1-1.555 3.991l-.067-.112Z" fill="#1B1F3B"/><path d="M60.486 27.888a16.902 16.902 0 0 1 6.107-2.534 15.273 15.273 0 0 1 2.406-.329c2.845-.06 5.649.687 8.088 2.153a14.768 14.768 0 0 1 2.99 2.242 8.274 8.274 0 0 1 1.494 1.95c.405.78.567 1.662.463 2.534-.104.568-.485.374-.896 0a8.534 8.534 0 0 1-1.346-1.352 10.15 10.15 0 0 0-2.66-2.81 15.3 15.3 0 0 0-3.633-2.071 11.018 11.018 0 0 0-5.18-.538c-.97.083-1.929.279-2.855.583-.94.289-1.844.68-2.698 1.166a15.575 15.575 0 0 0-2.99 2.1 8.116 8.116 0 0 0-2.549 4.649 7.668 7.668 0 0 0 .539 3.999c.097.284.231.538.35.807.442 1.009.561 1.345.27 1.846a2.83 2.83 0 0 1-.18.336c-.209.307-.83.113-1.42-.687-1.838-2.332-2.167-5.98-.912-8.925a9.98 9.98 0 0 1 1.944-2.99c.198-.22.407-.43.628-.627.224-.194.44-.411.665-.568.433-.344.867-.688 1.338-.994l.037.06Z" fill="#1B1F3B"/><path d="M42.495 41.961a10.659 10.659 0 0 0-4.484 4.081 12.344 12.344 0 0 0-.935 2.078 9.852 9.852 0 0 0-.665 3.917c.065 1.38.347 2.743.837 4.036a11.211 11.211 0 0 0 1.884 3.199c.246.306.538.575.8.867l.866.792c.3.247.583.53.897.747l.464.374.478.337c.396.298.21.62-.374.747a3.175 3.175 0 0 1-2.503-.47 12.52 12.52 0 0 1-3.678-4.194 12.982 12.982 0 0 1-1.667-5.307 17.497 17.497 0 0 1 .045-3.423c.14-1.142.448-2.258.912-3.311a13.214 13.214 0 0 1 4.709-5.658 13.878 13.878 0 0 1 4.126-1.839 17.192 17.192 0 0 1 6.727-.344c1.727.19 3.42.618 5.03 1.271.355.149.701.316 1.039.5 1.233.748 1.495 1.264 1.337 1.87a2.24 2.24 0 0 1-.097.41c-.194.412-.83.33-1.666-.052a25.152 25.152 0 0 0-3.872-1.39 17.104 17.104 0 0 0-4.14-.546 13.781 13.781 0 0 0-3.088.314 11.02 11.02 0 0 0-2.907 1.017l-.075-.023Z" fill="#1B1F3B"/><path d="M31 73.765a11.1 11.1 0 0 1-1.607-4.874 12.7 12.7 0 0 1-.097-1.846 9.425 9.425 0 0 1 .814-3.191c.418-.982.947-1.912 1.577-2.773a10.466 10.466 0 0 1 1.966-2.115c.264-.192.541-.364.83-.516.305-.147.63-.25.964-.307l.516-.067c.172 0 .343 0 .515.045.335.04.658.146.95.314.38.187.142.463-.247.747-.194.135-.419.232-.635.352-.201.115-.414.208-.636.276a5.007 5.007 0 0 0-2.242 1.495c-.722.8-1.346 1.684-1.861 2.631a7.77 7.77 0 0 0-.747 1.869c-.153.64-.216 1.3-.187 1.958a9.38 9.38 0 0 0 1.704 5.463c.279.366.581.713.904 1.04a9.782 9.782 0 0 0 3.513 2.242 10.59 10.59 0 0 0 3.177.583h.71c.874 0 1.15.15 1.338.68a3.5 3.5 0 0 1 .134.359c.09.396-.299.747-1.024.792a11.354 11.354 0 0 1-6.547-1.495 11.212 11.212 0 0 1-3.827-3.603l.045-.06ZM48.777 179.802a26.62 26.62 0 0 1-2.556 3.887 14.74 14.74 0 0 1-3.52 3.273 10.058 10.058 0 0 1-4.695 1.607 6.35 6.35 0 0 1-1.248 0h-.628l-.643-.097a7.003 7.003 0 0 1-2.481-.979 8.102 8.102 0 0 1-2.99-4.126 17.6 17.6 0 0 1-.86-4.656 40.357 40.357 0 0 1 .651-9.089 83.6 83.6 0 0 1 3.266-12.706 103.507 103.507 0 0 1 9.829-20.816 61.756 61.756 0 0 1 6.988-9.246 32.342 32.342 0 0 1 4.328-3.931c.79-.593 1.623-1.13 2.489-1.607.882-.479 1.794-.815 2.698-1.204a23.687 23.687 0 0 1 10.27-1.435c.874.045 1.726.225 2.586.352.85.179 1.69.401 2.519.665a25.31 25.31 0 0 1 4.753 2.055 27.917 27.917 0 0 1 5.344 3.894 37.326 37.326 0 0 1 4.44 4.836 54.925 54.925 0 0 1 6.622 11.212c1.092 2.474.703 2.242-.553.336-1.255-1.906-3.505-5.441-6.502-9.253a49.287 49.287 0 0 0-4.298-4.776 29.25 29.25 0 0 0-4.933-3.939 21.787 21.787 0 0 0-17.976-2.639l-1.495.494c-.493.187-.971.396-1.494.598-.946.41-1.85.91-2.699 1.495a29.711 29.711 0 0 0-4.776 4.2 52.539 52.539 0 0 0-4.118 5.023 81.952 81.952 0 0 0-7.953 13.835 106.563 106.563 0 0 0-5.628 15.165 71.666 71.666 0 0 0-1.936 8.618 35.423 35.423 0 0 0-.373 8.707 12.87 12.87 0 0 0 1.024 4.044 4.863 4.863 0 0 0 4.581 3.057c.341.03.684.03 1.024 0 .34-.017.678-.065 1.01-.142a8.907 8.907 0 0 0 3.67-1.786 16.969 16.969 0 0 0 3.437-3.969 34.063 34.063 0 0 0 2.55-4.754 88.897 88.897 0 0 0 3.736-10.27c1.622-5.299 2.99-10.695 4.65-16.032a103.75 103.75 0 0 1 1.315-3.984 17.856 17.856 0 0 1 1.838-3.871c.748-1.211 1.622-2.317 2.288-3.446.582-.934.112-2.175-.748-3.079a7.984 7.984 0 0 0-5.3-2.362 5.98 5.98 0 0 0-2.794.568 5.77 5.77 0 0 0-2.116 1.868 6.97 6.97 0 0 0-.747 1.264c-.21.418-.351.867-.419 1.33a13.8 13.8 0 0 0-.06 2.99c.06 1.039.165 2.1.195 3.199.013.563-.007 1.127-.06 1.689-.075.605-.21 1.121-.321 1.644a75.925 75.925 0 0 1-1.495 5.434 45.444 45.444 0 0 1-2.93 6.899 11.596 11.596 0 0 1-1.921 2.75 7.48 7.48 0 0 1-.748.71c-.635.389.785-2.055 2.557-6.786a72.75 72.75 0 0 0 1.764-5.367c.269-.912.508-1.831.747-2.75l.322-1.391c.097-.463.194-.941.239-1.315.15-1.697-.187-3.64-.255-5.688a10.37 10.37 0 0 1 .33-3.311 5.91 5.91 0 0 1 .328-.837c.114-.256.241-.505.382-.748.277-.499.6-.972.964-1.412a7.426 7.426 0 0 1 2.855-2.101 7.712 7.712 0 0 1 3.483-.553 9.865 9.865 0 0 1 6.196 2.743c.447.442.83.946 1.136 1.495.36.61.57 1.297.613 2.003.014.391-.031.782-.135 1.159-.04.189-.106.373-.194.546a4.33 4.33 0 0 1-.24.463c-.283.486-.582.919-.866 1.338a21.017 21.017 0 0 0-2.81 4.925c-2.004 5.464-3.461 11.257-5.158 17.042-1.696 5.785-3.415 11.585-6.33 17.056l-.015-.015Z" fill="#1B1F3B"/><path d="m77.627 143.283 1.18 2.564c.42.874.748 1.794 1.1 2.69a81.648 81.648 0 0 1 1.786 5.479c1.069 3.663 1.966 7.332 3.087 10.898a65.654 65.654 0 0 0 2.9 7.608 51.412 51.412 0 0 0 3.445 6.256 52.404 52.404 0 0 0 4.201 5.8c.731.88 1.588 1.648 2.541 2.28.418.263.892.421 1.383.463a1.593 1.593 0 0 0 1.159-.47 6.984 6.984 0 0 0 1.659-2.833c.357-1.111.585-2.26.68-3.423.389-4.193-.217-8.506-.979-12.707-.501-2.683-1.144-5.344-1.839-7.997-.695-2.653-1.375-5.307-2.123-7.938-.426-1.659-.142-1.495.666-.261a24.494 24.494 0 0 1 1.45 2.698c.269.575.538 1.203.814 1.876.127.344.262.687.404 1.046.142.359.224.748.336 1.129a77.433 77.433 0 0 1 3.147 16.772 26.17 26.17 0 0 1-.747 8.76 9.04 9.04 0 0 1-2.385 4.081c-.363.344-.8.599-1.278.747a3.19 3.19 0 0 1-1.495.068 5.78 5.78 0 0 1-2.242-1.054 20.163 20.163 0 0 1-3.737-3.82c-1.099-1.375-2.093-2.825-3.065-4.275a49.214 49.214 0 0 1-4.947-9.365c-2.915-7.175-4.186-14.784-6.974-21.758-.411-1.076-.904-2.115-1.375-3.169a32.553 32.553 0 0 1-1.383-3.333 19.891 19.891 0 0 1-.882-3.536 10.656 10.656 0 0 1 .045-3.737 5.852 5.852 0 0 1 1.27-2.668 5.34 5.34 0 0 1 2.504-1.622 10.37 10.37 0 0 1 5.599.172c.92.235 1.8.608 2.608 1.106a7.623 7.623 0 0 1 2.01 2.055 13.13 13.13 0 0 1 1.727 5.232c.202 1.383.3 2.766.426 4.096.127 1.331.307 2.676.508 3.999a38.757 38.757 0 0 0 1.989 7.691c.418 1.069.9 2.113 1.442 3.124a34.089 34.089 0 0 0 2.482 3.79c.246.329.47.673.672 1.031.16.248.287.514.382.793.094.225.169.457.224.695 0 .299-.344.201-1.062-.262a11.831 11.831 0 0 1-2.772-2.698 24.756 24.756 0 0 1-3.528-6.772 41.56 41.56 0 0 1-1.734-7.474 83.525 83.525 0 0 1-.434-3.834c-.12-1.279-.18-2.534-.351-3.738-.33-2.376-1.091-4.686-2.728-5.897a5.101 5.101 0 0 0-.972-.583 8.648 8.648 0 0 0-1.151-.396 12.1 12.1 0 0 0-2.526-.441c-1.66-.105-3.177.336-3.94 1.443-.762 1.106-.941 2.825-.68 4.484a19.965 19.965 0 0 0 1.578 5.098l-.075.037ZM40.18 251.032a668.802 668.802 0 0 0 2.99-16.16c.336-1.965.59-3.954.919-5.919 1.136-6.951 2.242-13.917 3.147-20.928.426-3.095.747-6.219 1.068-9.306.404-3.954.688-7.975 1.181-11.869.017-.199.052-.397.105-.59.052-.112.067-.165.18-.202a.307.307 0 0 1 .194.157c.119.19.21.396.269.613.228.73.386 1.481.47 2.242.076.495.126.994.15 1.495 0 .523 0 1.084-.045 1.659-.598 8.162-1.674 16.249-2.99 24.366-.8 4.859-1.434 9.934-2.242 14.904a583.473 583.473 0 0 1-2.825 16.354 516.407 516.407 0 0 1-1.958 10.03c-1.024 5.053-2.168 10.105-3.341 15.091-.905 3.879-1.794 7.691-2.863 11.495-.247.837-.44 1.667-.747 2.497-.994 3.109-1.555 4.021-2.295 4.484a2.565 2.565 0 0 1-.5.292c-.509.127-.345-1.219.343-3.453 1.966-6.675 3.737-13.82 5.367-21.041a506.013 506.013 0 0 0 3.37-16.211h.053ZM62.592 276.011c-.748 3.924-1.495 7.848-2.414 11.764-.33 1.428-.628 2.87-1.032 4.291-.366 1.255-.747 2.503-1.263 3.737a16.396 16.396 0 0 1-.86 1.853 6.495 6.495 0 0 1-1.36 1.794c-.339.276-.73.479-1.15.598a3.3 3.3 0 0 1-.554.142l-.53.09c-.68.083-1.365.11-2.049.082a29.495 29.495 0 0 1-3.924-.374 50.398 50.398 0 0 1-6.727-1.495 23.999 23.999 0 0 1-4.148-1.659 9.952 9.952 0 0 1-1.913-1.255 6.674 6.674 0 0 1-1.547-1.794c-.232-.456-.217-.703-.097-.748.12-.045.38.112.747.314.448.252.91.479 1.383.68.291.12.583.254.912.382.164.059.321.142.5.201l.509.254a26.275 26.275 0 0 0 3.909 1.495c1.325.443 2.672.82 4.036 1.129 1.398.323 2.813.573 4.238.747 1.369.195 2.756.228 4.133.098a2.44 2.44 0 0 0 .874-.262c.26-.187.481-.423.65-.695.442-.707.808-1.459 1.092-2.242a52.552 52.552 0 0 0 1.495-5.158c.949-3.856 1.689-7.788 2.392-11.727.426-2.429.837-4.866 1.233-7.295.598-3.692 1.218-7.399 1.771-11.077.426-2.855.748-5.68 1.286-8.513.12-.628.224-1.241.381-1.868.205-.841.522-1.65.942-2.407.233-.364.554-.662.934-.867.123-.071.253-.129.389-.172.18 0 .186.194.157.613a13.334 13.334 0 0 1-.18 1.906 639.546 639.546 0 0 1-.53 3.737c-.18 1.241-.337 2.579-.509 3.887-.396 2.616-.8 5.232-1.195 7.922a555.52 555.52 0 0 1-1.959 11.907l-.022-.015Z" fill="#1B1F3B"/><path d="M70.287 287.618c-.896-5.015-1.554-10.038-2.175-15.068-.224-1.831-.5-3.662-.695-5.493-.747-6.473-1.3-12.946-1.898-19.433-.27-2.871-.606-5.748-.964-8.581a437.707 437.707 0 0 0-.695-5.464c-.24-1.816-.36-3.662-.748-5.411-.104-.538-.134-.747 0-.8.135-.052.33.172.613.613.365.597.678 1.225.934 1.876.172.404.33.837.486 1.308.075.232.15.479.232.748.082.269.105.508.157.747a184.2 184.2 0 0 1 .882 5.591c.269 1.853.448 3.737.65 5.606.399 3.742.745 7.499 1.04 11.271.328 4.484.933 9.186 1.494 13.782.575 5.045 1.196 10.098 1.973 15.113.486 3.08 1.024 6.159 1.742 9.186a28.254 28.254 0 0 0 2.242 6.585c.239.472.56.897.95 1.256.413.34.877.615 1.374.814 1.048.409 2.157.639 3.282.681 3.54.049 7.044-.719 10.24-2.243.702-.314 1.367-.68 2.04-1.054 1.24-.702 1.996-1.24 2.571-1.562.241-.133.49-.25.747-.351.205-.065.415-.107.628-.127.173-.036.348-.061.523-.075.232 0 .18.284-.09.822a6.365 6.365 0 0 1-1.816 1.899 24.146 24.146 0 0 1-9.484 4.028 21.469 21.469 0 0 1-5.352.449 13.472 13.472 0 0 1-2.788-.419 8.054 8.054 0 0 1-2.735-1.278 4.914 4.914 0 0 1-.912-.859 7.307 7.307 0 0 1-.658-.957 14.248 14.248 0 0 1-.927-1.831 37.593 37.593 0 0 1-1.226-3.775c-.68-2.519-1.203-5.045-1.681-7.571l.044-.023ZM88.423 249.253a1187.632 1187.632 0 0 1-2.16-18.282c-.247-2.242-.516-4.485-.747-6.682a594.296 594.296 0 0 1-1.832-23.626c-.186-3.498-.396-7.019-.463-10.502-.097-4.484-.202-9.006.83-13.453.358-1.383.53-1.106.568.089.037 1.196.179 3.341.186 5.875v3.386c0 1.129 0 2.242.083 3.386.06 2.242.201 4.529.284 6.802.194 4.544.463 9.096.747 13.67.322 5.479.987 11.152 1.577 16.735a995.019 995.019 0 0 0 2.145 18.402c.486 3.737.98 7.541 1.495 11.301.83 5.688 1.69 11.413 2.72 17.026a204.344 204.344 0 0 0 2.819 12.856c.246.927.478 1.838.747 2.765.957 3.453 1.24 4.485 1.144 5.344.012.202.012.404 0 .606-.053.254-.307.104-.8-.464a10.052 10.052 0 0 1-1.375-2.81 100.536 100.536 0 0 1-3.057-11.764 278.574 278.574 0 0 1-2.243-12.228c-1.009-6.107-1.89-12.258-2.72-18.402l.052-.03Z" fill="#1B1F3B"/><path d="M65.063 188.749a27.827 27.827 0 0 0 5.89-.464c.747-.134 1.39-.351 2.093-.53a22.873 22.873 0 0 0 6.95-3.065 14.938 14.938 0 0 0 2.535-2.242 17.31 17.31 0 0 0 2.347-3.505c.201-.382.538-.24.747.261a2.675 2.675 0 0 1-.21 2.242 14.21 14.21 0 0 1-3.139 3.738 17.582 17.582 0 0 1-4.11 2.489 37.802 37.802 0 0 1-5.427 2.047 29.26 29.26 0 0 1-6.278.897 35.246 35.246 0 0 1-3.887-.074 41.618 41.618 0 0 1-5.777-.912 42.392 42.392 0 0 1-4.343-1.091c-.314-.105-.628-.187-.934-.307-1.151-.441-1.45-.747-1.495-1.241a1.762 1.762 0 0 1 0-.328c0-.344.59-.419 1.443-.217 2.51.635 5.112 1.196 7.735 1.674 1.954.336 3.93.516 5.913.538l-.053.09ZM41.512 294.734c-.396.905-9.716 21.877-8.423 25.338 1.293 3.46 14.866 17.191 16.937 16.047 3.049-1.726-7.34-12.811-11.743-16.989l7.475-22.116-4.246-2.28ZM81 303.023c.076.987-.037 26.534 2.692 29.008 2.728 2.474 21.966 1.21 23.252-.748 1.891-2.99-13.401-1.345-19.246-2.99l-1.869-25.203-4.828-.067ZM293.214 70.782a6.061 6.061 0 0 1 3.094-.254c1.345.322 1.555 1.495 1.263 2.691-.088.349-.201.69-.336 1.024 0 .045-.172.24-.157.269.052.142-.157-.314.067 0h.262c-.03 0-.172-.344-.172-.359-.202-.598-.157-1.196.583-1.046 1.061.224 1.495-1.398.448-1.622a2.19 2.19 0 0 0-2.75 2.69c.232 1.383 1.659 2.789 2.862 1.361 1.204-1.428 1.495-4.552-.112-5.905-1.495-1.24-3.797-1.016-5.501-.486-1.031.322-.59 1.944.449 1.622v.015ZM298.256 63.66c-3.281-1.84-7.519-2.243-10.628.15-1.032.799 0 2.585 1.039 1.77 2.548-1.965 5.845-1.659 8.55-.141a1.032 1.032 0 0 0 1.039-1.78ZM288.809 90.245a5.456 5.456 0 0 0 2.556 3.14 6.21 6.21 0 0 0 3.797.194c1.181-.224.68-2.026-.501-1.801-1.951.358-3.259-.105-4.051-2.026-.456-1.099-2.242-.613-1.801.493ZM175.803 81.082a5.76 5.76 0 0 1-1.256 2.31 3.15 3.15 0 0 1-1.345.837 3.278 3.278 0 0 1-1.563.052 4.486 4.486 0 0 1-1.771-.815 7.305 7.305 0 0 1-1.876-2.354 13.127 13.127 0 0 1-1.017-2.638c-.224-.748-.441-1.54-.665-2.303a26.792 26.792 0 0 1-.687-2.877c-.038-.3.299-.396.747-.277a1.909 1.909 0 0 1 1.233 1.032c.202.493.389.986.561 1.495.172.508.261.979.389 1.494.222.924.494 1.835.814 2.728a5.006 5.006 0 0 0 2.056 2.407 1.559 1.559 0 0 0 1.24.247 1.817 1.817 0 0 0 .95-1.024c.308-.713.502-1.47.575-2.242a17.552 17.552 0 0 0 0-3.737c-.097-.98-.359-1.929-.538-2.9 0-.217-.075-.434-.097-.65-.067-.823.089-1.114.56-1.309.105-.045.202-.104.292-.134.299-.09.695.216.897.747.134.419.284.845.411 1.278.127.434.187.89.261 1.353.159.94.259 1.888.299 2.84a15.062 15.062 0 0 1-.411 4.522l-.059-.082ZM179.271 76.41a33.665 33.665 0 0 1-1.068-5.665c-.088-.72-.13-1.443-.127-2.168a11.98 11.98 0 0 1 .702-3.79 8.576 8.576 0 0 1 2.093-3.318 6.434 6.434 0 0 1 3.109-1.711c.366-.09.748-.113 1.129-.172.381-.06.747 0 1.136 0 .367.052.728.142 1.076.269.34.138.67.3.987.486.396.224.172.538-.299.8a3.991 3.991 0 0 1-.845.343 2.238 2.238 0 0 1-.971.165 4.692 4.692 0 0 0-3.087.597 6.294 6.294 0 0 0-2.287 2.474 9.014 9.014 0 0 0-.808 4.56c0 .44.045.882.09 1.33.045.449.097.905.172 1.36.135.905.299 1.802.516 2.691a26.92 26.92 0 0 0 3.221 7.84 27.785 27.785 0 0 0 2.407 3.11c.187.224.396.419.575.643.651.867.748 1.21.568 1.682-.037.11-.082.217-.134.321-.194.299-.71.142-1.346-.389a22.775 22.775 0 0 1-4.626-6.054 29.263 29.263 0 0 1-2.242-5.419l.059.015Z" fill="#1B1F3B"/><path d="M189.369 78.638c-.06.344-.12.658-.225 1.046-.062.23-.139.454-.231.673-.053.127-.098.269-.157.389l-.217.35a1.647 1.647 0 0 1-1.226.817 1.65 1.65 0 0 1-1.39-.487 5.341 5.341 0 0 1-.8-.793 6.75 6.75 0 0 1-.448-.642 16.936 16.936 0 0 1-1.697-4.806l-.493-2.123a19.46 19.46 0 0 1-.546-2.683c0-.284.262-.33.613-.165a1.763 1.763 0 0 1 .919 1.032l.748 2.683c.217.874.433 1.749.657 2.638a8.346 8.346 0 0 0 1.495 2.848c.084.129.176.251.277.366.082.075.194.18.321.157a.42.42 0 0 0 .269-.239c0-.06.053-.12.083-.187.029-.067.067-.231.097-.344.167-.737.275-1.487.321-2.242.087-1.164.1-2.332.037-3.498a24.378 24.378 0 0 0-.403-2.66c0-.195-.09-.374-.12-.576-.082-.747 0-.95.464-1.173.104-.053.209-.113.314-.157.343-.142.747.142.897.687.483 1.65.722 3.363.71 5.083a26.7 26.7 0 0 1-.232 3.976l-.037.03ZM174.83 62.053c.322.06.352.433.135.964-.131.23-.316.424-.538.568-.195 0-.381.06-.538.067a6.075 6.075 0 0 0-1.57-.396 1.44 1.44 0 0 1-.269-.045 1.664 1.664 0 0 1-.277 0c-.186 0-.358-.075-.538-.097a8.219 8.219 0 0 0-2.294.075 2.13 2.13 0 0 1-.539.045 3.531 3.531 0 0 0-1.793.47c-.098.053-.202.075-.254.195-.252.23-.534.427-.838.583-.388.261-.792.508-.889.568a7.962 7.962 0 0 0-1.495.815c-.067.052-.097.134-.217.127-.276 0-.366.142-.493.269-.127.127-.336.359-.546.515a1.406 1.406 0 0 1-.426.165c-.142.045-.388-.18-.396-.232-.007-.052-.209-.157-.336-.224a.628.628 0 0 1-.12-.075c.025-.308.088-.612.187-.904.095-.337.231-.66.404-.964l.254-.344.598-.673c.456-.493.979-.957 1.084-1.061.12-.092.257-.16.403-.202.571-.446 1.173-.85 1.802-1.21a2.374 2.374 0 0 1 1.218-.345c.083 0 .165-.02.239-.06a4.605 4.605 0 0 1 1.046-.276c.358-.067.72-.105 1.084-.112.374 0 .748-.097 1.114-.09a1.89 1.89 0 0 1 .202 0c.083.023.168.036.254.038.446.013.891.06 1.33.142.441.127.89.179 1.331.314.22.097.433.212.635.343.192.16.397.306.613.434.149.03.306.553.433.613ZM176.522 96.165c2.855 2.795 7.4 2.743 8.82-1.413.448-1.3-1.607-1.86-2.056-.568-.897 2.624-3.625 2.078-5.232.471-.979-.957-2.481.546-1.495 1.495l-.037.015ZM73.21 70.924a3.733 3.733 0 0 0-.538-.762l-.068-.083c-.082-.074-.187-.12-.329.045a1.254 1.254 0 0 0-.246.36c-.082.126-.12.268-.202.403a9.902 9.902 0 0 0-.748 3.774c.006.6.069 1.198.187 1.787.135.747.366 1.494.516 2.167.045.224-.224.359-.598.3a1.398 1.398 0 0 1-1.054-.808c-.87-2.731-.765-5.68.3-8.341l.26-.412c.105-.134.225-.269.337-.403.298-.33.694-.555 1.129-.643.43-.054.864.047 1.225.284.29.205.543.457.748.748.432.581.8 1.207 1.099 1.868.456.957.8 1.943 1.18 2.893.3.747.673 1.435 1.002 2.16.085.152.155.312.21.478.194.613.06.867-.344 1.129-.09.06-.165.127-.24.172-.231.142-.695 0-.994-.397a8.966 8.966 0 0 1-.964-1.906c-.261-.657-.5-1.33-.747-1.988a18.746 18.746 0 0 0-1.219-2.795l.098-.03ZM80.259 69.99c-.045-.09-.09-.187-.142-.27l-.12-.193c-.067-.105-.045-.098-.082-.15a.172.172 0 0 0-.269 0s-.09.135-.142.232l-.157.366a9.896 9.896 0 0 0-.635 3.423c0 .537.05 1.072.15 1.6.119.68.32 1.323.425 1.965 0 .202-.246.337-.605.285a1.278 1.278 0 0 1-1.002-.748 8.691 8.691 0 0 1-.433-4.634 9.966 9.966 0 0 1 .672-2.922c.247-.479.8-1.323 1.548-1.45.372-.07.757.005 1.076.209.305.202.573.455.792.747a9.94 9.94 0 0 1 .934 1.742c.39.882.666 1.779.994 2.646.255.672.599 1.3.89 1.958.078.136.138.282.18.433a.748.748 0 0 1-.39 1.032c-.089.052-.164.12-.246.157a.867.867 0 0 1-.964-.351 6.928 6.928 0 0 1-.867-1.727c-.232-.598-.434-1.203-.635-1.809a18.85 18.85 0 0 0-1.01-2.549l.038.008ZM72.69 62.052c-2.953-1.697-6.459.598-8.14 3.072-.815 1.196 1.128 2.325 1.936 1.136.964-1.427 3.296-3.296 5.075-2.242a1.121 1.121 0 0 0 1.128-1.936v-.03ZM77.482 63.801c1.107-1.554 3.737-.635 4.918.284 1.181.92 2.243-1.083 1.137-1.936-2.355-1.779-6.144-2.077-7.99.516-.838 1.181 1.106 2.302 1.935 1.136ZM78.382 96.688c1.04 2.34 4.784 3.289 6.847 1.816 1.166-.83.045-2.78-1.129-1.935a2.734 2.734 0 0 1-3.782-1.017c-.583-1.315-2.519-.18-1.936 1.136ZM19.563 156.161a64.363 64.363 0 0 0 6.3-5.479c.748-.747 1.443-1.495 2.19-2.242a55.94 55.94 0 0 1 8.588-7.041 31.638 31.638 0 0 1 4.403-2.362 12.709 12.709 0 0 1 6.256-1.285c.672.052.583.433.075.919a5.548 5.548 0 0 1-2.445 1.405 25.774 25.774 0 0 0-5.5 2.13 39.281 39.281 0 0 0-5.128 3.311 56.942 56.942 0 0 0-5.643 5.232c-2.04 2.003-4.11 4.014-6.36 5.868a37.527 37.527 0 0 1-4.41 3.102 23.17 23.17 0 0 1-7.67 2.832 26.115 26.115 0 0 1-6.285.359c-.463-.052-.92-.082-1.383-.142-1.711-.262-2.19-.628-2.414-1.203a2.5 2.5 0 0 1-.134-.396c-.053-.404.702-.628 1.883-.479.434.067.875.082 1.316.112.44.03.882.083 1.322.09.89 0 1.772.052 2.661 0a19.603 19.603 0 0 0 5.232-.934 24.257 24.257 0 0 0 7.108-3.805l.038.008ZM70.946 138.552a21.444 21.444 0 0 0-1.75-.434c-.216-.045-.433 0-.65-.06a15.551 15.551 0 0 0-2.242-.321 3.408 3.408 0 0 0-.994.127c-.199.07-.4.13-.605.179a.92.92 0 0 1-.666-.067c-.157-.075-.254-.433-.261-.882-.001-.251.024-.501.075-.747a.64.64 0 0 1 .298-.449 5.34 5.34 0 0 1 3.043 0 14.46 14.46 0 0 0 1.786.18c.643.089 1.285.231 1.913.373l1.151.284c.583.135 1.151.329 1.734.434.46.059.92.091 1.383.097h.307c.373.06.44.269.366.8 0 .119 0 .239-.053.351a.927.927 0 0 1-.612.748 6.335 6.335 0 0 1-2.437-.157c-.59-.112-1.174-.284-1.757-.396l-.03-.06ZM117.17 148.881a62.25 62.25 0 0 0 10.278-.366c1.248-.172 2.474-.419 3.737-.651a78.798 78.798 0 0 0 12.856-3.565c1.868-.68 3.737-1.495 5.53-2.242 1.166-.508 2.317-1.069 3.506-1.547a21.131 21.131 0 0 1 3.647-1.226c.785-.187.845.254.419.986a7.24 7.24 0 0 1-.979 1.279 5.956 5.956 0 0 1-1.667 1.151c-1.173.56-2.377 1.061-3.588 1.554-1.21.494-2.429.979-3.655 1.443-2.466.927-4.977 1.771-7.556 2.459-3.072.822-6.271 1.801-9.5 2.339a64.542 64.542 0 0 1-10.725.852c-2.243 0-4.418-.127-6.6-.358a84.717 84.717 0 0 1-9.836-1.615c-2.504-.516-5-1.076-7.43-1.824-.538-.157-1.069-.306-1.6-.493-1.973-.688-2.51-1.136-2.69-1.876a2.615 2.615 0 0 1-.12-.493c0-.486.935-.583 2.385-.18 2.152.598 4.327 1.234 6.54 1.787a103.39 103.39 0 0 0 6.771 1.427 73.3 73.3 0 0 0 10.3 1.121l-.023.038ZM232.146 114.469c1.293-.089 2.579-.104 3.872-.149 1.293-.045 2.586 0 3.856 0 2.549 0 5.105.097 7.662.217 1.868.074 3.737.112 5.598.261 6.573.497 13.093 1.54 19.493 3.117 2.825.748 5.68 1.495 8.431 2.459l1.33.441 1.316.493c.874.344 1.764.651 2.608 1.062.845.411 1.697.807 2.534 1.226.837.418 1.599 1.001 2.384 1.494.972.658.606.957-.501.957a13.805 13.805 0 0 1-2.137-.224 15.3 15.3 0 0 1-2.728-.845 98.695 98.695 0 0 0-10.397-3.797c-3.558-1.054-7.19-1.921-10.875-2.668-4.54-.807-9.13-1.306-13.738-1.495a206.572 206.572 0 0 0-7.631-.306c-2.556-.068-5.105-.09-7.631 0a95.577 95.577 0 0 0-9.351.702 104.643 104.643 0 0 0-13.954 2.646c-3.543.935-6.936 2.123-10.337 3.356l-2.242.837c-.972.386-1.971.699-2.99.935a2.591 2.591 0 0 1-1.547-.12 3.117 3.117 0 0 1-.546-.239c-.217-.172-.067-.449.381-.807a9.591 9.591 0 0 1 2.243-1.249 105.78 105.78 0 0 1 19.44-6.158c2.534-.568 5.105-.994 7.676-1.376a90.15 90.15 0 0 1 7.774-.792l.007.022ZM317.26 150.122c1.562 2.138 3.139 4.253 4.866 6.219.628.747 1.323 1.367 1.98 2.048a24.853 24.853 0 0 0 7.96 5.777 15.14 15.14 0 0 0 4.223 1.009c.464 0 .927.053 1.391.045.463-.007.926 0 1.39 0a29.244 29.244 0 0 1 2.81-.09c.598 0 .613.426.195.979-.28.348-.604.658-.965.92a3.59 3.59 0 0 1-1.554.545 16.538 16.538 0 0 1-6.368-.62 18.29 18.29 0 0 1-5.666-2.855 42.93 42.93 0 0 1-5.748-4.903 69.245 69.245 0 0 1-5.232-6.286c-1.009-1.323-1.98-2.668-2.989-3.999-1.495-2.018-2.945-4.066-4.485-5.979-1.226-1.495-2.541-2.84-3.879-4.171-.292-.299-.605-.56-.897-.859-.4-.376-.752-.8-1.046-1.264a1.262 1.262 0 0 1-.097-.941 2.25 2.25 0 0 1 .112-.434c.179-.403.926-.246 1.853.486a49.281 49.281 0 0 1 7.325 7.908c1.667 2.13 3.229 4.327 4.843 6.458l-.022.007ZM274.121 151.295a28.616 28.616 0 0 1-.949-2.242c-.105-.277-.254-.538-.336-.822a19.499 19.499 0 0 1-.688-3.057 19.281 19.281 0 0 0-.277-1.345 4.011 4.011 0 0 1-.172-1.757c0-.187.441-.187.845-.082.404.104.837.329.897.628.27 1.067.47 2.15.598 3.244.122.675.333 1.331.628 1.95.261.748.545 1.42.874 2.101.202.426.411.844.651 1.248.349.619.749 1.209 1.195 1.764.377.386.784.741 1.219 1.061l.284.217a.743.743 0 0 1 .052.927c-.034.08-.074.157-.12.231-.156.232-.463.292-.852.187a1.976 1.976 0 0 1-.747-.359 6.305 6.305 0 0 1-.673-.5c-.209-.187-.411-.382-.613-.576-.201-.194-.351-.433-.523-.658a18.452 18.452 0 0 1-1.308-2.137l.015-.023ZM149.113 177.223a2.321 2.321 0 0 0-.389 2.153 3.076 3.076 0 0 0 1.697 1.614 1.054 1.054 0 0 0 1.405-.366 1.027 1.027 0 0 0-.366-1.405 3.13 3.13 0 0 1-.62-.344c-.112-.082-.127-.157-.187-.202-.06-.045.037.082 0 0 .052.127 0 0 0 0s.134-.254.239-.396a1.037 1.037 0 0 0-.366-1.405 1.054 1.054 0 0 0-1.405.366l-.008-.015ZM166.481 165.885c1.495.942.92 2.564.097 3.79-.747 1.098 1.047 2.13 1.779 1.039 1.495-2.243 1.622-5.045-.844-6.6-1.121-.748-2.153 1.069-1.032 1.771ZM146.322 134.74a4.245 4.245 0 0 0-.613 1.936 1.042 1.042 0 0 0 1.024 1.031 1.055 1.055 0 0 0 1.032-1.031c.039-.321.151-.628.329-.897a1.025 1.025 0 0 0-.367-1.405 1.016 1.016 0 0 0-.778-.108 1.028 1.028 0 0 0-.627.474ZM128.826 163.067a3.189 3.189 0 0 0-.404 2.915 3.814 3.814 0 0 0 2.43 1.898c1.255.434 1.793-1.554.553-1.98-.374-.135-.92-.329-1.092-.71-.171-.381.098-.748.284-1.092a1.012 1.012 0 0 0 .106-.777 1.028 1.028 0 0 0-1.612-.554 1.042 1.042 0 0 0-.265.3ZM184.391 149.419a5.922 5.922 0 0 0 1.084 2.885 1.062 1.062 0 0 0 1.405.366 1.032 1.032 0 0 0 .367-1.405 4.007 4.007 0 0 1-.8-1.846 1.066 1.066 0 0 0-1.032-1.024c-.493 0-1.098.471-1.024 1.024ZM82.025 124.47a27.503 27.503 0 0 1-6.98 3.281c-11.392 3.82-17.939-6.196-17.939-6.196s8.476-4.193 15-1.853c6.526 2.339 9.92 4.768 9.92 4.768ZM68.08 146.227a2.993 2.993 0 0 0 .707 3.642c.339.291.738.502 1.17.619a1.033 1.033 0 0 0 1.158-.471c.994-1.495 1.495-4.021-.56-4.896a2.118 2.118 0 0 0-2.026.157 2.07 2.07 0 0 0-.748 2.34c.18.665.584 1.569 1.316 1.704a1.508 1.508 0 0 0 1.278-.359c.15-.16.255-.356.306-.568a1.074 1.074 0 0 0 0-.306c0-.053 0-.045 0 0a.55.55 0 0 1-.12.298c.987-.881-.47-2.331-1.494-1.45-.191.168-.33.385-.404.628 0 .09 0 .165-.044.254-.068.486 0-.157.179-.299l.448-.269h-.09l.89.509a3.38 3.38 0 0 1-.299-.539c-.052-.112 0 .12 0-.059l-.067-.239c-.052-.18.067.104 0 0a.41.41 0 0 1 0-.165c-.105.336.172-.164 0 .12.097-.142 0 .037-.067.059.172-.119-.06 0-.068 0-.007 0 .083-.044.105-.059.022-.015-.232.119-.09.037.05-.016.1-.028.15-.037-.045 0-.277.045-.097 0 .291 0-.187-.045.06 0 .246.045-.15-.105.06 0 .209.104-.083-.165.081.067.165.232 0 0 0-.045 0 .06.068.105.098.165.03.059-.045-.157 0-.038.044.12.037.112.044.172 0 .247 0-.239 0 0a1.84 1.84 0 0 0 0 .202c0 .119.045-.157 0 .037l-.067.284c-.13.391-.318.759-.56 1.092l1.158-.471a.906.906 0 0 1-.623-.464.902.902 0 0 1-.027-.777 1.062 1.062 0 0 0-.366-1.405 1.038 1.038 0 0 0-1.405.366l.014.164ZM68.88 156.228a3.522 3.522 0 0 0 1.495 3.326 1.002 1.002 0 0 0 1.039 0 3.82 3.82 0 0 0 1.668-2.881 3.828 3.828 0 0 0-1.22-3.098 1.044 1.044 0 0 0-1.248-.157 3.45 3.45 0 0 0-1.764 3.401c.045 1.315 2.1 1.323 2.056 0 0-.748.06-1.263.747-1.63l-1.24-.157a1.741 1.741 0 0 1 .648 1.353 1.739 1.739 0 0 1-.649 1.353h1.04a1.535 1.535 0 0 1-.51-1.547c.113-1.323-1.95-1.316-2.054 0l-.008.037ZM56.533 155.556c-3.386 1.405-6.727-.748-8.498-3.536l-1.757 4.447s3.738 6.129 8.529 3.79l1.726-4.701ZM92.486 156.4a9.39 9.39 0 0 1-9.889 4.918l-1.666-5.748c3.737 1.278 7.354-1.584 9.59-4.26l1.965 5.09ZM337.415 9.935c-1.665 2.11-3.337 4.205-5.115 6.207-1.192 1.345.799 3.328 2 1.97 1.781-2.012 3.457-4.102 5.122-6.211 1.102-1.396-.876-3.387-2-1.97l-.007.004ZM343.13 30.955a59.057 59.057 0 0 1 6.006-.24c1.813.015 1.842-2.79.019-2.807-2.007-.021-4.014.06-6.013.243-1.778.164-1.803 2.975-.012 2.804ZM195.638 6.392c.284 2.332.658 4.649.995 6.98.246 1.78 2.952 1.017 2.698-.747-.292-2.078-.636-4.155-.89-6.233-.224-1.772-2.989-1.794-2.803 0ZM215.678 20.712a44.734 44.734 0 0 0 6.51-6.577c1.114-1.412-1.338-2.833-2.422-1.412a41.2 41.2 0 0 1-6.076 5.979c-1.36 1.188.628 3.161 1.988 1.98v.03ZM49.001 1.354a29.246 29.246 0 0 1-.897 8.752c-.5 1.734 2.198 2.474 2.706.748a31.997 31.997 0 0 0 .994-9.5c0-1.802-2.833-1.809-2.803 0ZM21.718 11.788c2.243 2.242 4.418 4.604 6.608 6.92 1.24 1.316 3.221-.672 1.988-1.98-2.19-2.324-4.335-4.664-6.578-6.929-1.27-1.278-3.258.71-1.98 1.989h-.038Z" fill="#1B1F3B"/>
</svg>