<svg fill="none" xmlns="http://www.w3.org/2000/svg" viewBox="0 0 24 19">
    <path fill-rule="evenodd" clip-rule="evenodd" d="M22.722.676a.936.936 0 1 0-1.799.522l.634 2.183c-1.834-.878-3.427-1.437-4.805-1.717-1.844-.376-3.373-.267-4.57.322-1.155.568-1.875 1.508-2.274 2.61-1.613-.37-3.282-.277-4.705.648C3.523 6.337 2.811 7.949 2.74 9.63a6.632 6.632 0 0 0-.003.071c-.387.11-.76.294-1.104.565C.067 11.497-.17 13.123.091 14.54c.25 1.357.965 2.602 1.4 3.332A.937.937 0 0 0 3.1 16.91c-.435-.728-.982-1.718-1.166-2.711-.088-.477-.087-.92.036-1.322.121-.396.368-.782.822-1.138.044-.035.09-.067.137-.096.212.97.582 1.917 1.034 2.777.76 1.446 1.801 2.736 2.863 3.529.527.394 1.12.711 1.732.815.648.11 1.334-.023 1.877-.548.96-.928.75-2.26.338-3.243-.437-1.048-1.253-2.131-2.204-3.034-.952-.904-2.113-1.697-3.294-2.097a5.541 5.541 0 0 0-.66-.18c.06-1.146.523-2.141 1.61-2.848.88-.572 2.01-.69 3.305-.383-.06.738-.027 1.504.073 2.26.356 2.68 1.585 5.582 3.114 7.567.76.987 1.656 1.826 2.634 2.254 1.031.45 2.172.44 3.18-.333 1.606-1.232 1.721-3.111 1.16-4.835-.556-1.713-1.82-3.492-3.363-4.985-1.349-1.307-2.97-2.452-4.64-3.171.27-.706.709-1.22 1.32-1.521.702-.345 1.773-.494 3.37-.168 1.143.233 2.519.7 4.159 1.47l-2.008.583a.936.936 0 0 0 .522 1.799l4.274-1.24a.936.936 0 0 0 .639-1.161L22.722.676ZM11.459 8.444a9.653 9.653 0 0 1-.088-1.342c1.28.62 2.554 1.538 3.653 2.602 1.408 1.363 2.454 2.891 2.885 4.219.215.659.264 1.214.175 1.666a1.78 1.78 0 0 1-.694 1.104 1.107 1.107 0 0 1-.593.244c-.199.017-.427-.024-.697-.141-.57-.25-1.234-.816-1.9-1.681-1.327-1.722-2.429-4.315-2.74-6.67ZM5.62 13.548a9.635 9.635 0 0 1-.75-1.86c.795.31 1.65.89 2.408 1.609.82.78 1.456 1.655 1.766 2.397.333.797.175 1.092.088 1.176a.18.18 0 0 1-.082.049.425.425 0 0 1-.18-.002c-.21-.035-.526-.17-.924-.468-.788-.59-1.663-1.64-2.326-2.9Z" fill="#1B1F3B"/>
</svg>